<svg width="750" height="358" preserveAspectRatio="none" viewBox="0 0 750 358" fill="none" xmlns="http://www.w3.org/2000/svg">
<path d="M564.39 256.65C555.02 260.74 528.09 282.2 521.06 282.2C514.03 282.2 501.15 284.24 488.27 289.35C475.39 294.46 426.21 304.68 395.76 303.66C365.31 302.64 295.05 303.66 221.28 303.66C147.5 303.66 131.11 291.4 115.89 291.4C102.63 291.4 91.15 283.65 79.9 281.65C78.79 278.52 76.97 279.75 65.98 269.83C85.75 274.45 83.01 272.24 77.5 267.16C94.13 274.7 93.45 272.21 81.01 265.05C76.77 262.61 73.4 260.13 70.71 257.76C81.72 254.63 79.08 252.76 75.77 253.84C74.25 254.33 71.32 254.8 68.02 255.21C66.99 254.15 66.09 253.13 65.31 252.16C69.04 250.67 68.25 250.31 64.1 250.56C62.43 248.22 62.84 249.74 62.2 238.64C75.53 249.33 71.16 240.05 71.16 240.05C116.86 250.55 122.42 243.76 113.77 243.76C105.12 243.76 98.33 240.67 98.33 240.67C100.15 237.04 83.9 236.27 70.54 226.47C107.59 237.59 118.12 228.94 111.3 228.94C97.1 228.94 84.13 224 84.13 224C108.83 228.32 111.3 222.76 103.89 222.76C96.48 222.76 90.3 220.91 90.3 220.91C90.3 220.91 90.3 218.44 78.57 215.97C70.36 214.24 63.67 209.8 60.38 207.28C60.3 205.96 60.23 204.64 60.15 203.31C60.33 203.67 65.81 205.81 65.6 201.15C93.33 208.08 90.53 206.29 78.57 199.91C97.71 204.23 106.98 200.53 99.57 199.91C92.16 199.29 74.87 193.12 74.87 193.12C88.46 194.36 97.1 190.65 83.52 191.27C73.18 191.74 63.21 186.49 59.03 183.95C58.67 177.91 57.91 180.48 63.35 179.36C71.04 183.38 83.84 185.23 69.94 178.91C73.65 179.53 72.41 175.82 72.41 175.82C89.7 180.76 100.2 180.14 101.44 178.91C103.87 176.48 90.96 179.63 70.56 168.41C86.62 174.59 94.03 172.12 94.65 171.5C95.27 170.88 84.77 169.03 84.77 169.03C87.13 166.33 72.94 167.94 56.91 148.28C56.79 146.33 56.67 144.38 56.56 142.45C77.89 148.62 76.43 145.89 72.1 144.45C61.32 140.88 59.17 136.7 59.17 136.7C78.48 145.95 89.57 145.91 93.22 145.44C101.99 144.3 76.43 143.87 71.4 134.6C88.42 138.97 87.58 136.71 82.58 135.05C71.8 131.48 69.65 127.3 69.65 127.3C70.24 123.93 66.53 123.43 57.56 113.92C74.36 118.72 72 116.49 67.29 111.38C81.45 119.05 80.85 116.56 70.24 109.31C62.88 104.29 53.62 95.47 53.02 86.57C55 88.09 65.03 95.56 70.58 95.56C76.76 95.56 68.11 94.32 61.32 86.3C64.88 88.67 74.6 95.56 76.14 92.48C76.14 92.48 81.7 92.48 82.32 91.86C82.94 91.24 73.67 91.24 57 77.04C57 77.04 62.56 79.51 63.79 78.89C64.82 78.37 52.1 72.71 51.27 61.43C57.07 63.83 58.14 63.8 53.91 57.89C65.03 66.54 69.97 64.68 66.26 62.83C62.55 60.98 56.38 55.42 56.38 55.42C62.56 59.74 66.88 58.51 63.79 56.66C60.7 54.81 55.14 50.48 55.14 50.48C55.14 50.48 58.23 49.86 55.76 48.01C53.29 46.16 49.44 40.08 49.44 40.08C49.39 40.14 48.98 35.4 48.66 35.97C48.12 36.92 48.3 50.09 48.24 49.56C48.24 49.56 42.17 57.28 37.85 59.75C33.53 62.22 36.61 62.84 44.64 59.75C44.64 59.75 35.49 66.75 31.26 69.19C9.8 61.07 21.97 61.4 14.73 56.4C11.48 54.15 5.45 47.77 5.45 47.77C22.25 52.57 19.89 50.34 15.18 45.23C29.34 52.9 28.74 50.41 18.13 43.16C10.77 38.14 1.51 29.32 0.909996 20.42C2.89 21.94 12.92 29.41 18.47 29.41C24.65 29.41 16 28.17 9.21 20.15C12.77 22.52 22.49 29.41 24.03 26.33C24.03 26.33 29.59 26.33 30.21 25.71C30.83 25.09 21.56 25.09 4.89 10.89C4.89 10.89 10.45 13.36 11.68 12.74C12.74 12.21 5.1 9.82999 0.589996 0.48999C0.589996 15.66 0.589996 341.23 0.589996 357.87H750V245.41C750 245.41 573.76 252.56 564.39 256.65ZM17.8 112.73C21.51 113.35 20.27 109.64 20.27 109.64C25.51 111.14 30.12 112.12 34.05 112.74C34.03 113.17 34.1 113.43 34.1 113.43C34.1 113.43 32.25 117.75 21.75 122.08C20.67 122.52 19.8 122.98 19.27 123.37C13.87 121.72 9.37 119.27 6.9 117.77C6.75 115.29 6.61 112.81 6.46 110.34C16.42 117.06 23.38 117.04 23.98 116.44C24.6 115.82 17.8 112.73 17.8 112.73ZM21.7 124.04C23.91 123.61 27.48 122.64 32.86 120.85C32.86 120.85 31.99 122.75 28.89 125.09C26.42 124.99 24 124.6 21.7 124.04ZM25.71 127.13C25.4 127.3 25.09 127.47 24.76 127.64C23.5 127.21 22.74 126.94 22.74 126.94C23.76 127.03 24.75 127.09 25.71 127.13ZM37.33 126.22C37.71 126.09 37.98 125.96 38.12 125.84C40.35 124.75 42.71 123.51 45.22 122.08C45.22 122.08 43.44 126.23 33.5 130.46C32.29 130.09 31.12 129.73 30.02 129.38C32.26 128.52 34.69 127.48 37.33 126.22ZM40.63 104.51C37.75 103.75 32.63 102.85 32.63 102.85C32.63 102.85 32.67 102.81 32.68 102.72C34.96 102.96 45.22 99.23 45.22 99.23C45.22 99.23 43.02 101.91 40.63 104.51ZM32.34 102.05C32 101.69 31.33 101.2 30.04 100.59C31.48 99.77 33.24 98.71 35.32 97.38C35.33 97.38 33.09 100.18 32.34 102.05ZM39 106.23C38.12 107.12 37.28 107.92 36.57 108.49C36.18 108.81 35.84 109.12 35.56 109.43C27.52 107.23 18.42 102.23 18.42 102.23C28.6 106.15 35.3 106.59 39 106.23ZM60.18 177.55C59.65 177.53 59.13 177.5 58.62 177.46C58.6 177.14 58.58 176.82 58.56 176.51C59.12 176.87 59.65 177.22 60.18 177.55ZM49.78 141.68C47.24 144.17 41.91 148.73 35.33 150.49C34.13 150.81 33.21 151.1 32.5 151.36C30.95 150.85 28.97 150.32 26.45 149.79C18.24 148.06 11.55 143.62 8.26 141.1C8.18 139.78 8.11 138.46 8.03 137.13C13.7 139.91 13.48 134.97 13.48 134.97C23.36 137.44 34.48 139.91 35.1 139.29C35.72 138.67 26.45 133.73 26.45 133.73C39.41 136.66 47.83 135.9 49.63 134.92C49.68 137.16 49.73 139.41 49.78 141.68ZM49.45 127.18C49.5 129.48 49.55 131.81 49.61 134.15C49.21 133.97 48.51 133.82 47.45 133.73C44.79 133.51 40.85 132.57 36.9 131.46C39.83 130.6 43.91 129.24 49.45 127.18ZM4.41 76.27C25.74 82.44 24.28 79.71 19.95 78.27C9.17 74.7 7.02 70.52 7.02 70.52C26.33 79.77 37.42 79.73 41.07 79.26C44.45 78.82 42.18 78.2 38.48 77.59C22.82 74.98 19.26 68.42 19.26 68.42C23.56 69.52 26.72 70.2 28.96 70.58C28.54 71.13 29.28 71.38 31.53 70.92C33.26 71.06 33.79 70.82 33.52 70.43C35.72 69.81 38.75 68.77 42.75 67.13C42.75 67.13 35.34 72.69 36.57 73.31C37.51 73.78 44.9 71.03 48.36 69.69C48.37 70.58 48.38 71.48 48.4 72.4V72.39C48.4 72.39 47.07 83.81 32.25 95.54C30.29 97.1 28.69 98.44 27.49 99.54C27.16 99.42 26.82 99.29 26.45 99.16C16.53 95.69 7.82 85.86 4.76 82.11C4.64 80.14 4.53 78.2 4.41 76.27Z" fill="url(#paint0_linear_1_18)"/>
<defs>
<linearGradient id="paint0_linear_1_18" x1="363.029" y1="330.329" x2="392.893" y2="-38.5817" gradientUnits="userSpaceOnUse">
<stop stop-color="#150D23"/>
<stop offset="1" stop-color="#380D5E"/>
</linearGradient>
</defs>
</svg>
