<svg width="678" height="231" viewBox="0 0 678 231" fill="none" xmlns="http://www.w3.org/2000/svg">
<path d="M624.5 100.13C611.76 100.59 613.82 91.47 603.28 91.47C595.12 91.47 586.96 97.08 578.26 100.44C576.88 100.09 574.65 99.35 571.5 97.46C571.5 97.46 574.58 98.23 576.5 98.23C578.42 98.23 578.42 97.08 578.42 97.08C578.42 97.08 581.11 96.7 581.88 96.31C582.65 95.93 574.95 96.69 565.33 91.69C565.33 91.69 569.18 93.23 573.41 93.23C577.64 93.23 576.1 93.23 570.72 89C570.72 89 573.41 90.15 574.18 89.38C574.18 89.38 576.1 89.38 576.87 88.61C577.64 87.84 571.48 89.38 565.33 84.38C565.33 84.38 569.95 85.15 571.49 84.76C573.03 84.38 566.1 83.61 564.18 80.91C564.18 80.91 571.4 84.25 575.34 82.06C578.8 80.14 573.8 82.06 569.57 79.75C569.57 79.75 570.34 78.6 565.72 77.06C565.72 77.06 573.8 78.21 574.96 77.83C576.11 77.45 568.8 76.68 565.34 72.44C565.34 72.44 570.34 74.75 571.11 74.36C571.88 73.98 566.11 71.67 563.03 64.74C563.03 64.74 568.42 67.43 569.19 67.43C569.96 67.43 564.96 63.97 564.19 63.2C564.19 63.2 571.89 66.28 572.66 65.89C573.43 65.51 563.04 60.89 561.88 57.81C561.88 57.81 567.27 59.35 568.04 59.35C568.81 59.35 566.12 57.43 566.12 57.43C566.12 57.43 569.2 57.43 569.97 57.04C570.74 56.66 561.89 55.12 560.35 51.27C560.35 51.27 565.74 54.35 566.89 53.96C568.04 53.58 562.66 51.65 559.96 46.26C559.96 46.26 562.27 47.8 562.65 47.8C563.03 47.8 559.57 42.8 559.57 42.8C559.57 42.8 560.34 43.18 560.34 42.03C560.34 40.88 558.03 37.8 558.03 37.8C558.03 37.8 561.88 42.03 562.65 41.65C563.42 41.27 558.8 37.42 557.65 33.95C557.65 33.95 560.34 37.8 561.11 37.41C561.88 37.03 559.96 36.26 558.03 31.64C558.03 31.64 559.18 31.64 558.8 30.87C558.42 30.1 557.26 28.18 556.3 25.67C555.99 24.87 553.99 31.06 552.84 32.98C551.69 34.9 551.3 35.29 553.22 34.13C553.22 34.13 552.84 37.59 549.37 42.21C546.99 45.38 545.91 45.67 549.37 44.9C549.37 44.9 548.22 46.82 548.6 47.21C548.98 47.59 551.68 45.67 551.68 45.67C551.68 45.67 550.53 49.9 547.06 52.6C543.6 55.29 546.29 54.52 546.29 54.52L544.45 56.72C544.42 56.75 544.45 56.8 544.49 56.79C545.16 56.61 548.35 55.62 552.44 52.21C552.44 52.21 548.78 57.02 543.01 58.94C537.24 60.86 545.32 59.71 545.32 59.71C545.32 59.71 544.58 60.83 545.29 60.86C543.92 60.81 541.58 60.71 539.43 59.54C539.43 59.54 540.21 58.37 535.52 56.8C535.52 56.8 543.73 57.97 544.9 57.58C546.07 57.19 538.64 56.41 535.13 52.11C535.13 52.11 540.21 54.46 540.99 54.06C541.77 53.67 535.91 51.32 532.78 44.29C532.78 44.29 538.25 47.03 539.04 47.03C539.83 47.03 534.74 43.51 533.96 42.73C533.96 42.73 541.78 45.86 542.56 45.47C543.34 45.08 532.79 40.39 531.61 37.26C531.61 37.26 537.08 38.82 537.87 38.82C538.65 38.82 535.92 36.87 535.92 36.87C535.92 36.87 539.05 36.87 539.83 36.48C540.61 36.09 531.62 34.53 530.06 30.62C530.06 30.62 535.53 33.75 536.71 33.36C537.88 32.97 532.41 31.01 529.67 25.54C529.67 25.54 532.02 27.1 532.41 27.1C532.8 27.1 529.28 22.02 529.28 22.02C529.28 22.02 530.06 22.41 530.06 21.24C530.06 20.07 527.71 16.94 527.71 16.94C527.71 16.94 531.62 21.24 532.4 20.85C533.18 20.46 528.49 16.55 527.32 13.03C527.32 13.03 530.06 16.94 530.84 16.55C531.62 16.16 529.67 15.38 527.71 10.69C527.71 10.69 528.88 10.69 528.49 9.90999C528.1 9.12999 526.93 7.16999 525.95 4.62999C525.64 3.80999 523.6 10.1 522.43 12.06C521.26 14.01 520.87 14.41 522.82 13.23C522.82 13.23 522.43 16.75 518.91 21.44C516.5 24.66 515.39 24.96 518.91 24.18C518.91 24.18 517.74 26.13 518.13 26.53C518.52 26.92 521.26 24.97 521.26 24.97C521.26 24.97 520.09 29.27 516.57 32.01C513.05 34.75 515.79 33.96 515.79 33.96L513.92 36.2C513.89 36.23 513.92 36.28 513.96 36.27C514.64 36.09 517.88 35.08 522.04 31.61C522.04 31.61 518.33 36.5 512.46 38.45C506.6 40.4 514.81 39.23 514.81 39.23C514.81 39.23 514.03 40.4 514.81 40.4C515.59 40.4 518.72 40.4 523.02 37.66C523.02 37.66 517.16 43.52 511.68 43.52C506.21 43.52 508.16 44.69 511.29 44.69C511.29 44.69 508.94 47.04 517.15 45.47C517.15 45.47 512.46 48.21 510.5 48.99C508.55 49.77 512.45 49.77 512.45 49.77C512.45 49.77 507.76 50.94 507.37 51.33C506.98 51.72 512.06 51.72 516.75 50.16C516.75 50.16 514.4 53.29 509.32 54.07C504.24 54.85 503.06 54.85 503.46 55.24C503.85 55.63 510.5 55.24 510.5 55.24C510.5 55.24 507.37 56.02 507.37 56.41C507.37 56.8 513.23 56.41 515.97 55.24C515.97 55.24 511.67 59.93 507.76 61.1C503.85 62.27 505.81 62.66 508.93 62.27C508.93 62.27 507.76 63.44 514.79 62.27C514.79 62.27 509.71 64.22 508.53 64.62C507.36 65.01 510.09 65.79 513.61 64.62C513.61 64.62 507.35 68.53 505.01 68.92C502.66 69.31 503.45 70.48 506.96 69.7C506.96 69.7 504.84 71.26 505.4 71.26C508.14 71.26 510.48 70.87 513.61 68.91C513.61 68.91 510.48 72.04 507.75 73.21C505.01 74.38 510.49 73.99 510.49 73.99C510.49 73.99 508.14 75.55 505.41 76.34C502.67 77.12 505.02 77.51 505.02 77.51C505.02 77.51 503.07 78.29 501.5 78.68C499.94 79.07 507.76 79.46 513.62 77.51C513.62 77.51 508.13 80.77 506.58 81.03C504.23 81.42 507.36 82.59 513.62 80.25C513.62 80.25 511.27 82.2 513.62 82.2C513.62 82.2 510.1 85.33 506.19 86.11C502.28 86.89 501.5 87.28 503.45 87.67C503.45 87.67 501.89 88.45 499.15 88.84C496.41 89.23 497.98 90.79 506.97 89.23C506.97 89.23 504.62 90.4 503.45 91.18C502.28 91.96 513.22 90.01 513.22 90.01C513.22 90.01 506.57 96.27 502.27 98.61C497.05 101.46 495.13 101.79 502.27 100.56C502.27 100.56 496.41 102.91 496.41 103.3C496.41 103.69 504.62 102.91 509.7 101.74C509.7 101.74 503.44 106.43 501.88 107.6C500.32 108.77 501.88 109.55 501.88 109.55C501.88 109.55 500.16 111.1 498.09 112.48C486.84 111.57 470.92 102.97 467.42 102.53C465.94 102.34 462.8 102.92 459.03 103.84C456.38 102.33 453.18 99.89 450.48 95.85C450.48 95.85 452.83 97.02 454 96.63C455.17 96.24 450.48 94.68 448.53 90.77C448.53 90.77 452.44 93.9 456.74 95.07C461.04 96.24 463.39 95.46 463.39 95.07C463.39 94.68 460.65 95.07 454.79 91.55C454.79 91.55 457.92 92.33 459.87 92.33C461.82 92.33 461.82 91.16 461.82 91.16C461.82 91.16 464.56 90.77 465.34 90.38C466.12 89.99 458.3 90.77 448.53 85.69C448.53 85.69 452.44 87.25 456.74 87.25C461.04 87.25 459.48 87.25 454 82.95C454 82.95 456.74 84.12 457.52 83.34C457.52 83.34 459.47 83.34 460.26 82.56C461.04 81.78 454.79 83.34 448.53 78.26C448.53 78.26 453.22 79.04 454.79 78.65C456.35 78.26 449.32 77.48 447.36 74.74C447.36 74.74 454.7 78.13 458.7 75.91C462.22 73.96 457.14 75.91 452.84 73.56C452.84 73.56 453.62 72.39 448.93 70.82C448.93 70.82 457.14 71.99 458.31 71.6C459.48 71.21 452.05 70.43 448.54 66.13C448.54 66.13 453.62 68.48 454.4 68.08C455.18 67.69 449.32 65.34 446.19 58.31C446.19 58.31 451.66 61.05 452.45 61.05C453.23 61.05 448.15 57.53 447.37 56.75C447.37 56.75 455.19 59.88 455.97 59.49C456.75 59.1 446.2 54.41 445.02 51.28C445.02 51.28 450.49 52.84 451.28 52.84C452.06 52.84 449.33 50.89 449.33 50.89C449.33 50.89 452.46 50.89 453.24 50.5C454.02 50.11 445.03 48.55 443.47 44.64C443.47 44.64 448.94 47.77 450.12 47.38C451.29 46.99 445.82 45.03 443.08 39.56C443.08 39.56 445.43 41.12 445.82 41.12C446.21 41.12 442.69 36.04 442.69 36.04C442.69 36.04 443.47 36.43 443.47 35.26C443.47 34.09 441.12 30.96 441.12 30.96C441.12 30.96 445.03 35.26 445.81 34.87C446.59 34.48 441.9 30.57 440.73 27.05C440.73 27.05 443.47 30.96 444.25 30.57C445.03 30.18 443.08 29.4 441.12 24.71C441.12 24.71 442.29 24.71 441.9 23.93C441.51 23.15 440.34 21.19 439.36 18.65C439.05 17.83 437.01 24.12 435.84 26.08C434.67 28.03 434.28 28.43 436.23 27.25C436.23 27.25 435.84 30.77 432.32 35.46C429.91 38.68 428.8 38.98 432.32 38.2C432.32 38.2 431.15 40.15 431.54 40.55C431.93 40.94 434.67 38.99 434.67 38.99C434.67 38.99 433.5 43.29 429.98 46.03C426.46 48.77 429.2 47.98 429.2 47.98L427.33 50.22C427.3 50.25 427.33 50.3 427.37 50.29C428.05 50.11 431.29 49.1 435.45 45.63C435.45 45.63 431.74 50.52 425.87 52.47C420.01 54.42 428.22 53.25 428.22 53.25C428.22 53.25 427.44 54.42 428.22 54.42C429 54.42 432.13 54.42 436.43 51.68C436.43 51.68 430.57 57.54 425.09 57.54C419.62 57.54 421.57 58.71 424.7 58.71C424.7 58.71 422.35 61.06 430.56 59.49C430.56 59.49 425.87 62.23 423.91 63.01C421.96 63.79 425.86 63.79 425.86 63.79C425.86 63.79 421.17 64.96 420.78 65.35C420.39 65.74 425.47 65.74 430.16 64.18C430.16 64.18 427.81 67.31 422.73 68.09C417.65 68.87 416.47 68.87 416.87 69.26C417.26 69.65 423.91 69.26 423.91 69.26C423.91 69.26 420.78 70.04 420.78 70.43C420.78 70.82 426.64 70.43 429.38 69.26C429.38 69.26 425.08 73.95 421.17 75.12C417.26 76.29 419.22 76.68 422.34 76.29C422.34 76.29 421.17 77.46 428.2 76.29C428.2 76.29 423.12 78.24 421.94 78.64C420.77 79.03 423.5 79.81 427.02 78.64C427.02 78.64 420.76 82.55 418.42 82.94C416.07 83.33 416.86 84.5 420.37 83.72C420.37 83.72 418.25 85.28 418.81 85.28C421.55 85.28 423.89 84.89 427.02 82.93C427.02 82.93 423.89 86.06 421.16 87.23C418.42 88.4 423.9 88.01 423.9 88.01C423.9 88.01 421.55 89.57 418.82 90.36C416.08 91.14 418.43 91.53 418.43 91.53C418.43 91.53 417.86 91.76 417.09 92.03C416.46 90.75 415.9 89.54 415.57 88.63C415.57 88.63 417.39 89.54 417.69 89.54C417.99 89.54 413.44 82.56 413.14 81.95C413.14 81.95 416.48 82.86 416.78 82.56C417.08 82.26 412.23 77.4 412.23 77.4C412.23 77.4 414.05 78.31 414.96 78.31C415.87 78.31 410.41 71.33 410.41 71.33C410.41 71.33 411.62 71.33 409.5 68.6C408.67 67.53 405.86 62.23 405.86 62.23C405.86 62.23 407.98 64.35 408.29 64.05C408.59 63.75 405.56 57.37 405.56 57.37C405.56 57.37 406.17 58.58 406.77 58.89C407.38 59.19 404.95 51.91 404.34 48.27C404.34 48.27 405.55 50.39 405.86 50.39C406.16 50.39 404.65 44.02 404.65 44.02C404.65 44.02 405.56 45.84 405.86 45.84C406.16 45.84 403.74 39.77 403.13 38.56C403.13 38.56 404.34 39.47 404.95 39.47C405.49 39.47 402.96 35.7 402.04 31.17C401.99 30.92 401.63 30.93 401.6 31.19C401.39 33.17 400.98 36.25 400.25 38.11C398.88 41.6 401.31 38.87 401.31 38.87C401.31 38.87 398.12 46 397.82 46.61C397.52 47.22 399.03 46.61 399.03 46.61L397.97 49.52C397.93 49.64 398.07 49.73 398.16 49.65L399.63 48.42C399.63 48.42 396.9 55.4 395.99 57.22C395.08 59.04 395.08 59.95 396.6 58.13C396.6 58.13 394.48 64.2 393.87 65.72C393.26 67.24 395.69 65.11 395.69 65.11C395.69 65.11 394.17 67.54 394.48 67.84C394.78 68.14 395.39 67.84 395.39 67.84C395.39 67.84 391.45 76.64 389.63 79.67C387.81 82.7 387.51 83.01 389.63 82.4C389.63 82.4 388.26 86.5 387.66 87.41C387.05 88.32 389.33 86.65 389.33 86.65C389.33 86.65 387.51 91.81 385.99 94.24C384.47 96.67 381.89 98.34 385.53 97.12C385.53 97.12 384.77 100.61 382.95 102.43C381.9 103.48 381.76 103.82 382.12 103.87C377.98 106.07 372.57 110.13 372.57 110.13C372.57 110.13 362.03 108.96 358.52 110.13C355.01 111.3 349.15 108.96 345.64 110.13C343.24 110.93 338.12 107.37 332.88 104.84C332.23 104.29 331.64 103.77 331.18 103.31C331.18 103.31 336.35 106.76 337.5 106.76C338.65 106.76 332.04 101.87 330.6 99.58C330.6 99.58 335.77 100.44 338.36 100.15C340.95 99.86 336.06 99.58 332.04 97.56C332.04 97.56 335.2 98.42 336.35 98.13C337.5 97.84 330.89 97.27 326.29 90.37C326.29 90.37 328.01 91.23 328.88 90.94C329.74 90.65 326.29 89.5 324.86 86.63C324.86 86.63 327.73 88.93 330.9 89.79C334.06 90.65 335.79 90.08 335.79 89.79C335.79 89.5 333.78 89.79 329.47 87.2C329.47 87.2 331.77 87.77 333.21 87.77C334.65 87.77 334.65 86.91 334.65 86.91C334.65 86.91 336.66 86.62 337.24 86.34C337.81 86.05 332.07 86.63 324.88 82.89C324.88 82.89 327.75 84.04 330.92 84.04C334.08 84.04 332.93 84.04 328.91 80.88C328.91 80.88 330.92 81.74 331.5 81.17C331.5 81.17 332.94 81.17 333.51 80.6C334.08 80.03 329.49 81.17 324.89 77.44C324.89 77.44 328.34 78.01 329.49 77.73C330.64 77.44 325.47 76.87 324.03 74.86C324.03 74.86 329.42 77.36 332.36 75.72C334.95 74.28 331.21 75.72 328.05 74C328.05 74 328.62 73.14 325.18 71.99C325.18 71.99 331.22 72.85 332.08 72.56C332.94 72.27 327.48 71.7 324.9 68.54C324.9 68.54 328.64 70.26 329.21 69.98C329.78 69.69 325.47 67.97 323.17 62.8C323.17 62.8 327.19 64.81 327.77 64.81C328.34 64.81 324.61 62.22 324.03 61.65C324.03 61.65 329.78 63.95 330.35 63.66C330.92 63.37 323.17 59.92 322.3 57.62C322.3 57.62 326.32 58.77 326.9 58.77C327.47 58.77 325.46 57.33 325.46 57.33C325.46 57.33 327.76 57.33 328.33 57.04C328.9 56.75 322.29 55.6 321.15 52.73C321.15 52.73 325.17 55.03 326.04 54.74C326.9 54.45 322.88 53.02 320.87 48.99C320.87 48.99 322.59 50.14 322.88 50.14C323.17 50.14 320.58 46.4 320.58 46.4C320.58 46.4 321.15 46.69 321.15 45.83C321.15 44.97 319.43 42.67 319.43 42.67C319.43 42.67 322.3 45.83 322.88 45.54C323.45 45.25 320.01 42.38 319.14 39.79C319.14 39.79 321.15 42.66 321.73 42.38C322.3 42.09 320.87 41.52 319.43 38.07C319.43 38.07 320.29 38.07 320 37.5C319.71 36.93 318.85 35.49 318.13 33.62C317.9 33.02 316.41 37.64 315.54 39.08C314.68 40.52 314.39 40.8 315.83 39.94C315.83 39.94 315.54 42.53 312.96 45.98C311.18 48.35 310.37 48.57 312.96 47.99C312.96 47.99 312.1 49.43 312.39 49.71C312.68 50 314.69 48.56 314.69 48.56C314.69 48.56 313.83 51.72 311.24 53.73C308.65 55.74 310.67 55.17 310.67 55.17L309.3 56.82C309.28 56.84 309.3 56.88 309.33 56.87C309.83 56.73 312.21 55.99 315.27 53.45C315.27 53.45 312.54 57.04 308.23 58.48C303.92 59.92 309.95 59.05 309.95 59.05C309.95 59.05 309.38 59.91 309.95 59.91C310.52 59.91 312.82 59.91 315.99 57.9C315.99 57.9 311.68 62.21 307.66 62.21C303.64 62.21 305.07 63.07 307.37 63.07C307.37 63.07 305.65 64.79 311.68 63.64C311.68 63.64 308.23 65.65 306.79 66.23C305.35 66.8 308.23 66.8 308.23 66.8C308.23 66.8 304.78 67.66 304.49 67.95C304.2 68.24 307.94 68.24 311.39 67.09C311.39 67.09 309.67 69.39 305.93 69.96C305.58 70.01 305.26 70.06 304.96 70.11C304.66 69.87 304.4 69.69 304.4 69.69C304.4 69.69 306.72 69.69 307.3 69.4C307.88 69.11 301.21 67.95 300.05 65.05C300.05 65.05 304.11 67.37 304.98 67.08C305.85 66.79 301.79 65.34 299.76 61.28C299.76 61.28 301.5 62.44 301.79 62.44C302.08 62.44 299.47 58.67 299.47 58.67C299.47 58.67 300.05 58.96 300.05 58.09C300.05 57.22 298.31 54.9 298.31 54.9C298.31 54.9 301.21 58.09 301.79 57.8C302.37 57.51 298.89 54.61 298.02 52C298.02 52 300.05 54.9 300.63 54.61C301.21 54.32 299.76 53.74 298.31 50.26C298.31 50.26 299.18 50.26 298.89 49.68C298.6 49.1 297.73 47.65 297.01 45.77C296.78 45.16 295.27 49.83 294.4 51.28C293.53 52.73 293.24 53.02 294.69 52.15C294.69 52.15 294.4 54.76 291.79 58.24C290 60.63 289.18 60.85 291.79 60.27C291.79 60.27 290.92 61.72 291.21 62.01C291.5 62.3 293.53 60.85 293.53 60.85C293.53 60.85 292.66 64.04 290.05 66.07C287.44 68.1 289.47 67.52 289.47 67.52L288.09 69.18C288.07 69.21 288.09 69.24 288.12 69.23C288.63 69.09 291.03 68.34 294.11 65.78C294.11 65.78 291.36 69.4 287.01 70.85C282.66 72.3 288.75 71.43 288.75 71.43C288.75 71.43 288.17 72.3 288.75 72.3C289.33 72.3 291.65 72.3 294.84 70.27C294.84 70.27 290.49 74.62 286.43 74.62C282.37 74.62 283.82 75.49 286.14 75.49C286.14 75.49 284.4 77.23 290.49 76.07C290.49 76.07 287.01 78.1 285.56 78.68C284.11 79.26 287.01 79.26 287.01 79.26C287.01 79.26 283.53 80.13 283.24 80.42C282.95 80.71 286.72 80.71 290.2 79.55C290.2 79.55 288.46 81.87 284.69 82.45C280.92 83.03 280.05 83.03 280.34 83.32C280.63 83.61 285.56 83.32 285.56 83.32C285.56 83.32 283.24 83.9 283.24 84.19C283.24 84.48 287.59 84.19 289.62 83.32C289.62 83.32 286.43 86.8 283.53 87.67C280.63 88.54 282.08 88.83 284.4 88.54C284.4 88.54 283.53 89.41 288.75 88.54C288.75 88.54 284.98 89.99 284.11 90.28C283.24 90.57 285.27 91.15 287.88 90.28C287.88 90.28 283.24 93.18 281.5 93.47C279.76 93.76 280.34 94.63 282.95 94.05C282.95 94.05 281.38 95.21 281.79 95.21C283.82 95.21 285.56 94.92 287.88 93.47C287.88 93.47 285.56 95.79 283.53 96.66C281.5 97.53 285.56 97.24 285.56 97.24C285.56 97.24 283.82 98.4 281.79 98.98C279.76 99.56 281.5 99.85 281.5 99.85C281.5 99.85 280.05 100.43 278.89 100.72C277.73 101.01 283.53 101.3 287.88 99.85C287.88 99.85 283.8 102.27 282.66 102.46C280.92 102.75 283.24 103.62 287.88 101.88C287.88 101.88 286.14 103.33 287.88 103.33C287.88 103.33 285.27 105.65 282.37 106.23C279.47 106.81 278.89 107.1 280.34 107.39C280.34 107.39 279.18 107.97 277.15 108.26C275.12 108.55 276.28 109.71 282.95 108.55C282.95 108.55 281.21 109.42 280.34 110C279.47 110.58 287.59 109.13 287.59 109.13C287.59 109.13 282.66 113.77 279.47 115.51C275.6 117.62 274.18 117.87 279.47 116.96C279.47 116.96 278.57 117.32 277.59 117.74C274.14 117.21 270.68 116.66 267.23 117.15C259.03 118.32 239.13 107.78 232.1 108.37C225.81 108.89 218.58 102.38 212.09 102.27C211.48 101.65 210.97 101.07 210.68 100.6C210.68 100.6 215.9 101.47 218.51 101.18C221.12 100.89 216.19 100.6 212.13 98.57C212.13 98.57 215.32 99.44 216.48 99.15C217.64 98.86 210.97 98.28 206.33 91.32C206.33 91.32 208.07 92.19 208.94 91.9C209.81 91.61 206.33 90.45 204.88 87.55C204.88 87.55 207.78 89.87 210.97 90.74C214.16 91.61 215.9 91.03 215.9 90.74C215.9 90.45 213.87 90.74 209.52 88.13C209.52 88.13 211.84 88.71 213.29 88.71C214.74 88.71 214.74 87.84 214.74 87.84C214.74 87.84 216.77 87.55 217.35 87.26C217.93 86.97 212.13 87.55 204.88 83.78C204.88 83.78 207.78 84.94 210.97 84.94C214.16 84.94 213 84.94 208.94 81.75C208.94 81.75 210.97 82.62 211.55 82.04C211.55 82.04 213 82.04 213.58 81.46C214.16 80.88 209.52 82.04 204.88 78.27C204.88 78.27 208.36 78.85 209.52 78.56C210.68 78.27 205.46 77.69 204.01 75.66C204.01 75.66 209.45 78.18 212.42 76.53C215.03 75.08 211.26 76.53 208.07 74.79C208.07 74.79 208.65 73.92 205.17 72.76C205.17 72.76 211.26 73.63 212.13 73.34C213 73.05 207.49 72.47 204.88 69.28C204.88 69.28 208.65 71.02 209.23 70.73C209.81 70.44 205.46 68.7 203.14 63.48C203.14 63.48 207.2 65.51 207.78 65.51C208.36 65.51 204.59 62.9 204.01 62.32C204.01 62.32 209.81 64.64 210.39 64.35C210.97 64.06 203.14 60.58 202.27 58.26C202.27 58.26 206.33 59.42 206.91 59.42C207.49 59.42 205.46 57.97 205.46 57.97C205.46 57.97 207.78 57.97 208.36 57.68C208.94 57.39 202.27 56.23 201.11 53.33C201.11 53.33 205.17 55.65 206.04 55.36C206.91 55.07 202.85 53.62 200.82 49.56C200.82 49.56 202.56 50.72 202.85 50.72C203.14 50.72 200.53 46.95 200.53 46.95C200.53 46.95 201.11 47.24 201.11 46.37C201.11 45.5 199.37 43.18 199.37 43.18C199.37 43.18 202.27 46.37 202.85 46.08C203.43 45.79 199.95 42.89 199.08 40.28C199.08 40.28 201.11 43.18 201.69 42.89C202.27 42.6 200.82 42.02 199.37 38.54C199.37 38.54 200.24 38.54 199.95 37.96C199.66 37.38 198.79 35.93 198.07 34.05C197.84 33.44 196.33 38.11 195.46 39.56C194.59 41.01 194.3 41.3 195.75 40.43C195.75 40.43 195.46 43.04 192.85 46.52C191.06 48.91 190.24 49.13 192.85 48.55C192.85 48.55 191.98 50 192.27 50.29C192.56 50.58 194.59 49.13 194.59 49.13C194.59 49.13 193.72 52.32 191.11 54.35C188.5 56.38 190.53 55.8 190.53 55.8L189.15 57.46C189.13 57.49 189.15 57.52 189.18 57.51C189.69 57.37 192.09 56.62 195.17 54.06C195.17 54.06 192.42 57.68 188.07 59.13C183.72 60.58 189.81 59.71 189.81 59.71C189.81 59.71 189.23 60.58 189.81 60.58C190.39 60.58 192.71 60.58 195.9 58.55C195.9 58.55 191.55 62.9 187.49 62.9C183.43 62.9 184.88 63.77 187.2 63.77C187.2 63.77 185.46 65.51 191.55 64.35C191.55 64.35 188.07 66.38 186.62 66.96C185.17 67.54 188.07 67.54 188.07 67.54C188.07 67.54 184.59 68.41 184.3 68.7C184.01 68.99 187.78 68.99 191.26 67.83C191.26 67.83 189.52 70.15 185.75 70.73C181.98 71.31 181.11 71.31 181.4 71.6C181.69 71.89 186.62 71.6 186.62 71.6C186.62 71.6 184.3 72.18 184.3 72.47C184.3 72.76 188.65 72.47 190.68 71.6C190.68 71.6 187.49 75.08 184.59 75.95C181.69 76.82 183.14 77.11 185.46 76.82C185.46 76.82 184.59 77.69 189.81 76.82C189.81 76.82 186.04 78.27 185.17 78.56C184.3 78.85 186.33 79.43 188.94 78.56C188.94 78.56 184.3 81.46 182.56 81.75C180.82 82.04 181.4 82.91 184.01 82.33C184.01 82.33 182.44 83.49 182.85 83.49C184.88 83.49 186.62 83.2 188.94 81.75C188.94 81.75 186.62 84.07 184.59 84.94C182.56 85.81 186.62 85.52 186.62 85.52C186.62 85.52 184.88 86.68 182.85 87.26C180.82 87.84 182.56 88.13 182.56 88.13C182.56 88.13 181.11 88.71 179.95 89C178.79 89.29 184.59 89.58 188.94 88.13C188.94 88.13 184.86 90.55 183.72 90.74C181.98 91.03 184.3 91.9 188.94 90.16C188.94 90.16 187.2 91.61 188.94 91.61C188.94 91.61 186.33 93.93 183.43 94.51C182.57 94.68 181.92 94.83 181.46 94.96C179.2 94.57 176.11 93.76 172.69 91.98C172.69 91.98 175.59 93.14 178.78 93.14C181.97 93.14 180.81 93.14 176.75 89.95C176.75 89.95 178.78 90.82 179.36 90.24C179.36 90.24 180.81 90.24 181.39 89.66C181.97 89.08 177.33 90.24 172.69 86.47C172.69 86.47 176.17 87.05 177.33 86.76C178.49 86.47 173.27 85.89 171.82 83.86C171.82 83.86 177.26 86.38 180.23 84.73C182.84 83.28 179.07 84.73 175.88 82.99C175.88 82.99 176.46 82.12 172.98 80.96C172.98 80.96 179.07 81.83 179.94 81.54C180.81 81.25 175.3 80.67 172.69 77.48C172.69 77.48 176.46 79.22 177.04 78.93C177.62 78.64 173.27 76.9 170.95 71.68C170.95 71.68 175.01 73.71 175.59 73.71C176.17 73.71 172.4 71.1 171.82 70.52C171.82 70.52 177.62 72.84 178.2 72.55C178.78 72.26 170.95 68.78 170.08 66.46C170.08 66.46 174.14 67.62 174.72 67.62C175.3 67.62 173.27 66.17 173.27 66.17C173.27 66.17 175.59 66.17 176.17 65.88C176.75 65.59 170.08 64.43 168.92 61.53C168.92 61.53 172.98 63.85 173.85 63.56C174.72 63.27 170.66 61.82 168.63 57.76C168.63 57.76 170.37 58.92 170.66 58.92C170.95 58.92 168.34 55.15 168.34 55.15C168.34 55.15 168.92 55.44 168.92 54.57C168.92 53.7 167.18 51.38 167.18 51.38C167.18 51.38 170.08 54.57 170.66 54.28C171.24 53.99 167.76 51.09 166.89 48.48C166.89 48.48 168.92 51.38 169.5 51.09C170.08 50.8 168.63 50.22 167.18 46.74C167.18 46.74 168.05 46.74 167.76 46.16C167.47 45.58 166.6 44.13 165.88 42.25C165.65 41.64 164.14 46.31 163.27 47.76C162.4 49.21 162.11 49.5 163.56 48.63C163.56 48.63 163.27 51.24 160.66 54.72C158.87 57.11 158.05 57.33 160.66 56.75C160.66 56.75 159.79 58.2 160.08 58.49C160.37 58.78 162.4 57.33 162.4 57.33C162.4 57.33 161.53 60.52 158.92 62.55C156.31 64.58 158.34 64 158.34 64L156.96 65.66C156.94 65.69 156.96 65.72 156.99 65.71C157.5 65.57 159.9 64.82 162.98 62.26C162.98 62.26 160.23 65.88 155.88 67.33C151.53 68.78 157.62 67.91 157.62 67.91C157.62 67.91 157.04 68.78 157.62 68.78C158.2 68.78 160.52 68.78 163.71 66.75C163.71 66.75 159.36 71.1 155.3 71.1C154.24 71.1 153.56 71.16 153.17 71.25C151.44 69.98 143.69 66.22 142.7 63.58C142.7 63.58 148.09 65.12 148.86 65.12C149.63 65.12 146.94 63.2 146.94 63.2C146.94 63.2 150.02 63.2 150.79 62.82C151.56 62.44 142.71 60.9 141.17 57.05C141.17 57.05 146.56 60.13 147.71 59.74C148.86 59.36 143.48 57.43 140.78 52.04C140.78 52.04 143.09 53.58 143.47 53.58C143.85 53.58 140.39 48.58 140.39 48.58C140.39 48.58 141.16 48.96 141.16 47.81C141.16 46.66 138.85 43.58 138.85 43.58C138.85 43.58 142.7 47.81 143.47 47.43C144.24 47.05 139.62 43.2 138.47 39.73C138.47 39.73 141.16 43.58 141.93 43.19C142.7 42.81 140.78 42.04 138.85 37.42C138.85 37.42 140 37.42 139.62 36.65C139.24 35.88 138.08 33.96 137.12 31.45C136.81 30.65 134.81 36.84 133.66 38.76C132.51 40.68 132.12 41.07 134.04 39.91C134.04 39.91 133.66 43.37 130.19 47.99C127.81 51.16 126.73 51.45 130.19 50.68C130.19 50.68 129.04 52.6 129.42 52.99C129.8 53.37 132.5 51.45 132.5 51.45C132.5 51.45 131.35 55.68 127.88 58.38C124.42 61.07 127.11 60.3 127.11 60.3L125.27 62.5C125.24 62.53 125.27 62.58 125.31 62.57C125.98 62.39 129.17 61.4 133.26 57.99C133.26 57.99 129.6 62.8 123.83 64.72C118.06 66.64 126.14 65.49 126.14 65.49C126.14 65.49 125.37 66.64 126.14 66.64C126.91 66.64 129.99 66.64 134.22 63.95C134.22 63.95 128.45 69.72 123.06 69.72C117.67 69.72 119.6 70.87 122.68 70.87C122.68 70.87 120.37 73.18 128.45 71.64C128.45 71.64 123.83 74.33 121.91 75.1C119.99 75.87 123.83 75.87 123.83 75.87C123.83 75.87 119.21 77.02 118.83 77.41C118.45 77.79 123.45 77.79 128.07 76.26C128.07 76.26 125.76 79.34 120.76 80.11C115.76 80.88 114.6 80.88 114.99 81.26C115.37 81.64 121.92 81.26 121.92 81.26C121.92 81.26 118.84 82.03 118.84 82.41C118.84 82.79 124.61 82.41 127.31 81.26C127.31 81.26 123.08 85.88 119.23 87.03C115.38 88.18 117.31 88.57 120.38 88.18C120.38 88.18 119.23 89.33 126.15 88.18C126.15 88.18 121.15 90.1 119.99 90.49C118.84 90.87 121.53 91.64 124.99 90.49C124.99 90.49 118.83 94.34 116.52 94.72C114.21 95.1 114.98 96.26 118.44 95.49C118.44 95.49 116.36 97.03 116.9 97.03C119.59 97.03 121.9 96.65 124.98 94.72C124.98 94.72 121.9 97.8 119.21 98.95C116.52 100.1 121.9 99.72 121.9 99.72C121.9 99.72 119.59 101.26 116.9 102.03C114.21 102.8 116.52 103.18 116.52 103.18C116.52 103.18 114.6 103.95 113.06 104.33C111.52 104.71 119.22 105.1 124.99 103.18C124.99 103.18 124.17 103.67 123.08 104.28C120.12 104.24 116.98 104.54 113.84 105.4C113.69 105.44 113.52 105.48 113.36 105.52C111.49 104.07 109.27 102.12 107.35 99.86C107.35 99.86 114.28 103.32 115.43 103.32C116.58 103.32 107.73 97.16 104.27 93.7C104.27 93.7 111.2 98.32 112.74 98.32C114.28 98.32 105.43 91.78 103.5 88.7C103.5 88.7 110.43 89.85 113.89 89.47C117.35 89.09 110.81 88.7 105.42 86.01C105.42 86.01 109.65 87.16 111.19 86.78C112.73 86.4 103.88 85.63 97.72 76.39C97.72 76.39 100.03 77.54 101.18 77.16C102.33 76.78 97.72 75.24 95.79 71.39C95.79 71.39 99.64 74.47 103.87 75.62C108.1 76.77 110.41 76 110.41 75.62C110.41 75.24 107.72 75.62 101.94 72.16C101.94 72.16 105.02 72.93 106.94 72.93C108.86 72.93 108.86 71.78 108.86 71.78C108.86 71.78 111.55 71.4 112.32 71.01C113.09 70.63 105.39 71.39 95.77 66.39C95.77 66.39 99.62 67.93 103.85 67.93C108.08 67.93 106.54 67.93 101.16 63.7C101.16 63.7 103.85 64.85 104.62 64.08C104.62 64.08 106.54 64.08 107.31 63.31C108.08 62.54 101.92 64.08 95.77 59.08C95.77 59.08 100.39 59.85 101.93 59.46C103.47 59.08 96.54 58.31 94.62 55.61C94.62 55.61 101.84 58.95 105.78 56.76C109.24 54.84 104.24 56.76 100.01 54.45C100.01 54.45 100.78 53.3 96.16 51.76C96.16 51.76 104.24 52.91 105.4 52.53C106.55 52.15 99.24 51.38 95.78 47.14C95.78 47.14 100.78 49.45 101.55 49.06C102.32 48.68 96.55 46.37 93.47 39.44C93.47 39.44 98.86 42.13 99.63 42.13C100.4 42.13 95.4 38.67 94.63 37.9C94.63 37.9 102.33 40.98 103.1 40.59C103.87 40.21 93.48 35.59 92.33 32.51C92.33 32.51 97.72 34.05 98.49 34.05C99.26 34.05 96.57 32.13 96.57 32.13C96.57 32.13 99.65 32.13 100.42 31.75C101.19 31.37 92.34 29.83 90.8 25.98C90.8 25.98 96.19 29.06 97.34 28.67C98.49 28.28 93.11 26.36 90.41 20.97C90.41 20.97 92.72 22.51 93.1 22.51C93.48 22.51 90.02 17.51 90.02 17.51C90.02 17.51 90.79 17.89 90.79 16.74C90.79 15.59 88.48 12.51 88.48 12.51C88.48 12.51 92.33 16.74 93.1 16.36C93.87 15.98 89.25 12.13 88.1 8.65999C88.1 8.65999 90.79 12.51 91.56 12.12C92.33 11.74 90.41 10.97 88.48 6.34999C88.48 6.34999 89.63 6.34997 89.25 5.57997C88.87 4.80997 87.71 2.88999 86.75 0.379992C86.44 -0.420008 84.44 5.76999 83.29 7.68999C82.14 9.60999 81.75 9.99998 83.68 8.83998C83.68 8.83998 83.29 12.3 79.83 16.92C77.45 20.09 76.37 20.38 79.83 19.61C79.83 19.61 78.68 21.53 79.06 21.92C79.44 22.3 82.14 20.38 82.14 20.38C82.14 20.38 80.99 24.61 77.52 27.31C74.06 30 76.75 29.23 76.75 29.23L74.91 31.43C74.88 31.46 74.91 31.51 74.95 31.5C75.62 31.32 78.81 30.33 82.9 26.92C82.9 26.92 79.24 31.73 73.47 33.65C67.7 35.57 75.78 34.42 75.78 34.42C75.78 34.42 75.01 35.57 75.78 35.57C76.55 35.57 79.63 35.57 83.86 32.88C83.86 32.88 78.09 38.65 72.7 38.65C67.31 38.65 69.24 39.8 72.32 39.8C72.32 39.8 70.01 42.11 78.09 40.57C78.09 40.57 73.47 43.26 71.55 44.03C69.63 44.8 73.47 44.8 73.47 44.8C73.47 44.8 68.85 45.95 68.47 46.34C68.09 46.72 73.09 46.72 77.71 45.19C77.71 45.19 75.4 48.27 70.4 49.04C65.4 49.81 64.24 49.81 64.63 50.19C65.01 50.57 71.56 50.19 71.56 50.19C71.56 50.19 68.48 50.96 68.48 51.34C68.48 51.72 74.25 51.34 76.95 50.19C76.95 50.19 72.72 54.81 68.87 55.96C65.02 57.11 66.95 57.5 70.02 57.11C70.02 57.11 68.87 58.26 75.79 57.11C75.79 57.11 70.79 59.03 69.63 59.42C68.48 59.8 71.17 60.57 74.63 59.42C74.63 59.42 68.47 63.27 66.16 63.65C63.85 64.03 64.62 65.19 68.08 64.42C68.08 64.42 66 65.96 66.54 65.96C69.23 65.96 71.54 65.58 74.62 63.65C74.62 63.65 71.54 66.73 68.85 67.88C66.16 69.03 71.54 68.65 71.54 68.65C71.54 68.65 69.23 70.19 66.54 70.96C63.85 71.73 66.16 72.11 66.16 72.11C66.16 72.11 64.24 72.88 62.7 73.26C61.16 73.64 68.86 74.03 74.63 72.11C74.63 72.11 69.22 75.32 67.7 75.57C65.39 75.95 68.47 77.11 74.63 74.8C74.63 74.8 72.32 76.72 74.63 76.72C74.63 76.72 71.17 79.8 67.32 80.57C63.47 81.34 62.7 81.72 64.63 82.11C64.63 82.11 63.09 82.88 60.4 83.26C57.71 83.64 59.25 85.18 68.1 83.64C68.1 83.64 65.79 84.79 64.64 85.56C63.49 86.33 74.26 84.41 74.26 84.41C74.26 84.41 67.72 90.57 63.48 92.88C61.91 93.74 60.64 94.36 59.84 94.79C57.35 94.15 54.43 93.13 51.31 91.51C51.31 91.51 55.16 93.05 59.39 93.05C63.62 93.05 62.08 93.05 56.7 88.82C56.7 88.82 59.39 89.97 60.16 89.2C60.16 89.2 62.08 89.2 62.85 88.43C63.62 87.66 57.46 89.2 51.31 84.2C51.31 84.2 55.93 84.97 57.47 84.58C59.01 84.2 52.08 83.43 50.16 80.73C50.16 80.73 57.38 84.07 61.32 81.88C64.78 79.96 59.78 81.88 55.55 79.57C55.55 79.57 56.32 78.42 51.7 76.88C51.7 76.88 59.78 78.03 60.94 77.65C62.09 77.27 54.78 76.5 51.32 72.26C51.32 72.26 56.32 74.57 57.09 74.18C57.86 73.8 52.09 71.49 49.01 64.56C49.01 64.56 54.4 67.25 55.17 67.25C55.94 67.25 50.94 63.79 50.17 63.02C50.17 63.02 57.87 66.1 58.64 65.71C59.41 65.33 49.02 60.71 47.86 57.63C47.86 57.63 53.25 59.17 54.02 59.17C54.79 59.17 52.1 57.25 52.1 57.25C52.1 57.25 55.18 57.25 55.95 56.86C56.72 56.48 47.87 54.94 46.33 51.09C46.33 51.09 51.72 54.17 52.87 53.78C54.02 53.4 48.64 51.47 45.94 46.08C45.94 46.08 48.25 47.62 48.63 47.62C49.01 47.62 45.55 42.62 45.55 42.62C45.55 42.62 46.32 43 46.32 41.85C46.32 40.7 44.01 37.62 44.01 37.62C44.01 37.62 47.86 41.85 48.63 41.47C49.4 41.09 44.78 37.24 43.63 33.77C43.63 33.77 46.32 37.62 47.09 37.23C47.86 36.85 45.94 36.08 44.01 31.46C44.01 31.46 45.16 31.46 44.78 30.69C44.4 29.92 43.24 28 42.28 25.49C41.97 24.69 39.97 30.88 38.82 32.8C37.67 34.72 37.28 35.11 39.2 33.95C39.2 33.95 38.82 37.41 35.35 42.03C32.97 45.2 31.89 45.49 35.35 44.72C35.35 44.72 34.2 46.64 34.58 47.03C34.96 47.42 37.66 45.49 37.66 45.49C37.66 45.49 36.51 49.72 33.04 52.42C29.58 55.11 32.27 54.34 32.27 54.34L30.43 56.54C30.4 56.57 30.43 56.62 30.47 56.61C31.14 56.43 34.33 55.44 38.42 52.03C38.42 52.03 34.76 56.84 28.99 58.76C23.22 60.68 31.3 59.53 31.3 59.53C31.3 59.53 30.53 60.68 31.3 60.68C32.07 60.68 35.15 60.68 39.38 57.99C39.38 57.99 33.61 63.76 28.22 63.76C22.83 63.76 24.76 64.91 27.84 64.91C27.84 64.91 25.53 67.22 33.61 65.68C33.61 65.68 28.99 68.37 27.07 69.14C25.15 69.91 28.99 69.91 28.99 69.91C28.99 69.91 24.37 71.06 23.99 71.45C23.61 71.83 28.61 71.83 33.23 70.3C33.23 70.3 30.92 73.38 25.92 74.15C20.92 74.92 19.76 74.92 20.15 75.3C20.53 75.68 27.08 75.3 27.08 75.3C27.08 75.3 24 76.07 24 76.45C24 76.83 29.77 76.45 32.47 75.3C32.47 75.3 28.24 79.92 24.39 81.07C20.54 82.22 22.47 82.61 25.54 82.22C25.54 82.22 24.39 83.37 31.31 82.22C31.31 82.22 26.31 84.14 25.15 84.53C24 84.91 26.69 85.68 30.15 84.53C30.15 84.53 23.99 88.38 21.68 88.76C19.37 89.14 20.14 90.3 23.6 89.53C23.6 89.53 21.52 91.07 22.06 91.07C24.75 91.07 27.06 90.69 30.14 88.76C30.14 88.76 27.06 91.84 24.37 92.99C21.68 94.14 27.06 93.76 27.06 93.76C27.06 93.76 24.75 95.3 22.06 96.07C19.37 96.84 21.68 97.22 21.68 97.22C21.68 97.22 19.76 97.99 18.22 98.37C16.68 98.75 24.38 99.14 30.15 97.22C30.15 97.22 24.74 100.43 23.22 100.68C20.91 101.06 23.99 102.22 30.15 99.91C30.15 99.91 27.84 101.83 30.15 101.83C30.15 101.83 29.42 102.47 28.27 103.24C17.36 100.12 0.0899963 104.39 0.0899963 104.39L0.259996 230.58H677.12V104.93C677.06 104.93 637.24 99.66 624.5 100.13ZM63.43 94.98C63.43 94.98 62.9 95.19 62.16 95.5C61.9 95.45 61.63 95.39 61.35 95.33C61.94 95.23 62.62 95.12 63.43 94.98ZM57.78 97.54C57.74 97.57 57.72 97.59 57.7 97.62C57.61 97.56 57.52 97.52 57.42 97.46C57.41 97.45 57.55 97.48 57.78 97.54ZM63.05 101.9C61.51 103.05 63.05 103.82 63.05 103.82C63.05 103.82 62.14 104.64 60.85 105.61C59.21 105.23 57.71 104.81 56.41 104.34C55.84 104.13 55.3 103.96 54.77 103.81C54.23 103.15 53.69 102.45 53.18 101.68C53.18 101.68 55.49 102.83 56.64 102.45C57.79 102.07 53.18 100.53 51.25 96.68C51.25 96.68 55.1 99.76 59.33 100.91C61.08 101.39 62.49 101.53 63.55 101.52C63.36 101.67 63.18 101.8 63.05 101.9ZM64.81 100.58C63.6 100.32 61.34 99.72 57.94 97.76C58.14 97.78 58.44 97.78 58.82 97.77C59.88 97.98 61.33 98.23 62.42 98.23C63.87 98.23 64.23 97.57 64.32 97.25C66.5 96.96 68.85 96.58 70.75 96.14C70.74 96.13 67.19 98.79 64.81 100.58ZM149.15 79.89C149.24 79.98 149.76 80.01 150.44 80.02C151.11 80.22 151.66 80.33 151.88 80.22C151.97 80.17 151.97 80.1 151.89 80C153.15 79.96 154.37 79.89 154.37 79.89C154.37 79.89 152.05 80.47 152.05 80.76C152.05 81.05 156.4 80.76 158.43 79.89C158.43 79.89 156.71 81.76 154.65 83.1C152.61 82.46 148.46 81.18 146.1 78.3C146.1 78.3 147.79 79.08 149.36 79.66C149.1 79.72 149.05 79.78 149.15 79.89ZM146.11 102.54C146.11 102.54 147.06 103.3 148.54 104.21C148.27 104.31 147.91 104.42 147.47 104.53C146.96 103.94 146.48 103.28 146.11 102.54ZM152.86 106.34C151.93 106.54 151.02 106.71 150.14 106.85C150.06 106.79 149.98 106.73 149.9 106.67C150.61 106.61 151.68 106.46 152.76 106.3C152.79 106.31 152.82 106.32 152.86 106.34ZM150.52 105.31C150.66 105.38 150.81 105.46 150.96 105.53C150.5 105.77 149.93 106.08 149.48 106.36C149.16 106.12 148.83 105.85 148.5 105.55C149.09 105.5 149.76 105.42 150.52 105.31ZM146.11 97.53C146.11 97.53 148.63 98.54 151.83 98.92C151.69 98.97 151.57 99 151.47 99.02C150 99.26 151.43 99.92 154.71 99.07C155.35 99.07 155.82 99.06 156.13 99.03C155.83 99.43 155.71 99.89 156.69 99.89C156.69 99.89 156.13 100.38 155.26 100.97C152.64 100.34 149.49 99.29 146.11 97.53ZM149.39 90.63C149.59 90.8 150.23 90.89 151.28 90.71C151.41 90.71 151.54 90.7 151.66 90.69C151.32 90.95 150.26 91.77 150.6 91.77C152.63 91.77 154.37 91.48 156.69 90.03C156.69 90.03 154.37 92.35 152.34 93.22C152.21 93.27 152.11 93.33 152.03 93.37C150.23 92.83 148.17 91.89 146.11 90.22C146.11 90.22 147.74 90.49 149.39 90.63ZM146.49 82.91C146.49 82.91 150.83 83.53 153.6 83.71C153.18 83.93 152.76 84.11 152.34 84.24C149.44 85.11 150.89 85.4 153.21 85.11C153.21 85.11 152.34 85.98 157.56 85.11C157.56 85.11 154.79 86.17 153.45 86.66C152.46 86.48 151.37 86.17 150.34 85.61C150.34 85.6 151.11 84.45 146.49 82.91ZM156.51 98.61C156.49 98.59 156.47 98.56 156.44 98.53C156.53 98.5 156.61 98.47 156.69 98.44C156.69 98.44 156.62 98.51 156.51 98.61ZM154.95 97.41C154.78 97.29 154.59 97.15 154.39 97.01C155.17 96.86 155.95 96.66 156.69 96.42C156.69 96.41 155.92 96.87 154.95 97.41ZM151.5 94.84C151.5 94.84 151.71 94.93 152.02 95.04C151.96 95.06 151.9 95.09 151.85 95.11C151.73 95.02 151.62 94.93 151.5 94.84ZM153.92 93.83C154.19 93.82 154.38 93.8 154.38 93.8C154.38 93.8 154.33 93.83 154.25 93.88C154.14 93.87 154.03 93.85 153.92 93.83ZM156.46 86.91C156.54 86.89 156.61 86.87 156.69 86.84C156.69 86.84 156.64 86.87 156.57 86.91C156.54 86.92 156.5 86.92 156.46 86.91ZM153.63 88.62C152.68 89.13 151.69 89.61 150.93 89.87C149.08 89.31 146.11 88.38 144.96 86.76C144.96 86.76 149.73 88.97 153.63 88.62ZM183.85 107.8C183.38 107.67 182.91 107.53 182.45 107.39C183.15 107.49 183.82 107.54 184.24 107.43C184.65 107.33 184.09 107.19 183.01 106.76C184.06 106.59 185.1 106.4 186 106.19C186 106.19 185.02 106.93 183.85 107.8ZM180.24 105.42C180.21 105.41 180.19 105.39 180.16 105.38C180.27 105.36 180.37 105.34 180.48 105.32C180.49 105.32 180.39 105.36 180.24 105.42ZM179.12 97.42C180.2 97.43 181.79 97.3 183.97 96.92C183.97 96.92 182.24 97.79 181.37 98.37C180.75 98.15 180 97.85 179.12 97.42ZM178.2 96.62C178.19 96.62 178.18 96.62 178.17 96.63C178.02 96.65 177.9 96.68 177.78 96.71C177.62 96.62 177.45 96.52 177.28 96.42C177.28 96.41 177.66 96.51 178.2 96.62ZM178.73 99.02C181.92 99.89 183.66 99.31 183.66 99.02C183.66 98.86 183.05 98.87 181.79 98.49C183.43 98.41 188.61 97.49 188.61 97.49C188.61 97.49 183.68 102.13 180.49 103.87C179.95 104.16 179.46 104.42 179.03 104.64C177.4 103.51 175.64 101.91 174.09 99.59C174.09 99.59 175.83 100.46 176.7 100.17C177.57 99.88 174.09 98.72 172.64 95.82C172.64 95.83 175.54 98.15 178.73 99.02ZM144.96 69.06C144.96 69.06 150.98 71.47 152.9 71.76C153.26 71.93 154.03 72.06 154.96 72.06C154.96 72.06 153.22 73.8 159.31 72.64C159.31 72.64 155.83 74.67 154.38 75.25C152.93 75.83 155.83 75.83 155.83 75.83C155.83 75.83 152.35 76.7 152.06 76.99C151.77 77.28 155.54 77.28 159.02 76.12C159.02 76.12 157.28 78.44 153.51 79.02C152.55 79.17 151.78 79.28 151.17 79.36C149.59 78.15 146.01 75.55 143.81 70.6C143.81 70.6 149.2 73.29 149.97 73.29C150.73 73.29 145.73 69.83 144.96 69.06ZM305.49 84.75C305.8 84.79 306.14 84.83 306.51 84.88C306.35 84.98 306.11 85.12 305.82 85.27C305.4 85.05 304.85 84.82 304.09 84.56C304.09 84.56 304.14 84.57 304.23 84.58C304.36 84.71 304.92 84.75 305.49 84.75ZM304.85 88.18C305.39 88.35 306 88.52 306.64 88.65C306.29 88.84 305.94 89.02 305.6 89.19C304.97 88.94 304.33 88.65 303.81 88.29C304.15 88.26 304.5 88.23 304.85 88.18ZM308.38 90.11C308.18 90.03 307.87 89.94 307.49 89.82C307.98 89.68 308.51 89.51 309.07 89.3C309.07 89.3 308.57 89.72 308.38 90.11ZM303.8 99.35C303.8 99.35 304.15 99.62 304.72 100.02C304.61 100.11 304.49 100.2 304.38 100.29C304.16 99.99 303.97 99.68 303.8 99.35ZM306.59 96.86C307.14 96.77 307.65 96.68 308.03 96.62C308.21 96.64 308.39 96.66 308.58 96.68C308.42 96.83 308.17 97.06 307.86 97.34C307.45 97.19 307.02 97.03 306.59 96.86ZM304.16 90.34C304.46 90.35 304.84 90.33 305.29 90.28C306.32 90.4 307.62 90.51 308.31 90.38C308.32 90.58 308.51 90.73 309.07 90.73C309.07 90.73 308.33 91.38 307.21 92.08C306.25 91.7 305.21 91.13 304.16 90.34ZM308.99 87.31C309.02 87.3 309.05 87.29 309.07 87.28C309.07 87.28 309.05 87.29 309.01 87.31C309.01 87.32 309 87.32 308.99 87.31ZM305.34 82.5C305.72 82.43 306.11 82.33 306.5 82.2C306.81 82.31 307.11 82.4 307.37 82.47C307.07 82.71 306.75 82.95 306.42 83.18C306.06 82.97 305.69 82.74 305.34 82.5ZM307.85 82.07C307.75 81.99 307.64 81.9 307.51 81.8C308.01 81.58 308.52 81.3 309.08 80.96C309.07 80.96 308.58 81.46 307.85 82.07ZM305.57 76.18C305.53 76.15 305.49 76.12 305.46 76.09C305.52 76.08 305.57 76.08 305.63 76.07C305.63 76.08 305.58 76.13 305.57 76.18ZM309.94 76.08C309.94 76.08 308.1 76.79 306.7 77.31C306.92 77.31 306.49 76.92 305.85 76.41C306.29 76.51 307.37 76.51 309.94 76.08ZM304.76 75.22C304.64 75.26 304.54 75.29 304.44 75.32C303.76 74.8 303.13 74.33 302.93 74.12C302.93 74.12 304.02 74.56 305.3 75.03C305.12 75.1 304.94 75.16 304.76 75.22ZM303.23 75.85C303.02 76.05 303.32 76.16 303.92 76.18C305.07 76.72 306.38 77.31 306.7 77.31C306.11 77.53 305.6 77.72 305.34 77.8C304.48 78.09 306.49 78.66 309.08 77.8C309.08 77.8 307.15 79.01 305.32 79.94C304.2 78.84 302.98 77.33 302.07 75.28C302.06 75.28 302.56 75.53 303.23 75.85ZM306.62 74.36C304.92 73.37 302.86 72.11 301.8 70.97C302.29 71.06 303.55 71.04 304.69 71C305.12 71.1 305.47 71.18 305.68 71.21C305.08 71.39 304.46 71.62 304.46 71.77C304.46 72.06 308.77 71.77 310.78 70.91C310.8 70.91 308.85 73.03 306.62 74.36ZM306.77 70.91C306.77 70.91 306.38 71.01 305.92 71.14C305.91 71.09 305.87 71.03 305.81 70.96C306.38 70.93 306.77 70.91 306.77 70.91ZM302.77 70.5C302.08 70.6 301.73 70.67 301.6 70.74C301.41 70.5 301.26 70.27 301.18 70.06C301.19 70.06 301.9 70.26 302.77 70.5ZM284.95 117.9C284.95 117.9 284.61 118.16 284.09 118.55C283.46 118.53 282.83 118.49 282.21 118.43C283.17 118.27 284.12 118.1 284.95 117.9ZM422.27 107.98C422.03 107.32 421.82 106.66 421.65 106C421.65 106 422.56 106.61 423.17 106.61C423.42 106.61 422.9 106 422.07 104.89C424.41 104.52 426.65 104.12 426.65 104.12C426.65 104.12 424.73 105.93 422.27 107.98ZM427.05 94.34C427.05 94.34 424.7 96.29 427.05 96.29C427.05 96.29 423.53 99.42 419.62 100.2C419.44 100.24 419.28 100.27 419.11 100.3C418.6 99.35 418.12 98.31 417.71 97.19C417.71 97.19 419.83 99.31 420.44 99.31C420.84 99.31 419.15 96.18 417.59 93.08C420.11 93.03 423.86 92.66 427.04 91.6C427.04 91.6 421.55 94.86 420 95.12C417.67 95.51 420.79 96.69 427.05 94.34ZM535.14 76.77C535.14 76.77 537.64 78.77 540.84 80.17C540.26 80.51 539.67 80.82 539.08 81.05C537.81 80.12 536.12 78.74 535.14 76.77ZM543.35 73.25C543.43 73.25 543.51 73.25 543.59 73.25C542.83 73.61 541.95 73.93 540.95 74.16C539.14 73.55 537.19 72.74 535.14 71.68C535.14 71.69 539.05 73.25 543.35 73.25ZM540.61 68.95C540.61 68.95 540.93 69.09 541.38 69.24C541.29 69.28 541.2 69.32 541.12 69.35C540.95 69.22 540.78 69.09 540.61 68.95ZM542.11 70.1C542.6 70.13 543.02 70.13 543.02 70.13C543.02 70.13 542.76 70.19 542.37 70.3C542.28 70.23 542.2 70.17 542.11 70.1ZM543.79 78.05C543.59 78.22 543.39 78.38 543.17 78.55C542.61 78.26 542.02 77.93 541.39 77.55C541.39 77.55 542.49 77.83 543.79 78.05ZM541.11 86.55C540.69 86.16 540.27 85.75 539.85 85.31C540.8 85.42 542.38 85.34 544.17 84.74C544.18 84.75 542.8 85.61 541.11 86.55ZM539.3 84.71C538.72 84.06 538.15 83.36 537.6 82.59C537.96 82.59 538.38 82.57 538.84 82.52C539.06 82.58 539.28 82.63 539.5 82.67C539.61 82.94 540.52 83.25 545.33 82.45C545.33 82.44 540.63 84.25 539.3 84.71ZM546.4 75.6C546.37 75.59 546.34 75.59 546.31 75.58C546.37 75.56 546.43 75.53 546.48 75.51C546.48 75.51 546.45 75.55 546.4 75.6ZM545.19 72.34C544.87 72.09 544.42 71.78 543.87 71.38C544.96 71.17 546.12 70.89 547.25 70.51C547.25 70.51 546.58 71.4 545.19 72.34ZM543.79 68.04C541.53 67.71 538.34 66.85 535.14 64.26C535.14 64.26 537.28 64.62 539.15 64.73C539.63 64.95 540.66 65.13 541.87 65.13C541.87 65.13 539.56 67.44 547.64 65.9C547.64 65.89 545.68 67.03 543.79 68.04ZM542.25 63.97C541.52 63.97 540.93 63.99 540.45 64.03C538.64 63.47 535.23 62.52 533.96 60.74C533.96 60.74 541.3 64.14 545.3 61.91C547.02 60.95 546.68 60.93 545.38 60.89C546.22 60.89 549.26 60.84 553.41 58.2C553.41 58.2 547.64 63.97 542.25 63.97ZM570.5 102.59C569.7 102.71 568.93 102.83 568.18 102.96C567.87 102.55 567.57 102.13 567.27 101.69C567.27 101.69 569.58 102.84 570.73 102.46C571.88 102.08 567.27 100.54 565.34 96.69C565.34 96.69 569.19 99.77 573.42 100.92C574.21 101.14 574.93 101.28 575.59 101.38C573.91 101.91 572.22 102.33 570.5 102.59Z" fill="url(#paint0_linear_1_15)"/>
<defs>
<linearGradient id="paint0_linear_1_15" x1="338.547" y1="118.399" x2="338.547" y2="208.65" gradientUnits="userSpaceOnUse">
<stop stop-color="#290B51"/>
<stop offset="1" stop-color="#340B75"/>
</linearGradient>
</defs>
</svg>
