<svg width="750" height="234" viewBox="0 0 750 234" fill="none" xmlns="http://www.w3.org/2000/svg">
<path d="M641.09 80.28C639.11 79.71 634.53 82.43 629.41 85.38C628.88 84.22 628.37 82.95 628.06 81.7C628.06 81.7 628.81 82.2 629.3 82.2C629.8 82.2 626.57 79.22 624.83 74.49C624.83 74.49 626.57 76.23 627.07 76.23C627.57 76.23 624.09 70.26 623.09 67.53C623.09 67.53 624.58 68.28 624.83 68.28C625.08 68.28 621.35 62.56 621.1 62.07C621.1 62.07 623.83 62.82 624.08 62.57C624.33 62.32 620.35 58.34 620.35 58.34C620.35 58.34 621.84 59.09 622.59 59.09C623.34 59.09 618.86 53.37 618.86 53.37C618.86 53.37 619.85 53.37 618.11 51.13C617.43 50.25 615.13 45.91 615.13 45.91C615.13 45.91 616.87 47.65 617.12 47.4C617.37 47.15 614.88 41.93 614.88 41.93C614.88 41.93 615.38 42.92 615.87 43.17C616.37 43.42 614.38 37.45 613.88 34.47C613.88 34.47 614.87 36.21 615.12 36.21C615.37 36.21 614.13 30.99 614.13 30.99C614.13 30.99 614.88 32.48 615.12 32.48C615.37 32.48 613.38 27.51 612.88 26.51C612.88 26.51 613.87 27.26 614.37 27.26C614.81 27.26 612.74 24.17 611.98 20.46C611.94 20.26 611.64 20.27 611.62 20.47C611.45 22.09 611.11 24.61 610.51 26.14C609.39 29 611.38 26.76 611.38 26.76C611.38 26.76 608.77 32.6 608.52 33.1C608.27 33.6 609.51 33.1 609.51 33.1L608.64 35.49C608.61 35.59 608.72 35.67 608.8 35.6L610.01 34.59C610.01 34.59 607.77 40.31 607.03 41.8C606.28 43.29 606.28 44.04 607.53 42.55C607.53 42.55 605.79 47.52 605.29 48.76C604.79 50 606.78 48.26 606.78 48.26C606.78 48.26 605.54 50.25 605.79 50.5C606.04 50.75 606.54 50.5 606.54 50.5C606.54 50.5 603.31 57.71 601.82 60.19C601.65 60.48 601.5 60.73 601.36 60.96C597.4 63.65 591.86 62.79 587.09 61.11C586.73 60.77 586.47 60.44 586.35 60.13C586.35 60.13 589.68 61.08 590.15 61.08C590.63 61.08 588.96 59.89 588.96 59.89C588.96 59.89 590.86 59.89 591.34 59.65C591.82 59.41 586.35 58.46 585.4 56.08C585.4 56.08 588.73 57.98 589.44 57.74C590.15 57.5 586.82 56.31 585.16 52.98C585.16 52.98 586.59 53.93 586.82 53.93C587.06 53.93 584.92 50.84 584.92 50.84C584.92 50.84 585.4 51.08 585.4 50.36C585.4 49.65 583.97 47.74 583.97 47.74C583.97 47.74 586.35 50.36 586.82 50.12C587.3 49.88 584.44 47.5 583.73 45.36C583.73 45.36 585.39 47.74 585.87 47.5C586.35 47.26 585.16 46.79 583.97 43.93C583.97 43.93 584.68 43.93 584.45 43.45C584.21 42.97 583.5 41.79 582.9 40.24C582.71 39.74 581.47 43.57 580.76 44.76C580.05 45.95 579.81 46.19 581 45.47C581 45.47 580.76 47.61 578.62 50.46C577.15 52.42 576.48 52.6 578.62 52.12C578.62 52.12 577.91 53.31 578.14 53.55C578.38 53.79 580.04 52.6 580.04 52.6C580.04 52.6 579.43 54.83 577.65 56.48C577.39 56.31 577.24 56.22 577.24 56.22C573.89 59.57 570.68 58.8 566.71 58.02C566.22 57.58 565.46 57.04 565.46 57.04C565.46 57.04 567.93 57.04 568.55 56.73C569.17 56.42 562.06 55.18 560.82 52.09C560.82 52.09 565.15 54.56 566.08 54.25C567.01 53.94 562.68 52.39 560.51 48.07C560.51 48.07 562.37 49.31 562.67 49.31C562.98 49.31 560.2 45.29 560.2 45.29C560.2 45.29 560.82 45.6 560.82 44.67C560.82 43.74 558.96 41.27 558.96 41.27C558.96 41.27 562.05 44.67 562.67 44.36C563.29 44.05 559.58 40.96 558.65 38.18C558.65 38.18 560.81 41.27 561.43 40.96C562.05 40.65 560.5 40.03 558.96 36.32C558.96 36.32 559.89 36.32 559.58 35.7C559.27 35.08 558.34 33.54 557.57 31.53C557.32 30.88 555.71 35.86 554.79 37.4C553.86 38.95 553.55 39.26 555.1 38.33C555.1 38.33 554.79 41.11 552.01 44.82C550.1 47.37 549.23 47.6 552.01 46.98C552.01 46.98 551.08 48.53 551.39 48.84C551.7 49.15 553.86 47.6 553.86 47.6C553.86 47.6 552.93 51 550.15 53.17C547.37 55.33 549.53 54.72 549.53 54.72L548.05 56.49C548.03 56.52 548.05 56.56 548.09 56.55C548.63 56.4 551.19 55.61 554.48 52.87C554.48 52.87 551.54 56.73 546.9 58.28C542.26 59.83 548.76 58.9 548.76 58.9C548.76 58.9 548.14 59.83 548.76 59.83C549.38 59.83 551.85 59.83 555.25 57.67C555.25 57.67 554.82 58.1 554.1 58.7C552.72 59.24 551.26 59.95 549.71 60.92C548.81 61.48 547.94 61.92 547.1 62.25C546.83 62.28 546.56 62.3 546.29 62.3C543.3 62.3 543.11 62.74 544.1 63.02C539.91 63.5 536.49 61.37 533.47 59.04C534.34 59.26 535.13 59.45 535.37 59.45C535.96 59.45 533.91 57.99 533.91 57.99C533.91 57.99 536.25 57.99 536.84 57.7C537.43 57.41 530.69 56.24 529.52 53.31C529.52 53.31 533.62 55.65 534.5 55.36C535.38 55.07 531.28 53.6 529.23 49.5C529.23 49.5 530.99 50.67 531.28 50.67C531.57 50.67 528.94 46.86 528.94 46.86C528.94 46.86 529.53 47.15 529.53 46.27C529.53 45.39 527.77 43.05 527.77 43.05C527.77 43.05 530.7 46.27 531.28 45.98C531.87 45.69 528.35 42.76 527.47 40.12C527.47 40.12 529.52 43.05 530.1 42.75C530.69 42.46 529.22 41.87 527.76 38.36C527.76 38.36 528.64 38.36 528.35 37.77C528.06 37.18 527.18 35.72 526.45 33.82C526.22 33.21 524.69 37.92 523.82 39.38C522.94 40.84 522.65 41.14 524.11 40.26C524.11 40.26 523.82 42.89 521.18 46.41C519.37 48.82 518.55 49.04 521.18 48.46C521.18 48.46 520.3 49.92 520.59 50.22C520.88 50.51 522.93 49.05 522.93 49.05C522.93 49.05 522.05 52.27 519.42 54.32C516.79 56.37 518.83 55.78 518.83 55.78L517.91 56.88C515.39 57.38 512.85 56.58 510.52 55.64C510 54.99 509.5 54.25 509.08 53.42C509.08 53.42 511.06 54.74 511.39 54.74C511.72 54.74 508.75 50.46 508.75 50.46C508.75 50.46 509.41 50.79 509.41 49.8C509.41 48.81 507.43 46.17 507.43 46.17C507.43 46.17 510.73 49.8 511.39 49.47C512.05 49.14 508.09 45.84 507.11 42.88C507.11 42.88 509.42 46.18 510.08 45.85C510.74 45.52 509.09 44.86 507.44 40.91C507.44 40.91 508.43 40.91 508.1 40.25C507.77 39.59 506.78 37.94 505.96 35.8C505.7 35.11 503.98 40.41 502.99 42.06C502 43.71 501.67 44.04 503.32 43.05C503.32 43.05 502.99 46.02 500.02 49.97C497.98 52.68 497.05 52.94 500.02 52.28C500.02 52.28 499.03 53.93 499.36 54.26C499.69 54.59 502 52.94 502 52.94C502 52.94 501.58 54.48 500.46 56.19C497.72 57.73 492.57 56.54 488.47 55.16C487.96 54.06 486.87 52.6 486.87 52.6C486.87 52.6 489.96 56 490.58 55.69C491.2 55.38 487.49 52.29 486.56 49.51C486.56 49.51 488.72 52.6 489.34 52.29C489.96 51.98 488.41 51.36 486.87 47.65C486.87 47.65 487.8 47.65 487.49 47.03C487.18 46.41 486.25 44.87 485.48 42.86C485.23 42.21 483.62 47.19 482.7 48.73C481.77 50.28 481.46 50.59 483.01 49.66C483.01 49.66 482.87 50.89 481.97 52.79L476.83 53.7C476.99 53.63 477.13 53.55 477.25 53.48C478.28 52.8 474.51 53.48 474.51 53.48C474.51 53.48 479.99 51.08 479.99 50.4C479.99 49.72 476.22 51.77 474.17 51.77C474.17 51.77 476.57 48.34 476.57 47.66C476.57 46.98 473.14 50.74 473.14 50.74V44.92C473.14 44.92 475.54 41.15 475.88 40.47C476.22 39.79 472.8 43.21 472.8 43.21C472.8 43.21 475.2 39.78 475.2 39.44C475.2 39.1 473.14 40.47 473.14 40.47C473.14 40.47 472.8 32.59 472.28 31.39C471.98 30.69 471.77 35.67 471.77 35.67C471.77 35.67 470.74 34.3 470.4 33.96C470.06 33.62 471.43 38.07 471.43 38.07C471.43 38.07 470.06 37.04 469.72 37.04C469.38 37.04 470.75 39.78 470.75 39.78V44.23C470.75 44.23 470.06 42.52 469.38 42.17C468.69 41.83 470.75 50.05 470.75 50.05C470.75 50.05 468.69 44.57 468.35 44.91C468.01 45.25 468.35 48.34 468.35 48.34C468.35 48.34 464.92 46.28 464.58 46.63C464.24 46.97 468.01 49.71 470.4 53.48C470.4 53.48 465.6 49.71 464.92 49.37C464.24 49.03 466.98 52.45 466.98 52.45C466.98 52.45 464.24 51.42 463.9 51.76C463.56 52.1 469.72 56.21 469.72 56.21C469.72 56.21 465.27 55.52 464.92 55.87C464.6 56.19 469 57.39 469.63 57.56L467.59 59.8C466.75 59.45 465.91 59.1 465.6 58.95C465.06 58.68 466.42 59.88 467.03 60.42L466.67 60.81C465.81 60.96 464.13 61.12 461.83 60.66C461.08 60.51 461.22 61.26 463.8 61.83L455.14 64.72C454.99 64.42 454.84 64.09 454.69 63.73C454.69 63.73 455.62 63.73 455.31 63.11C455 62.49 454.07 60.95 453.3 58.94C453.16 58.57 452.56 60.06 451.91 61.68L451.35 60.9L446.67 62.66L445.85 63.13C445.84 63.08 445.83 63.02 445.8 62.95C445.51 62.36 444.63 60.9 443.9 59C443.66 58.39 442.14 63.1 441.27 64.56C440.88 65.21 440.61 65.62 440.55 65.81L434.62 68.18C433.03 67.47 431.46 66.49 430.94 65.19C430.94 65.19 435.27 67.66 436.2 67.35C437.13 67.04 432.8 65.49 430.63 61.17C430.63 61.17 432.49 62.41 432.79 62.41C433.1 62.41 430.32 58.39 430.32 58.39C430.32 58.39 430.94 58.7 430.94 57.77C430.94 56.84 429.08 54.37 429.08 54.37C429.08 54.37 432.17 57.77 432.79 57.46C433.41 57.15 429.7 54.06 428.77 51.28C428.77 51.28 430.93 54.37 431.55 54.06C432.17 53.75 430.62 53.13 429.08 49.42C429.08 49.42 430.01 49.42 429.7 48.8C429.39 48.18 428.46 46.64 427.69 44.63C427.44 43.98 425.83 48.96 424.91 50.5C423.98 52.05 423.67 52.36 425.22 51.43C425.22 51.43 424.91 54.21 422.13 57.92C420.22 60.47 419.35 60.7 422.13 60.08C422.13 60.08 421.2 61.63 421.51 61.94C421.82 62.25 423.98 60.7 423.98 60.7C423.98 60.7 423.05 64.1 420.27 66.27C417.49 68.43 419.65 67.82 419.65 67.82L418.17 69.59C418.15 69.62 418.17 69.66 418.21 69.65C418.75 69.5 421.31 68.71 424.6 65.97C424.6 65.97 421.66 69.83 417.02 71.38C412.38 72.93 418.88 72 418.88 72C418.88 72 418.26 72.93 418.88 72.93C419.5 72.93 421.97 72.93 425.37 70.77C425.37 70.77 420.73 75.41 416.4 75.41C412.07 75.41 413.62 76.34 416.09 76.34C416.09 76.34 414.23 78.2 420.73 76.96C420.73 76.96 417.02 79.12 415.47 79.74C413.92 80.36 417.02 80.36 417.02 80.36C417.02 80.36 413.31 81.29 413 81.6C412.73 81.87 415.78 81.9 419.03 81.08C418.88 81.19 418.73 81.31 418.58 81.41C415.18 83.88 411.79 84.23 408.74 84.53C407.95 83.12 407.16 81.62 407.16 81.62C407.16 81.62 408.9 83.36 409.15 83.11C409.4 82.86 406.91 77.64 406.91 77.64C406.91 77.64 407.41 78.63 407.9 78.88C408.4 79.13 406.41 73.16 405.91 70.18C405.91 70.18 406.9 71.92 407.15 71.92C407.4 71.92 406.16 66.7 406.16 66.7C406.16 66.7 406.91 68.19 407.15 68.19C407.4 68.19 405.41 63.22 404.91 62.22C404.91 62.22 405.9 62.97 406.4 62.97C406.84 62.97 404.77 59.88 404.01 56.17C403.97 55.96 403.67 55.98 403.65 56.18C403.48 57.8 403.14 60.32 402.54 61.85C401.42 64.71 403.41 62.47 403.41 62.47C403.41 62.47 400.8 68.31 400.55 68.81C400.3 69.31 401.54 68.81 401.54 68.81L400.67 71.2C400.64 71.3 400.75 71.38 400.83 71.31L402.04 70.3C402.04 70.3 399.8 76.02 399.06 77.51C398.31 79 398.31 79.75 399.56 78.26C399.56 78.26 397.82 83.23 397.32 84.47C396.82 85.71 398.81 83.97 398.81 83.97C398.81 83.97 397.57 85.96 397.82 86.21C398.07 86.46 398.57 86.21 398.57 86.21C398.57 86.21 398.31 86.79 397.91 87.66C395.23 87.33 392.47 85.37 391.19 84.35C391.82 84.5 392.33 84.62 392.51 84.62C393.1 84.62 391.05 83.16 391.05 83.16C391.05 83.16 393.39 83.16 393.98 82.87C394.57 82.58 387.83 81.41 386.66 78.48C386.66 78.48 390.76 80.82 391.64 80.53C392.52 80.24 388.42 78.77 386.37 74.67C386.37 74.67 388.13 75.84 388.42 75.84C388.71 75.84 386.08 72.03 386.08 72.03C386.08 72.03 386.67 72.32 386.67 71.44C386.67 70.56 384.91 68.22 384.91 68.22C384.91 68.22 387.84 71.44 388.42 71.15C389.01 70.86 385.49 67.93 384.61 65.29C384.61 65.29 386.66 68.22 387.24 67.92C387.83 67.63 386.36 67.04 384.9 63.53C384.9 63.53 385.78 63.53 385.49 62.94C385.2 62.35 384.32 60.89 383.59 58.99C383.35 58.38 381.83 63.09 380.96 64.55C380.09 66.01 379.79 66.31 381.25 65.43C381.25 65.43 380.96 68.06 378.32 71.58C376.51 73.99 375.69 74.21 378.32 73.63C378.32 73.63 377.44 75.09 377.73 75.39C378.02 75.68 380.07 74.22 380.07 74.22C380.07 74.22 379.19 77.44 376.56 79.49C373.93 81.54 375.97 80.95 375.97 80.95L374.57 82.63C374.55 82.66 374.57 82.69 374.6 82.68C375.11 82.54 377.54 81.79 380.65 79.19C380.65 79.19 377.87 82.85 373.48 84.31C369.09 85.77 375.24 84.9 375.24 84.9C375.24 84.9 374.65 85.78 375.24 85.78C375.83 85.78 378.17 85.78 381.39 83.73C381.39 83.73 377 88.12 372.9 88.12C368.8 88.12 370.27 89 372.61 89C372.61 89 370.85 90.76 377 89.59C377 89.59 373.49 91.64 372.02 92.22C371.13 92.58 371.87 92.72 372.58 92.77C369.73 93.38 366.87 92.82 364.65 92.06C363.73 90.99 362.07 89.34 362.07 89.34C362.07 89.34 363.34 89.97 363.97 89.97C364.6 89.97 360.8 85.11 360.8 85.11C360.8 85.11 361.65 85.11 360.17 83.21C359.59 82.46 357.63 78.77 357.63 78.77C357.63 78.77 359.11 80.25 359.32 80.04C359.53 79.83 357.42 75.39 357.42 75.39C357.42 75.39 357.84 76.24 358.27 76.45C358.69 76.66 357 71.59 356.58 69.05C356.58 69.05 357.43 70.53 357.64 70.53C357.85 70.53 356.79 66.09 356.79 66.09C356.79 66.09 357.42 67.36 357.64 67.36C357.85 67.36 356.16 63.13 355.74 62.28C355.74 62.28 356.59 62.91 357.01 62.91C357.38 62.91 355.62 60.28 354.98 57.12C354.94 56.95 354.69 56.95 354.68 57.13C354.54 58.51 354.25 60.66 353.74 61.95C352.79 64.38 354.48 62.48 354.48 62.48C354.48 62.48 352.26 67.45 352.05 67.87C351.84 68.29 352.9 67.87 352.9 67.87L352.16 69.9C352.13 69.98 352.23 70.05 352.29 69.99L353.32 69.13C353.32 69.13 351.42 73.99 350.78 75.26C350.15 76.53 350.15 77.16 351.2 75.89C351.2 75.89 349.72 80.12 349.3 81.18C348.88 82.24 350.57 80.76 350.57 80.76C350.57 80.76 349.51 82.45 349.72 82.66C349.93 82.87 350.35 82.66 350.35 82.66C350.35 82.66 347.6 88.79 346.33 90.91C345.06 93.02 344.85 93.24 346.33 92.81C346.33 92.81 345.38 95.67 344.96 96.3C344.54 96.93 346.12 95.77 346.12 95.77C346.12 95.77 344.85 99.37 343.79 101.06C342.73 102.75 340.93 103.92 343.47 103.07C343.47 103.07 343.3 103.85 342.92 104.76L332.63 88.47C331.99 86.99 331.21 85.36 331.21 85.36C331.21 85.36 331.71 86.35 332.2 86.6C332.7 86.85 330.71 80.88 330.21 77.9C330.21 77.9 331.2 79.64 331.45 79.64C331.7 79.64 330.46 74.42 330.46 74.42C330.46 74.42 331.21 75.91 331.45 75.91C331.7 75.91 329.71 70.94 329.21 69.94C329.21 69.94 330.2 70.69 330.7 70.69C331.14 70.69 329.07 67.6 328.31 63.89C328.27 63.69 327.97 63.7 327.95 63.9C327.78 65.52 327.44 68.04 326.84 69.57C325.72 72.43 327.71 70.19 327.71 70.19C327.71 70.19 325.1 76.03 324.85 76.53C324.6 77.03 325.84 76.53 325.84 76.53L324.97 78.92C324.94 79.02 325.05 79.1 325.13 79.03L326.34 78.02C326.34 78.02 324.1 83.74 323.36 85.23C322.61 86.72 322.61 87.47 323.86 85.98C323.86 85.98 323.56 86.85 323.17 87.94C317.14 88.85 312.55 86.73 308.94 83.56C308.36 82.75 307.81 81.83 307.33 80.76C307.33 80.76 311.66 82.92 312.28 82.92C312.9 82.92 308.88 80.14 308.26 79.52C308.26 79.52 314.44 81.99 315.06 81.68C315.68 81.37 307.33 77.66 306.4 75.19C306.4 75.19 310.73 76.43 311.35 76.43C311.97 76.43 309.8 74.88 309.8 74.88C309.8 74.88 312.27 74.88 312.89 74.57C313.51 74.26 306.4 73.02 305.16 69.93C305.16 69.93 309.49 72.4 310.42 72.09C311.35 71.78 307.02 70.23 304.85 65.91C304.85 65.91 306.71 67.15 307.01 67.15C307.32 67.15 304.54 63.13 304.54 63.13C304.54 63.13 305.16 63.44 305.16 62.51C305.16 61.58 303.31 59.11 303.31 59.11C303.31 59.11 306.4 62.51 307.02 62.2C307.64 61.89 303.93 58.8 303 56.02C303 56.02 305.16 59.11 305.78 58.8C306.4 58.49 304.85 57.87 303.31 54.16C303.31 54.16 304.24 54.16 303.93 53.54C303.62 52.92 302.69 51.38 301.92 49.37C301.67 48.72 300.06 53.7 299.14 55.24C298.21 56.79 297.9 57.1 299.45 56.17C299.45 56.17 299.14 58.95 296.36 62.66C294.45 65.21 293.58 65.44 296.36 64.82C296.36 64.82 295.43 66.37 295.74 66.68C296.05 66.99 298.21 65.44 298.21 65.44C298.21 65.44 297.85 66.76 296.9 68.28C296.65 68.1 296.41 67.97 296.17 67.88C293.63 67.03 291.35 67.55 288.83 68.24C288.01 67.39 287.2 66.35 286.57 65.08C286.57 65.08 288.55 66.4 288.88 66.4C289.21 66.4 286.24 62.12 286.24 62.12C286.24 62.12 286.9 62.45 286.9 61.46C286.9 60.47 284.92 57.83 284.92 57.83C284.92 57.83 288.22 61.46 288.87 61.13C289.53 60.8 285.57 57.5 284.59 54.54C284.59 54.54 286.9 57.84 287.56 57.51C288.22 57.18 286.57 56.52 284.92 52.57C284.92 52.57 285.91 52.57 285.58 51.91C285.25 51.25 284.26 49.6 283.44 47.46C283.18 46.77 281.46 52.07 280.47 53.72C279.48 55.37 279.15 55.7 280.8 54.71C280.8 54.71 280.47 57.68 277.5 61.63C275.46 64.34 274.53 64.6 277.5 63.94C277.5 63.94 276.51 65.59 276.84 65.92C277.17 66.25 279.48 64.6 279.48 64.6C279.48 64.6 278.73 67.33 276.59 69.56C276.12 69.56 275.66 69.58 275.2 69.61C274.12 69.11 268.69 67.82 267.63 65.16C267.63 65.16 271.96 67.63 272.89 67.32C273.82 67.01 269.49 65.46 267.32 61.14C267.32 61.14 269.18 62.38 269.48 62.38C269.79 62.38 267.01 58.36 267.01 58.36C267.01 58.36 267.63 58.67 267.63 57.74C267.63 56.81 265.77 54.34 265.77 54.34C265.77 54.34 268.86 57.74 269.48 57.43C270.1 57.12 266.39 54.03 265.46 51.25C265.46 51.25 267.62 54.34 268.24 54.03C268.86 53.72 267.31 53.1 265.77 49.39C265.77 49.39 266.7 49.39 266.39 48.77C266.08 48.15 265.15 46.61 264.38 44.6C264.13 43.95 262.52 48.93 261.6 50.47C260.67 52.02 260.36 52.33 261.91 51.4C261.91 51.4 261.6 54.18 258.82 57.89C256.91 60.44 256.04 60.67 258.82 60.05C258.82 60.05 257.89 61.6 258.2 61.91C258.51 62.22 260.67 60.67 260.67 60.67C260.67 60.67 259.74 64.07 256.96 66.24C254.18 68.4 256.34 67.79 256.34 67.79L254.86 69.56C254.84 69.59 254.86 69.63 254.9 69.62C255.44 69.47 258 68.68 261.29 65.94C261.29 65.94 258.35 69.8 253.72 71.35C249.08 72.9 255.58 71.97 255.58 71.97C255.58 71.97 254.96 72.9 255.58 72.9C256.2 72.9 258.67 72.9 262.07 70.74C262.07 70.74 257.43 75.38 253.1 75.38C248.77 75.38 250.32 76.31 252.79 76.31C252.79 76.31 252.76 76.34 252.73 76.38C249.68 76.47 246.74 75.12 244.3 73.46C243.57 72.31 242.58 70.89 242.58 70.89C242.58 70.89 243.2 71.2 243.2 70.27C243.2 69.34 241.35 66.87 241.35 66.87C241.35 66.87 244.44 70.27 245.06 69.96C245.68 69.65 241.97 66.56 241.04 63.78C241.04 63.78 243.2 66.87 243.82 66.56C244.44 66.25 242.89 65.63 241.35 61.92C241.35 61.92 242.28 61.92 241.97 61.3C241.66 60.68 240.73 59.14 239.96 57.13C239.71 56.48 238.1 61.46 237.18 63C236.25 64.55 235.94 64.86 237.49 63.93C237.49 63.93 237.34 65.21 236.39 67.19C234.47 66.44 231.26 65.2 227.82 63.96C227.56 63.66 227.36 63.38 227.26 63.1C227.26 63.1 231.51 64.32 232.12 64.32C232.73 64.32 230.6 62.8 230.6 62.8C230.6 62.8 233.03 62.8 233.64 62.5C234.25 62.2 227.26 60.98 226.04 57.94C226.04 57.94 230.29 60.37 231.2 60.07C232.11 59.77 227.86 58.25 225.73 53.99C225.73 53.99 227.55 55.21 227.86 55.21C228.16 55.21 225.43 51.26 225.43 51.26C225.43 51.26 226.04 51.56 226.04 50.65C226.04 49.74 224.22 47.31 224.22 47.31C224.22 47.31 227.26 50.65 227.87 50.35C228.48 50.05 224.83 47.01 223.92 44.27C223.92 44.27 226.05 47.31 226.65 47C227.26 46.7 225.74 46.09 224.22 42.44C224.22 42.44 225.13 42.44 224.83 41.83C224.53 41.22 223.61 39.7 222.86 37.73C222.62 37.1 221.04 41.98 220.13 43.5C219.22 45.02 218.91 45.32 220.43 44.41C220.43 44.41 220.13 47.14 217.39 50.79C215.51 53.29 214.66 53.52 217.39 52.92C217.39 52.92 216.48 54.44 216.78 54.74C217.08 55.04 219.21 53.52 219.21 53.52C219.21 53.52 218.3 56.86 215.56 58.99C215.4 59.11 215.26 59.23 215.13 59.33C213.19 58.87 210.66 58.05 208.29 56.41C208.29 56.41 212.31 55.96 214.09 54.62C215.88 53.28 210.97 54.17 210.97 54.17C210.97 54.17 215.43 51.94 215.88 51.05C216.33 50.16 210.97 52.84 207.4 53.28L206.95 47.03C206.95 47.03 211.41 46.14 212.75 45.24C214.09 44.35 209.18 45.24 209.18 45.24C209.18 45.24 216.32 42.12 216.32 41.22C216.32 40.33 211.41 43.01 208.73 43.01C208.73 43.01 211.85 38.55 211.85 37.65C211.85 36.76 207.39 41.67 207.39 41.67V34.08C207.39 34.08 210.51 29.17 210.96 28.28C211.41 27.39 206.94 31.85 206.94 31.85C206.94 31.85 210.06 27.39 210.06 26.94C210.06 26.49 207.38 28.28 207.38 28.28C207.38 28.28 206.93 18.02 206.26 16.45C205.87 15.53 205.59 22.03 205.59 22.03C205.59 22.03 204.25 20.24 203.8 19.8C203.35 19.35 205.14 25.16 205.14 25.16C205.14 25.16 203.35 23.82 202.91 23.82C202.46 23.82 204.25 27.39 204.25 27.39V33.19C204.25 33.19 203.36 30.96 202.46 30.51C201.57 30.06 204.25 40.77 204.25 40.77C204.25 40.77 201.57 33.63 201.13 34.08C200.68 34.53 201.13 38.54 201.13 38.54C201.13 38.54 196.67 35.86 196.22 36.31C195.77 36.76 200.68 40.33 203.81 45.24C203.81 45.24 197.56 40.33 196.67 39.88C195.78 39.43 199.35 43.9 199.35 43.9C199.35 43.9 195.78 42.56 195.33 43.01C194.88 43.46 202.92 48.81 202.92 48.81C202.92 48.81 197.12 47.92 196.67 48.36C196.22 48.81 202.92 50.59 202.92 50.59V54.61C202.92 54.61 198.46 52.82 197.56 52.38C196.67 51.93 199.79 54.61 199.79 54.61C199.79 54.61 197.11 55.5 192.65 54.61C191.27 54.33 192.2 56.4 201.13 56.84C201.13 56.84 200.24 58.18 196.67 59.07C193.1 59.96 193.99 60.86 193.99 60.86C193.99 60.86 189.97 62.2 188.19 62.2C186.4 62.2 186.85 63.54 198.45 62.2C198.45 62.2 195.33 63.54 191.76 63.99C188.19 64.44 192.21 65.33 198.01 64.44C198.01 64.44 197.12 66.23 194.44 66.67C191.79 67.11 192.21 67.99 197.86 67.57C194.49 69.19 190.58 69.18 186.55 68.84C185.27 67.7 183.7 66 182.59 63.5C182.59 63.5 186.69 65.55 187.27 65.55C187.86 65.55 184.05 62.92 183.46 62.33C183.46 62.33 189.32 64.67 189.9 64.38C190.49 64.09 182.58 60.57 181.7 58.23C181.7 58.23 185.8 59.4 186.38 59.4C186.97 59.4 184.92 57.94 184.92 57.94C184.92 57.94 187.26 57.94 187.85 57.65C188.44 57.36 181.7 56.19 180.53 53.26C180.53 53.26 184.63 55.6 185.51 55.31C186.39 55.02 182.29 53.55 180.24 49.45C180.24 49.45 182 50.62 182.29 50.62C182.58 50.62 179.95 46.81 179.95 46.81C179.95 46.81 180.54 47.1 180.54 46.22C180.54 45.34 178.78 43 178.78 43C178.78 43 181.71 46.22 182.29 45.93C182.88 45.64 179.36 42.71 178.48 40.07C178.48 40.07 180.53 43 181.11 42.7C181.7 42.41 180.23 41.82 178.77 38.31C178.77 38.31 179.65 38.31 179.36 37.72C179.07 37.13 178.19 35.67 177.46 33.77C177.22 33.16 175.7 37.87 174.83 39.33C173.95 40.79 173.66 41.09 175.12 40.21C175.12 40.21 174.83 42.84 172.19 46.36C170.38 48.77 169.56 48.99 172.19 48.41C172.19 48.41 171.31 49.87 171.6 50.17C171.89 50.46 173.94 49 173.94 49C173.94 49 173.06 52.22 170.43 54.27C167.8 56.32 169.84 55.73 169.84 55.73L168.44 57.41C168.42 57.44 168.44 57.47 168.47 57.46C168.98 57.32 171.41 56.57 174.52 53.97C174.52 53.97 171.74 57.63 167.35 59.09C162.96 60.55 169.11 59.68 169.11 59.68C169.11 59.68 168.52 60.56 169.11 60.56C169.7 60.56 172.04 60.56 175.26 58.51C175.26 58.51 170.87 62.9 166.77 62.9C162.67 62.9 164.14 63.78 166.48 63.78C166.48 63.78 164.72 65.54 170.87 64.37C170.87 64.37 167.36 66.42 165.89 67C164.43 67.59 167.35 67.59 167.35 67.59C167.35 67.59 163.84 68.47 163.54 68.76C163.25 69.05 167.05 69.05 170.57 67.88C170.57 67.88 168.81 70.22 165.01 70.81C164.45 70.9 163.96 70.97 163.52 71.03C163.1 70.69 162.66 70.38 162.66 70.38C162.66 70.38 165.09 70.38 165.7 70.08C166.25 69.8 160.55 68.78 158.58 66.32C158.57 66.2 158.57 66.13 158.57 66.13C158.56 66.18 158.55 66.22 158.54 66.27C158.36 66.03 158.21 65.78 158.1 65.52C158.1 65.52 162.35 67.95 163.26 67.65C164.17 67.35 159.92 65.83 157.79 61.57C157.79 61.57 159.61 62.79 159.92 62.79C160.22 62.79 157.49 58.84 157.49 58.84C157.49 58.84 158.1 59.14 158.1 58.23C158.1 57.32 156.28 54.89 156.28 54.89C156.28 54.89 159.32 58.23 159.93 57.93C160.54 57.63 156.89 54.59 155.98 51.85C155.98 51.85 158.11 54.89 158.71 54.58C159.32 54.28 157.8 53.67 156.28 50.02C156.28 50.02 157.19 50.02 156.89 49.41C156.59 48.8 155.67 47.28 154.92 45.31C154.68 44.68 153.1 49.56 152.19 51.08C151.28 52.6 150.97 52.9 152.49 51.99C152.49 51.99 152.19 54.72 149.45 58.37C147.57 60.87 146.72 61.1 149.45 60.5C149.45 60.5 148.54 62.02 148.84 62.32C149.14 62.62 151.27 61.1 151.27 61.1C151.27 61.1 150.36 64.44 147.62 66.57C144.89 68.7 147.01 68.09 147.01 68.09L145.56 69.83C145.54 69.86 145.56 69.9 145.59 69.89C146.12 69.75 148.64 68.96 151.87 66.27C151.87 66.27 148.98 70.07 144.43 71.59C143.85 71.78 143.45 71.94 143.19 72.06C142.28 70.6 141.3 69.07 141.18 68.83C141.18 68.83 143.87 69.56 144.11 69.32C144.35 69.08 140.45 65.17 140.45 65.17C140.45 65.17 141.92 65.9 142.65 65.9C143.38 65.9 138.99 60.28 138.99 60.28C138.99 60.28 139.97 60.28 138.26 58.08C137.59 57.22 135.33 52.95 135.33 52.95C135.33 52.95 137.04 54.66 137.28 54.42C137.52 54.18 135.08 49.05 135.08 49.05C135.08 49.05 135.57 50.03 136.06 50.27C136.55 50.51 134.59 44.65 134.11 41.72C134.11 41.72 135.09 43.43 135.33 43.43C135.57 43.43 134.35 38.3 134.35 38.3C134.35 38.3 135.08 39.77 135.33 39.77C135.57 39.77 133.62 34.89 133.13 33.91C133.13 33.91 134.11 34.64 134.6 34.64C135.03 34.64 132.99 31.6 132.25 27.96C132.21 27.76 131.92 27.77 131.9 27.97C131.73 29.56 131.4 32.04 130.81 33.54C129.71 36.35 131.66 34.15 131.66 34.15C131.66 34.15 129.1 39.89 128.85 40.38C128.61 40.87 129.83 40.38 129.83 40.38L128.98 42.73C128.95 42.82 129.06 42.9 129.13 42.84L130.32 41.85C130.32 41.85 128.12 47.47 127.39 48.93C126.66 50.4 126.66 51.13 127.88 49.66C127.88 49.66 126.17 54.54 125.68 55.77C125.19 56.99 127.15 55.28 127.15 55.28C127.15 55.28 125.93 57.23 126.17 57.48C126.41 57.72 126.9 57.48 126.9 57.48C126.9 57.48 123.72 64.56 122.26 67.01C120.79 69.45 120.55 69.7 122.26 69.21C122.26 69.21 121.16 72.51 120.67 73.24C120.18 73.97 122.01 72.63 122.01 72.63C122.01 72.63 121.64 73.68 121.12 74.96C116.64 72.42 112.23 69.45 108.16 66.45C108.31 66.3 108.18 66.25 107.85 66.22C106.67 65.34 105.51 64.47 104.39 63.6C105.6 63.71 106.67 63.76 107 63.65C107.91 63.35 102.14 62.74 99.4 59.4C99.4 59.4 103.35 61.22 103.96 60.92C104.57 60.62 100.01 58.79 97.58 53.32C97.58 53.32 101.83 55.45 102.44 55.45C103.05 55.45 99.1 52.72 98.49 52.11C98.49 52.11 104.57 54.54 105.17 54.24C105.78 53.94 97.57 50.29 96.66 47.86C96.66 47.86 100.91 49.08 101.52 49.08C102.13 49.08 100 47.56 100 47.56C100 47.56 102.43 47.56 103.04 47.26C103.65 46.96 96.66 45.74 95.44 42.7C95.44 42.7 99.69 45.13 100.6 44.83C101.51 44.53 97.26 43.01 95.13 38.75C95.13 38.75 96.95 39.97 97.26 39.97C97.57 39.97 94.83 36.02 94.83 36.02C94.83 36.02 95.44 36.32 95.44 35.41C95.44 34.5 93.62 32.07 93.62 32.07C93.62 32.07 96.66 35.41 97.27 35.11C97.88 34.81 94.23 31.77 93.32 29.03C93.32 29.03 95.45 32.07 96.05 31.76C96.66 31.46 95.14 30.85 93.62 27.2C93.62 27.2 94.53 27.2 94.23 26.59C93.93 25.98 93.01 24.46 92.26 22.49C92.02 21.86 90.44 26.74 89.53 28.26C88.62 29.78 88.31 30.08 89.83 29.17C89.83 29.17 89.53 31.9 86.79 35.55C84.91 38.05 84.06 38.28 86.79 37.68C86.79 37.68 85.88 39.2 86.18 39.5C86.48 39.8 88.61 38.28 88.61 38.28C88.61 38.28 87.7 41.62 84.96 43.75C82.23 45.88 84.35 45.27 84.35 45.27L82.9 47.01C82.88 47.04 82.9 47.08 82.93 47.07C83.46 46.93 85.98 46.14 89.21 43.45C89.21 43.45 86.32 47.25 81.77 48.77C77.21 50.29 83.59 49.38 83.59 49.38C83.59 49.38 83.47 49.57 83.39 49.78L75.14 49.83C74.36 48.87 73.6 47.71 72.97 46.31C72.97 46.31 77.22 48.44 77.83 48.44C78.44 48.44 74.49 45.71 73.88 45.1C73.88 45.1 79.96 47.53 80.56 47.23C81.17 46.93 72.96 43.28 72.05 40.85C72.05 40.85 76.3 42.07 76.91 42.07C77.52 42.07 75.39 40.55 75.39 40.55C75.39 40.55 77.82 40.55 78.43 40.25C79.04 39.95 72.05 38.73 70.83 35.69C70.83 35.69 75.08 38.12 75.99 37.82C76.9 37.52 72.65 36 70.52 31.74C70.52 31.74 72.34 32.96 72.65 32.96C72.96 32.96 70.22 29.01 70.22 29.01C70.22 29.01 70.83 29.31 70.83 28.4C70.83 27.49 69.01 25.06 69.01 25.06C69.01 25.06 72.05 28.4 72.66 28.1C73.27 27.8 69.62 24.76 68.71 22.02C68.71 22.02 70.84 25.06 71.44 24.75C72.05 24.45 70.53 23.84 69.01 20.19C69.01 20.19 69.92 20.19 69.62 19.58C69.32 18.97 68.4 17.45 67.65 15.48C67.41 14.85 65.83 19.73 64.92 21.25C64.01 22.77 63.7 23.07 65.22 22.16C65.22 22.16 64.92 24.89 62.18 28.54C60.3 31.04 59.45 31.27 62.18 30.67C62.18 30.67 61.27 32.19 61.57 32.49C61.87 32.79 64 31.27 64 31.27C64 31.27 63.09 34.61 60.35 36.74C57.62 38.87 59.74 38.26 59.74 38.26L58.29 40C58.27 40.03 58.29 40.07 58.32 40.06C58.85 39.92 61.37 39.13 64.6 36.44C64.6 36.44 61.71 40.24 57.16 41.76C52.6 43.28 58.98 42.37 58.98 42.37C58.98 42.37 58.37 43.28 58.98 43.28C59.59 43.28 62.02 43.28 65.36 41.15C65.36 41.15 60.8 45.71 56.55 45.71C52.3 45.71 53.82 46.62 56.25 46.62C56.25 46.62 54.43 48.44 60.81 47.23C60.81 47.23 57.16 49.36 55.65 49.96C54.13 50.57 57.17 50.57 57.17 50.57C57.17 50.57 53.52 51.48 53.22 51.79C52.92 52.09 56.87 52.09 60.51 50.88C60.51 50.88 58.69 53.31 54.74 53.92C50.79 54.53 49.88 54.53 50.18 54.83C50.48 55.13 55.65 54.83 55.65 54.83C55.65 54.83 53.22 55.44 53.22 55.74C53.22 56.04 57.78 55.74 59.9 54.83C59.9 54.83 56.56 58.48 53.52 59.39C50.48 60.3 52 60.6 54.43 60.3C54.43 60.3 53.52 61.21 58.99 60.3C58.99 60.3 55.04 61.82 54.13 62.12C53.22 62.42 55.35 63.03 58.08 62.12C58.08 62.12 53.22 65.16 51.4 65.46C49.58 65.76 50.18 66.68 52.92 66.07C52.92 66.07 51.28 67.29 51.7 67.29C53.83 67.29 55.65 66.99 58.08 65.47C58.08 65.47 55.65 67.9 53.52 68.81C51.39 69.72 55.65 69.42 55.65 69.42C55.65 69.42 54.66 70.08 53.28 70.67C51.92 70.31 49.14 69.69 46.67 68.45C46.67 68.45 50.01 69.36 51.23 69.06C52.45 68.76 45.46 68.15 40.6 60.86C40.6 60.86 42.42 61.77 43.33 61.47C44.24 61.17 40.6 59.95 39.08 56.91C39.08 56.91 42.12 59.34 45.46 60.25C48.8 61.16 50.62 60.55 50.62 60.25C50.62 59.95 48.49 60.25 43.94 57.52C43.94 57.52 46.37 58.13 47.89 58.13C49.41 58.13 49.41 57.22 49.41 57.22C49.41 57.22 51.54 56.92 52.14 56.61C52.75 56.31 46.67 56.91 39.08 52.96C39.08 52.96 42.12 54.18 45.46 54.18C48.8 54.18 47.59 54.18 43.33 50.84C43.33 50.84 45.46 51.75 46.06 51.14C46.06 51.14 47.58 51.14 48.19 50.53C48.8 49.92 43.94 51.14 39.08 47.19C39.08 47.19 42.73 47.8 43.94 47.49C45.16 47.19 39.69 46.58 38.17 44.45C38.17 44.45 43.87 47.09 46.98 45.36C49.71 43.84 45.76 45.36 42.42 43.54C42.42 43.54 43.03 42.63 39.38 41.41C39.38 41.41 45.76 42.32 46.67 42.02C47.58 41.72 41.81 41.11 39.07 37.77C39.07 37.77 43.02 39.59 43.63 39.29C44.24 38.99 39.68 37.16 37.25 31.69C37.25 31.69 41.5 33.82 42.11 33.82C42.72 33.82 38.77 31.09 38.16 30.48C38.16 30.48 44.24 32.91 44.84 32.61C45.45 32.31 37.24 28.66 36.33 26.23C36.33 26.23 40.58 27.45 41.19 27.45C41.8 27.45 39.67 25.93 39.67 25.93C39.67 25.93 42.1 25.93 42.71 25.63C43.32 25.33 36.33 24.11 35.11 21.07C35.11 21.07 39.36 23.5 40.27 23.2C41.18 22.9 36.93 21.38 34.8 17.12C34.8 17.12 36.62 18.34 36.93 18.34C37.23 18.34 34.5 14.39 34.5 14.39C34.5 14.39 35.11 14.69 35.11 13.78C35.11 12.87 33.29 10.44 33.29 10.44C33.29 10.44 36.33 13.78 36.94 13.48C37.55 13.18 33.9 10.14 32.99 7.4C32.99 7.4 35.12 10.44 35.72 10.13C36.33 9.83001 34.81 9.22001 33.29 5.57001C33.29 5.57001 34.2 5.57001 33.9 4.96001C33.6 4.35001 32.68 2.83001 31.93 0.860007C31.69 0.230007 30.11 5.11001 29.2 6.63001C28.29 8.15001 27.98 8.45 29.5 7.54C29.5 7.54 29.2 10.27 26.46 13.92C24.58 16.42 23.73 16.65 26.46 16.05C26.46 16.05 25.55 17.57 25.85 17.87C26.15 18.17 28.28 16.65 28.28 16.65C28.28 16.65 27.37 19.99 24.63 22.12C21.9 24.25 24.02 23.64 24.02 23.64L22.57 25.38C22.55 25.41 22.57 25.45 22.6 25.44C23.13 25.3 25.65 24.51 28.88 21.82C28.88 21.82 25.99 25.62 21.44 27.14C16.88 28.66 23.26 27.75 23.26 27.75C23.26 27.75 22.65 28.66 23.26 28.66C23.87 28.66 26.3 28.66 29.64 26.53C29.64 26.53 25.08 31.09 20.83 31.09C16.58 31.09 18.1 32 20.53 32C20.53 32 18.71 33.82 25.09 32.61C25.09 32.61 21.44 34.74 19.93 35.34C18.41 35.95 21.45 35.95 21.45 35.95C21.45 35.95 17.8 36.86 17.5 37.17C17.2 37.47 21.15 37.47 24.79 36.26C24.79 36.26 22.97 38.69 19.02 39.3C15.07 39.91 14.16 39.91 14.46 40.21C14.76 40.51 19.93 40.21 19.93 40.21C19.93 40.21 17.5 40.82 17.5 41.12C17.5 41.42 22.06 41.12 24.18 40.21C24.18 40.21 20.84 43.86 17.8 44.77C14.76 45.68 16.28 45.99 18.71 45.68C18.71 45.68 17.8 46.59 23.27 45.68C23.27 45.68 19.32 47.2 18.41 47.5C17.5 47.8 19.63 48.41 22.36 47.5C22.36 47.5 17.5 50.54 15.68 50.84C13.86 51.14 14.46 52.06 17.2 51.45C17.2 51.45 15.56 52.67 15.98 52.67C18.11 52.67 19.93 52.37 22.36 50.85C22.36 50.85 19.93 53.28 17.8 54.19C15.67 55.1 19.93 54.8 19.93 54.8C19.93 54.8 18.11 56.02 15.98 56.62C13.85 57.23 15.68 57.53 15.68 57.53C15.68 57.53 14.16 58.14 12.95 58.44C11.73 58.74 17.81 59.05 22.37 57.53C22.37 57.53 18.1 60.06 16.9 60.26C15.08 60.56 17.51 61.48 22.37 59.65C22.37 59.65 20.55 61.17 22.37 61.17C22.37 61.17 19.64 63.6 16.6 64.21C13.56 64.82 12.95 65.12 14.47 65.43C14.47 65.43 13.25 66.04 11.13 66.34C9.00001 66.64 10.22 67.86 17.21 66.64C17.21 66.64 15.39 67.55 14.48 68.16C13.57 68.77 22.08 67.25 22.08 67.25C22.08 67.25 16.92 72.11 13.57 73.93C9.51001 76.14 8.02001 76.4 13.57 75.45C13.57 75.45 12.24 75.98 11.02 76.52C5.02001 76.22 0.480011 76.13 0.480011 76.13V233.63L750 231.93V80.28C750 80.28 645.19 81.45 641.09 80.28ZM18.58 77.03C18.01 76.99 17.44 76.95 16.87 76.91C17.76 76.76 18.63 76.59 19.4 76.41C19.4 76.42 19.08 76.66 18.58 77.03ZM49.21 88.7C48.18 87.85 47.19 86.98 46.22 86.14H52.96C51.72 87.11 50.44 88.03 49.34 88.63C49.3 88.65 49.26 88.67 49.21 88.7ZM48.26 79.45C48.26 79.45 48.97 79.8 49.92 80.26C49.75 80.33 49.51 80.41 49.22 80.51C48.89 80.17 48.57 79.82 48.26 79.45ZM50.41 81.7C51.02 81.63 51.7 81.54 52.45 81.42C52.52 81.45 52.58 81.48 52.65 81.5C52.28 81.69 51.67 82.01 51.1 82.33C50.87 82.13 50.64 81.92 50.41 81.7ZM53.73 92.1C53.44 91.91 53.15 91.71 52.86 91.51C53.66 91.37 54.43 91.22 55.12 91.06C55.12 91.05 54.53 91.49 53.73 92.1ZM54.41 84.97C53.66 84.44 52.73 83.73 51.74 82.9C53.98 82.64 57.85 81.95 57.85 81.95C57.85 81.95 56.33 83.37 54.41 84.97ZM58.16 74.34C58.16 74.34 56.34 75.86 58.16 75.86C58.16 75.86 55.43 78.29 52.39 78.9C51.96 78.99 51.59 79.06 51.26 79.14C49.36 77.64 47.13 75.88 45.84 74.59C45.84 74.59 51.31 78.24 52.52 78.24C53.74 78.24 46.75 73.08 45.23 70.64C45.23 70.64 48.94 71.26 51.77 71.31C49.66 71.92 51.47 72.22 51.47 72.22C51.47 72.22 49.95 72.83 48.74 73.13C47.52 73.43 53.6 73.74 58.16 72.22C58.16 72.22 53.89 74.75 52.69 74.95C50.86 75.26 53.3 76.17 58.16 74.34ZM580.54 56.7C580.54 56.7 580.22 57.12 579.64 57.7C579.56 57.66 579.49 57.61 579.41 57.57C579.78 57.31 580.15 57.03 580.54 56.7ZM562.22 57.44C562.18 57.44 562.15 57.43 562.11 57.43C562.11 57.42 562.1 57.41 562.1 57.4C562.1 57.4 562.15 57.41 562.22 57.44ZM389.34 83.92C389.03 83.97 388.66 84.04 388.24 84.15C388.07 83.93 387.93 83.72 387.86 83.51C387.86 83.5 388.52 83.69 389.34 83.92ZM269.35 70.63C269.24 70.66 269.13 70.69 269.02 70.72C268.98 70.65 268.95 70.58 268.92 70.51C268.92 70.51 269.08 70.56 269.35 70.63ZM218.21 60.02C218.73 59.66 219.28 59.24 219.85 58.77C219.85 58.77 219.17 59.66 217.97 60.74C217.78 60.68 217.59 60.63 217.4 60.58C217.5 60.56 217.61 60.53 217.7 60.5C218.6 60.25 218.68 60.14 218.21 60.02ZM208.61 60.19C208.47 60.25 208.33 60.32 208.19 60.39C208.08 60.28 207.98 60.18 207.88 60.06C207.88 60.06 208.15 60.12 208.61 60.19ZM163.59 71.9C163.89 71.96 164.12 72.01 164.23 72.01C164.34 72.01 164.36 71.96 164.32 71.88C164.51 71.87 164.68 71.86 164.85 71.86C163.45 72.3 162.36 72.26 161.52 71.92C162.09 71.93 162.85 71.92 163.59 71.9ZM161.65 71.41C161.27 71.47 161.02 71.51 160.86 71.56C160.63 71.4 160.43 71.23 160.24 71.03C160.64 71.14 161.14 71.28 161.65 71.41ZM146.76 81.74C146.68 81.57 146.6 81.4 146.5 81.2C146.94 81.09 147.39 80.96 147.83 80.81C147.83 80.81 147.54 81.19 146.95 81.69C146.88 81.71 146.82 81.73 146.76 81.74ZM145.27 78.77C145.07 78.38 144.87 77.98 144.67 77.59C145.4 77.6 146.49 77.48 148.13 77.17C148.13 77.17 146.71 78 145.27 78.77ZM145.05 81.52C145.12 81.51 145.18 81.49 145.25 81.48C145.4 81.62 145.58 81.79 145.77 81.96C145.61 81.99 145.44 82.02 145.27 82.04C145.2 81.87 145.12 81.7 145.05 81.52ZM144.9 75.04C145.01 75.04 144.32 73.88 143.5 72.57C144.5 72.56 146.31 72.3 146.31 72.3C146.31 72.3 145.7 73.21 146.31 73.21C146.92 73.21 149.35 73.21 152.69 71.08C152.69 71.08 148.13 75.64 143.88 75.64C143.83 75.64 143.79 75.64 143.75 75.64C143.53 75.15 143.33 74.69 143.19 74.3C143.19 74.31 144.65 75.04 144.9 75.04ZM90.04 48.26C90.04 48.26 89.32 48.98 88.19 49.84L86.76 49.85C87.7 49.53 88.81 49.04 90.04 48.26Z" fill="url(#paint0_linear_1_14)"/>
<defs>
<linearGradient id="paint0_linear_1_14" x1="375.269" y1="109.558" x2="375.269" y2="211.44" gradientUnits="userSpaceOnUse">
<stop stop-color="#3F0777"/>
<stop offset="1" stop-color="#6009AD"/>
</linearGradient>
</defs>
</svg>
