<svg width="758" height="508" viewBox="0 0 758 508" fill="none" xmlns="http://www.w3.org/2000/svg">
<g clip-path="url(#clip0_1_2)" filter="url(#filter0_d_1_2)">
<path d="M753.56 500H5.76L4 0H754L753.56 500Z" fill="url(#paint0_linear_1_2)"/>
<path opacity="0.46" d="M628.88 299.02H4V499.51H628.88V299.02Z" fill="url(#paint1_linear_1_2)"/>
<path opacity="0.09" d="M6.29 108.27C6.29 108.27 47.28 62.59 126.32 134.61C205.36 206.63 289.68 220.68 402.1 131.1C514.52 41.52 612.3 118.22 683.15 289.19H4.25L6.29 108.27Z" fill="url(#paint2_linear_1_2)"/>
<path opacity="0.36" d="M754 58.48C754 58.48 651.53 10.47 595.32 111.76C539.11 213.05 480.56 231.21 379.85 186.12C279.14 141.04 217.08 152.16 105.83 335.43H754V58.48Z" fill="url(#paint3_linear_1_2)"/>
<path opacity="0.68" d="M7.47 123.92C7.47 123.92 38.5 111.62 46.7 109.28C54.9 106.94 112.28 140.31 118.13 137.97C123.99 135.63 150.33 133.29 157.36 130.36C164.39 127.43 179.33 146.11 185.46 140.31C196 130.36 213.56 146.75 220.59 149.09C227.62 151.43 245.18 149.68 252.21 164.9C259.24 180.12 280.62 153.98 291.44 158.46C308.42 165.49 321.89 194.18 333.01 186.56C340.56 181.4 355.26 164.9 364.63 164.9C374 164.9 385.71 146.16 395.08 148.51C404.45 150.85 423.18 177.79 438.41 177.2C445.55 176.93 459.49 160.22 472.37 160.22C485.25 160.22 509.07 175.76 514.53 170.76C528.58 157.88 525.65 150.85 541.46 157.88C553.81 163.37 562.54 143.83 574.25 140.31C585.96 136.8 628.7 167.83 639.24 148.51C649.78 129.19 621.09 107.52 666.76 130.36L752.83 130.35V332.36H19.18L7.47 123.92Z" fill="url(#paint4_linear_1_2)"/>
<path d="M754 26.72C754 26.72 734.68 19.69 729.99 26.72C725.31 33.75 704.23 53.65 703.06 50.14C701.89 46.63 692.52 43.11 686.67 50.73C680.81 58.34 656.22 118.06 650.37 120.41C644.51 122.75 630.46 121.58 626.95 120.41C623.44 119.24 554.35 195.36 541.46 194.77C528.58 194.18 529.75 190.67 519.21 194.77C508.67 198.87 458.32 229.32 441.92 231.66C425.53 234 426.7 235.17 419.67 231.66C412.64 228.15 379.85 252.74 344.72 259.76V373.35H754V26.72Z" fill="url(#paint5_linear_1_2)"/>
<path d="M4.54001 101.67C4.54001 101.67 16.84 113.38 26.2 120.41C35.57 127.44 51.96 122.75 55.48 130.36C58.99 137.97 62.51 142.66 78.32 142.66C94.13 142.66 99.98 153.2 117.55 160.23C135.12 167.26 160.88 168.43 169.66 175.45C178.44 182.48 215.92 210 226.46 211.17C237 212.34 246.37 207.07 250.47 207.07C254.57 207.07 286.77 229.32 291.46 231.66C296.14 234 300.24 229.32 305.51 231.66C310.78 234 367.57 266.79 379.29 263.28C391 259.77 391.74 255.55 401.54 255.08C413.84 254.49 417.93 261.52 424.96 263.28C431.99 265.04 436.67 258.01 441.94 258.01C447.21 258.01 467.12 272.65 479.41 269.72C491.71 266.79 499.9 263.86 506.93 270.31C513.96 276.75 547.92 300.76 547.92 300.76V377.46H5.20001L4.54001 101.67Z" fill="url(#paint6_linear_1_2)"/>
<path d="M645.09 311.28C643.11 310.71 638.53 313.43 633.41 316.38C632.88 315.22 632.37 313.95 632.06 312.7C632.06 312.7 632.81 313.2 633.3 313.2C633.8 313.2 630.57 310.22 628.83 305.49C628.83 305.49 630.57 307.23 631.07 307.23C631.57 307.23 628.09 301.26 627.09 298.53C627.09 298.53 628.58 299.28 628.83 299.28C629.08 299.28 625.35 293.56 625.1 293.07C625.1 293.07 627.83 293.82 628.08 293.57C628.33 293.32 624.35 289.34 624.35 289.34C624.35 289.34 625.84 290.09 626.59 290.09C627.34 290.09 622.86 284.37 622.86 284.37C622.86 284.37 623.85 284.37 622.11 282.13C621.43 281.25 619.13 276.91 619.13 276.91C619.13 276.91 620.87 278.65 621.12 278.4C621.37 278.15 618.88 272.93 618.88 272.93C618.88 272.93 619.38 273.92 619.87 274.17C620.37 274.42 618.38 268.45 617.88 265.47C617.88 265.47 618.87 267.21 619.12 267.21C619.37 267.21 618.13 261.99 618.13 261.99C618.13 261.99 618.88 263.48 619.12 263.48C619.37 263.48 617.38 258.51 616.88 257.51C616.88 257.51 617.87 258.26 618.37 258.26C618.81 258.26 616.74 255.17 615.98 251.46C615.94 251.26 615.64 251.27 615.62 251.47C615.45 253.09 615.11 255.61 614.51 257.14C613.39 260 615.38 257.76 615.38 257.76C615.38 257.76 612.77 263.6 612.52 264.1C612.27 264.6 613.51 264.1 613.51 264.1L612.64 266.49C612.61 266.59 612.72 266.67 612.8 266.6L614.01 265.59C614.01 265.59 611.77 271.31 611.03 272.8C610.28 274.29 610.28 275.04 611.53 273.55C611.53 273.55 609.79 278.52 609.29 279.76C608.79 281 610.78 279.26 610.78 279.26C610.78 279.26 609.54 281.25 609.79 281.5C610.04 281.75 610.54 281.5 610.54 281.5C610.54 281.5 607.31 288.71 605.82 291.19C605.65 291.48 605.5 291.73 605.36 291.96C601.4 294.65 595.86 293.79 591.09 292.11C590.73 291.77 590.47 291.44 590.35 291.13C590.35 291.13 593.68 292.08 594.15 292.08C594.63 292.08 592.96 290.89 592.96 290.89C592.96 290.89 594.86 290.89 595.34 290.65C595.82 290.41 590.35 289.46 589.4 287.08C589.4 287.08 592.73 288.98 593.44 288.74C594.15 288.5 590.82 287.31 589.16 283.98C589.16 283.98 590.59 284.93 590.82 284.93C591.06 284.93 588.92 281.84 588.92 281.84C588.92 281.84 589.4 282.08 589.4 281.36C589.4 280.65 587.97 278.74 587.97 278.74C587.97 278.74 590.35 281.36 590.82 281.12C591.3 280.88 588.44 278.5 587.73 276.36C587.73 276.36 589.39 278.74 589.87 278.5C590.35 278.26 589.16 277.79 587.97 274.93C587.97 274.93 588.68 274.93 588.45 274.45C588.21 273.97 587.5 272.79 586.9 271.24C586.71 270.74 585.47 274.57 584.76 275.76C584.05 276.95 583.81 277.19 585 276.47C585 276.47 584.76 278.61 582.62 281.46C581.15 283.42 580.48 283.6 582.62 283.12C582.62 283.12 581.91 284.31 582.14 284.55C582.38 284.79 584.04 283.6 584.04 283.6C584.04 283.6 583.43 285.83 581.65 287.48C581.39 287.31 581.24 287.22 581.24 287.22C577.89 290.57 574.68 289.8 570.71 289.02C570.22 288.58 569.46 288.04 569.46 288.04C569.46 288.04 571.93 288.04 572.55 287.73C573.17 287.42 566.06 286.18 564.82 283.09C564.82 283.09 569.15 285.56 570.08 285.25C571.01 284.94 566.68 283.39 564.51 279.07C564.51 279.07 566.37 280.31 566.67 280.31C566.98 280.31 564.2 276.29 564.2 276.29C564.2 276.29 564.82 276.6 564.82 275.67C564.82 274.74 562.96 272.27 562.96 272.27C562.96 272.27 566.05 275.67 566.67 275.36C567.29 275.05 563.58 271.96 562.65 269.18C562.65 269.18 564.81 272.27 565.43 271.96C566.05 271.65 564.5 271.03 562.96 267.32C562.96 267.32 563.89 267.32 563.58 266.7C563.27 266.08 562.34 264.54 561.57 262.53C561.32 261.88 559.71 266.86 558.79 268.4C557.86 269.95 557.55 270.26 559.1 269.33C559.1 269.33 558.79 272.11 556.01 275.82C554.1 278.37 553.23 278.6 556.01 277.98C556.01 277.98 555.08 279.53 555.39 279.84C555.7 280.15 557.86 278.6 557.86 278.6C557.86 278.6 556.93 282 554.15 284.17C551.37 286.33 553.53 285.72 553.53 285.72L552.05 287.49C552.03 287.52 552.05 287.56 552.09 287.55C552.63 287.4 555.19 286.61 558.48 283.87C558.48 283.87 555.54 287.73 550.9 289.28C546.26 290.83 552.76 289.9 552.76 289.9C552.76 289.9 552.14 290.83 552.76 290.83C553.38 290.83 555.85 290.83 559.25 288.67C559.25 288.67 558.82 289.1 558.1 289.7C556.72 290.24 555.26 290.95 553.71 291.92C552.81 292.48 551.94 292.92 551.1 293.25C550.83 293.28 550.56 293.3 550.29 293.3C547.3 293.3 547.11 293.74 548.1 294.02C543.91 294.5 540.49 292.37 537.47 290.04C538.34 290.26 539.13 290.45 539.37 290.45C539.96 290.45 537.91 288.99 537.91 288.99C537.91 288.99 540.25 288.99 540.84 288.7C541.43 288.41 534.69 287.24 533.52 284.31C533.52 284.31 537.62 286.65 538.5 286.36C539.38 286.07 535.28 284.6 533.23 280.5C533.23 280.5 534.99 281.67 535.28 281.67C535.57 281.67 532.94 277.86 532.94 277.86C532.94 277.86 533.53 278.15 533.53 277.27C533.53 276.39 531.77 274.05 531.77 274.05C531.77 274.05 534.7 277.27 535.28 276.98C535.87 276.69 532.35 273.76 531.47 271.12C531.47 271.12 533.52 274.05 534.1 273.75C534.69 273.46 533.22 272.87 531.76 269.36C531.76 269.36 532.64 269.36 532.35 268.77C532.06 268.18 531.18 266.72 530.45 264.82C530.22 264.21 528.69 268.92 527.82 270.38C526.94 271.84 526.65 272.14 528.11 271.26C528.11 271.26 527.82 273.89 525.18 277.41C523.37 279.82 522.55 280.04 525.18 279.46C525.18 279.46 524.3 280.92 524.59 281.22C524.88 281.51 526.93 280.05 526.93 280.05C526.93 280.05 526.05 283.27 523.42 285.32C520.79 287.37 522.83 286.78 522.83 286.78L521.91 287.88C519.39 288.38 516.85 287.58 514.52 286.64C514 285.99 513.5 285.25 513.08 284.42C513.08 284.42 515.06 285.74 515.39 285.74C515.72 285.74 512.75 281.46 512.75 281.46C512.75 281.46 513.41 281.79 513.41 280.8C513.41 279.81 511.43 277.17 511.43 277.17C511.43 277.17 514.73 280.8 515.39 280.47C516.05 280.14 512.09 276.84 511.11 273.88C511.11 273.88 513.42 277.18 514.08 276.85C514.74 276.52 513.09 275.86 511.44 271.91C511.44 271.91 512.43 271.91 512.1 271.25C511.77 270.59 510.78 268.94 509.96 266.8C509.7 266.11 507.98 271.41 506.99 273.06C506 274.71 505.67 275.04 507.32 274.05C507.32 274.05 506.99 277.02 504.02 280.97C501.98 283.68 501.05 283.94 504.02 283.28C504.02 283.28 503.03 284.93 503.36 285.26C503.69 285.59 506 283.94 506 283.94C506 283.94 505.58 285.48 504.46 287.19C501.72 288.73 496.57 287.54 492.47 286.16C491.96 285.06 490.87 283.6 490.87 283.6C490.87 283.6 493.96 287 494.58 286.69C495.2 286.38 491.49 283.29 490.56 280.51C490.56 280.51 492.72 283.6 493.34 283.29C493.96 282.98 492.41 282.36 490.87 278.65C490.87 278.65 491.8 278.65 491.49 278.03C491.18 277.41 490.25 275.87 489.48 273.86C489.23 273.21 487.62 278.19 486.7 279.73C485.77 281.28 485.46 281.59 487.01 280.66C487.01 280.66 486.87 281.89 485.97 283.79L480.83 284.7C480.99 284.63 481.13 284.55 481.25 284.48C482.28 283.8 478.51 284.48 478.51 284.48C478.51 284.48 483.99 282.08 483.99 281.4C483.99 280.72 480.22 282.77 478.17 282.77C478.17 282.77 480.57 279.34 480.57 278.66C480.57 277.98 477.14 281.74 477.14 281.74V275.92C477.14 275.92 479.54 272.15 479.88 271.47C480.22 270.79 476.8 274.21 476.8 274.21C476.8 274.21 479.2 270.78 479.2 270.44C479.2 270.1 477.14 271.47 477.14 271.47C477.14 271.47 476.8 263.59 476.28 262.39C475.98 261.69 475.77 266.67 475.77 266.67C475.77 266.67 474.74 265.3 474.4 264.96C474.06 264.62 475.43 269.07 475.43 269.07C475.43 269.07 474.06 268.04 473.72 268.04C473.38 268.04 474.75 270.78 474.75 270.78V275.23C474.75 275.23 474.06 273.52 473.38 273.17C472.69 272.83 474.75 281.05 474.75 281.05C474.75 281.05 472.69 275.57 472.35 275.91C472.01 276.25 472.35 279.34 472.35 279.34C472.35 279.34 468.92 277.28 468.58 277.63C468.24 277.97 472.01 280.71 474.4 284.48C474.4 284.48 469.6 280.71 468.92 280.37C468.24 280.03 470.98 283.45 470.98 283.45C470.98 283.45 468.24 282.42 467.9 282.76C467.56 283.1 473.72 287.21 473.72 287.21C473.72 287.21 469.27 286.52 468.92 286.87C468.6 287.19 473 288.39 473.63 288.56L471.59 290.8C470.75 290.45 469.91 290.1 469.6 289.95C469.06 289.68 470.42 290.88 471.03 291.42L470.67 291.81C469.81 291.96 468.13 292.12 465.83 291.66C465.08 291.51 465.22 292.26 467.8 292.83L459.14 295.72C458.99 295.42 458.84 295.09 458.69 294.73C458.69 294.73 459.62 294.73 459.31 294.11C459 293.49 458.07 291.95 457.3 289.94C457.16 289.57 456.56 291.06 455.91 292.68L455.35 291.9L450.67 293.66L449.85 294.13C449.84 294.08 449.83 294.02 449.8 293.95C449.51 293.36 448.63 291.9 447.9 290C447.66 289.39 446.14 294.1 445.27 295.56C444.88 296.21 444.61 296.62 444.55 296.81L438.62 299.18C437.03 298.47 435.46 297.49 434.94 296.19C434.94 296.19 439.27 298.66 440.2 298.35C441.13 298.04 436.8 296.49 434.63 292.17C434.63 292.17 436.49 293.41 436.79 293.41C437.1 293.41 434.32 289.39 434.32 289.39C434.32 289.39 434.94 289.7 434.94 288.77C434.94 287.84 433.08 285.37 433.08 285.37C433.08 285.37 436.17 288.77 436.79 288.46C437.41 288.15 433.7 285.06 432.77 282.28C432.77 282.28 434.93 285.37 435.55 285.06C436.17 284.75 434.62 284.13 433.08 280.42C433.08 280.42 434.01 280.42 433.7 279.8C433.39 279.18 432.46 277.64 431.69 275.63C431.44 274.98 429.83 279.96 428.91 281.5C427.98 283.05 427.67 283.36 429.22 282.43C429.22 282.43 428.91 285.21 426.13 288.92C424.22 291.47 423.35 291.7 426.13 291.08C426.13 291.08 425.2 292.63 425.51 292.94C425.82 293.25 427.98 291.7 427.98 291.7C427.98 291.7 427.05 295.1 424.27 297.27C421.49 299.43 423.65 298.82 423.65 298.82L422.17 300.59C422.15 300.62 422.17 300.66 422.21 300.65C422.75 300.5 425.31 299.71 428.6 296.97C428.6 296.97 425.66 300.83 421.02 302.38C416.38 303.93 422.88 303 422.88 303C422.88 303 422.26 303.93 422.88 303.93C423.5 303.93 425.97 303.93 429.37 301.77C429.37 301.77 424.73 306.41 420.4 306.41C416.07 306.41 417.62 307.34 420.09 307.34C420.09 307.34 418.23 309.2 424.73 307.96C424.73 307.96 421.02 310.12 419.47 310.74C417.92 311.36 421.02 311.36 421.02 311.36C421.02 311.36 417.31 312.29 417 312.6C416.73 312.87 419.78 312.9 423.03 312.08C422.88 312.19 422.73 312.31 422.58 312.41C419.18 314.88 415.79 315.23 412.74 315.53C411.95 314.12 411.16 312.62 411.16 312.62C411.16 312.62 412.9 314.36 413.15 314.11C413.4 313.86 410.91 308.64 410.91 308.64C410.91 308.64 411.41 309.63 411.9 309.88C412.4 310.13 410.41 304.16 409.91 301.18C409.91 301.18 410.9 302.92 411.15 302.92C411.4 302.92 410.16 297.7 410.16 297.7C410.16 297.7 410.91 299.19 411.15 299.19C411.4 299.19 409.41 294.22 408.91 293.22C408.91 293.22 409.9 293.97 410.4 293.97C410.84 293.97 408.77 290.88 408.01 287.17C407.97 286.96 407.67 286.98 407.65 287.18C407.48 288.8 407.14 291.32 406.54 292.85C405.42 295.71 407.41 293.47 407.41 293.47C407.41 293.47 404.8 299.31 404.55 299.81C404.3 300.31 405.54 299.81 405.54 299.81L404.67 302.2C404.64 302.3 404.75 302.38 404.83 302.31L406.04 301.3C406.04 301.3 403.8 307.02 403.06 308.51C402.31 310 402.31 310.75 403.56 309.26C403.56 309.26 401.82 314.23 401.32 315.47C400.82 316.71 402.81 314.97 402.81 314.97C402.81 314.97 401.57 316.96 401.82 317.21C402.07 317.46 402.57 317.21 402.57 317.21C402.57 317.21 402.31 317.79 401.91 318.66C399.23 318.33 396.47 316.37 395.19 315.35C395.82 315.5 396.33 315.62 396.51 315.62C397.1 315.62 395.05 314.16 395.05 314.16C395.05 314.16 397.39 314.16 397.98 313.87C398.57 313.58 391.83 312.41 390.66 309.48C390.66 309.48 394.76 311.82 395.64 311.53C396.52 311.24 392.42 309.77 390.37 305.67C390.37 305.67 392.13 306.84 392.42 306.84C392.71 306.84 390.08 303.03 390.08 303.03C390.08 303.03 390.67 303.32 390.67 302.44C390.67 301.56 388.91 299.22 388.91 299.22C388.91 299.22 391.84 302.44 392.42 302.15C393.01 301.86 389.49 298.93 388.61 296.29C388.61 296.29 390.66 299.22 391.24 298.92C391.83 298.63 390.36 298.04 388.9 294.53C388.9 294.53 389.78 294.53 389.49 293.94C389.2 293.35 388.32 291.89 387.59 289.99C387.35 289.38 385.83 294.09 384.96 295.55C384.09 297.01 383.79 297.31 385.25 296.43C385.25 296.43 384.96 299.06 382.32 302.58C380.51 304.99 379.69 305.21 382.32 304.63C382.32 304.63 381.44 306.09 381.73 306.39C382.02 306.68 384.07 305.22 384.07 305.22C384.07 305.22 383.19 308.44 380.56 310.49C377.93 312.54 379.97 311.95 379.97 311.95L378.57 313.63C378.55 313.66 378.57 313.69 378.6 313.68C379.11 313.54 381.54 312.79 384.65 310.19C384.65 310.19 381.87 313.85 377.48 315.31C373.09 316.77 379.24 315.9 379.24 315.9C379.24 315.9 378.65 316.78 379.24 316.78C379.83 316.78 382.17 316.78 385.39 314.73C385.39 314.73 381 319.12 376.9 319.12C372.8 319.12 374.27 320 376.61 320C376.61 320 374.85 321.76 381 320.59C381 320.59 377.49 322.64 376.02 323.22C375.13 323.58 375.87 323.72 376.58 323.77C373.73 324.38 370.87 323.82 368.65 323.06C367.73 321.99 366.07 320.34 366.07 320.34C366.07 320.34 367.34 320.97 367.97 320.97C368.6 320.97 364.8 316.11 364.8 316.11C364.8 316.11 365.65 316.11 364.17 314.21C363.59 313.46 361.63 309.77 361.63 309.77C361.63 309.77 363.11 311.25 363.32 311.04C363.53 310.83 361.42 306.39 361.42 306.39C361.42 306.39 361.84 307.24 362.27 307.45C362.69 307.66 361 302.59 360.58 300.05C360.58 300.05 361.43 301.53 361.64 301.53C361.85 301.53 360.79 297.09 360.79 297.09C360.79 297.09 361.42 298.36 361.64 298.36C361.85 298.36 360.16 294.13 359.74 293.28C359.74 293.28 360.59 293.91 361.01 293.91C361.38 293.91 359.62 291.28 358.98 288.12C358.94 287.95 358.69 287.95 358.68 288.13C358.54 289.51 358.25 291.66 357.74 292.95C356.79 295.38 358.48 293.48 358.48 293.48C358.48 293.48 356.26 298.45 356.05 298.87C355.84 299.29 356.9 298.87 356.9 298.87L356.16 300.9C356.13 300.98 356.23 301.05 356.29 300.99L357.32 300.13C357.32 300.13 355.42 304.99 354.78 306.26C354.15 307.53 354.15 308.16 355.2 306.89C355.2 306.89 353.72 311.12 353.3 312.18C352.88 313.24 354.57 311.76 354.57 311.76C354.57 311.76 353.51 313.45 353.72 313.66C353.93 313.87 354.35 313.66 354.35 313.66C354.35 313.66 351.6 319.79 350.33 321.91C349.06 324.02 348.85 324.24 350.33 323.81C350.33 323.81 349.38 326.67 348.96 327.3C348.54 327.93 350.12 326.77 350.12 326.77C350.12 326.77 348.85 330.37 347.79 332.06C346.73 333.75 344.93 334.92 347.47 334.07C347.47 334.07 347.3 334.85 346.92 335.76L336.63 319.47C335.99 317.99 335.21 316.36 335.21 316.36C335.21 316.36 335.71 317.35 336.2 317.6C336.7 317.85 334.71 311.88 334.21 308.9C334.21 308.9 335.2 310.64 335.45 310.64C335.7 310.64 334.46 305.42 334.46 305.42C334.46 305.42 335.21 306.91 335.45 306.91C335.7 306.91 333.71 301.94 333.21 300.94C333.21 300.94 334.2 301.69 334.7 301.69C335.14 301.69 333.07 298.6 332.31 294.89C332.27 294.69 331.97 294.7 331.95 294.9C331.78 296.52 331.44 299.04 330.84 300.57C329.72 303.43 331.71 301.19 331.71 301.19C331.71 301.19 329.1 307.03 328.85 307.53C328.6 308.03 329.84 307.53 329.84 307.53L328.97 309.92C328.94 310.02 329.05 310.1 329.13 310.03L330.34 309.02C330.34 309.02 328.1 314.74 327.36 316.23C326.61 317.72 326.61 318.47 327.86 316.98C327.86 316.98 327.56 317.85 327.17 318.94C321.14 319.85 316.55 317.73 312.94 314.56C312.36 313.75 311.81 312.83 311.33 311.76C311.33 311.76 315.66 313.92 316.28 313.92C316.9 313.92 312.88 311.14 312.26 310.52C312.26 310.52 318.44 312.99 319.06 312.68C319.68 312.37 311.33 308.66 310.4 306.19C310.4 306.19 314.73 307.43 315.35 307.43C315.97 307.43 313.8 305.88 313.8 305.88C313.8 305.88 316.27 305.88 316.89 305.57C317.51 305.26 310.4 304.02 309.16 300.93C309.16 300.93 313.49 303.4 314.42 303.09C315.35 302.78 311.02 301.23 308.85 296.91C308.85 296.91 310.71 298.15 311.01 298.15C311.32 298.15 308.54 294.13 308.54 294.13C308.54 294.13 309.16 294.44 309.16 293.51C309.16 292.58 307.31 290.11 307.31 290.11C307.31 290.11 310.4 293.51 311.02 293.2C311.64 292.89 307.93 289.8 307 287.02C307 287.02 309.16 290.11 309.78 289.8C310.4 289.49 308.85 288.87 307.31 285.16C307.31 285.16 308.24 285.16 307.93 284.54C307.62 283.92 306.69 282.38 305.92 280.37C305.67 279.72 304.06 284.7 303.14 286.24C302.21 287.79 301.9 288.1 303.45 287.17C303.45 287.17 303.14 289.95 300.36 293.66C298.45 296.21 297.58 296.44 300.36 295.82C300.36 295.82 299.43 297.37 299.74 297.68C300.05 297.99 302.21 296.44 302.21 296.44C302.21 296.44 301.85 297.76 300.9 299.28C300.65 299.1 300.41 298.97 300.17 298.88C297.63 298.03 295.35 298.55 292.83 299.24C292.01 298.39 291.2 297.35 290.57 296.08C290.57 296.08 292.55 297.4 292.88 297.4C293.21 297.4 290.24 293.12 290.24 293.12C290.24 293.12 290.9 293.45 290.9 292.46C290.9 291.47 288.92 288.83 288.92 288.83C288.92 288.83 292.22 292.46 292.87 292.13C293.53 291.8 289.57 288.5 288.59 285.54C288.59 285.54 290.9 288.84 291.56 288.51C292.22 288.18 290.57 287.52 288.92 283.57C288.92 283.57 289.91 283.57 289.58 282.91C289.25 282.25 288.26 280.6 287.44 278.46C287.18 277.77 285.46 283.07 284.47 284.72C283.48 286.37 283.15 286.7 284.8 285.71C284.8 285.71 284.47 288.68 281.5 292.63C279.46 295.34 278.53 295.6 281.5 294.94C281.5 294.94 280.51 296.59 280.84 296.92C281.17 297.25 283.48 295.6 283.48 295.6C283.48 295.6 282.73 298.33 280.59 300.56C280.12 300.56 279.66 300.58 279.2 300.61C278.12 300.11 272.69 298.82 271.63 296.16C271.63 296.16 275.96 298.63 276.89 298.32C277.82 298.01 273.49 296.46 271.32 292.14C271.32 292.14 273.18 293.38 273.48 293.38C273.79 293.38 271.01 289.36 271.01 289.36C271.01 289.36 271.63 289.67 271.63 288.74C271.63 287.81 269.77 285.34 269.77 285.34C269.77 285.34 272.86 288.74 273.48 288.43C274.1 288.12 270.39 285.03 269.46 282.25C269.46 282.25 271.62 285.34 272.24 285.03C272.86 284.72 271.31 284.1 269.77 280.39C269.77 280.39 270.7 280.39 270.39 279.77C270.08 279.15 269.15 277.61 268.38 275.6C268.13 274.95 266.52 279.93 265.6 281.47C264.67 283.02 264.36 283.33 265.91 282.4C265.91 282.4 265.6 285.18 262.82 288.89C260.91 291.44 260.04 291.67 262.82 291.05C262.82 291.05 261.89 292.6 262.2 292.91C262.51 293.22 264.67 291.67 264.67 291.67C264.67 291.67 263.74 295.07 260.96 297.24C258.18 299.4 260.34 298.79 260.34 298.79L258.86 300.56C258.84 300.59 258.86 300.63 258.9 300.62C259.44 300.47 262 299.68 265.29 296.94C265.29 296.94 262.35 300.8 257.72 302.35C253.08 303.9 259.58 302.97 259.58 302.97C259.58 302.97 258.96 303.9 259.58 303.9C260.2 303.9 262.67 303.9 266.07 301.74C266.07 301.74 261.43 306.38 257.1 306.38C252.77 306.38 254.32 307.31 256.79 307.31C256.79 307.31 256.76 307.34 256.73 307.38C253.68 307.47 250.74 306.12 248.3 304.46C247.57 303.31 246.58 301.89 246.58 301.89C246.58 301.89 247.2 302.2 247.2 301.27C247.2 300.34 245.35 297.87 245.35 297.87C245.35 297.87 248.44 301.27 249.06 300.96C249.68 300.65 245.97 297.56 245.04 294.78C245.04 294.78 247.2 297.87 247.82 297.56C248.44 297.25 246.89 296.63 245.35 292.92C245.35 292.92 246.28 292.92 245.97 292.3C245.66 291.68 244.73 290.14 243.96 288.13C243.71 287.48 242.1 292.46 241.18 294C240.25 295.55 239.94 295.86 241.49 294.93C241.49 294.93 241.34 296.21 240.39 298.19C238.47 297.44 235.26 296.2 231.82 294.96C231.56 294.66 231.36 294.38 231.26 294.1C231.26 294.1 235.51 295.32 236.12 295.32C236.73 295.32 234.6 293.8 234.6 293.8C234.6 293.8 237.03 293.8 237.64 293.5C238.25 293.2 231.26 291.98 230.04 288.94C230.04 288.94 234.29 291.37 235.2 291.07C236.11 290.77 231.86 289.25 229.73 284.99C229.73 284.99 231.55 286.21 231.86 286.21C232.16 286.21 229.43 282.26 229.43 282.26C229.43 282.26 230.04 282.56 230.04 281.65C230.04 280.74 228.22 278.31 228.22 278.31C228.22 278.31 231.26 281.65 231.87 281.35C232.48 281.05 228.83 278.01 227.92 275.27C227.92 275.27 230.05 278.31 230.65 278C231.26 277.7 229.74 277.09 228.22 273.44C228.22 273.44 229.13 273.44 228.83 272.83C228.53 272.22 227.61 270.7 226.86 268.73C226.62 268.1 225.04 272.98 224.13 274.5C223.22 276.02 222.91 276.32 224.43 275.41C224.43 275.41 224.13 278.14 221.39 281.79C219.51 284.29 218.66 284.52 221.39 283.92C221.39 283.92 220.48 285.44 220.78 285.74C221.08 286.04 223.21 284.52 223.21 284.52C223.21 284.52 222.3 287.86 219.56 289.99C219.4 290.11 219.26 290.23 219.13 290.33C217.19 289.87 214.66 289.05 212.29 287.41C212.29 287.41 216.31 286.96 218.09 285.62C219.88 284.28 214.97 285.17 214.97 285.17C214.97 285.17 219.43 282.94 219.88 282.05C220.33 281.16 214.97 283.84 211.4 284.28L210.95 278.03C210.95 278.03 215.41 277.14 216.75 276.24C218.09 275.35 213.18 276.24 213.18 276.24C213.18 276.24 220.32 273.12 220.32 272.22C220.32 271.33 215.41 274.01 212.73 274.01C212.73 274.01 215.85 269.55 215.85 268.65C215.85 267.76 211.39 272.67 211.39 272.67V265.08C211.39 265.08 214.51 260.17 214.96 259.28C215.41 258.39 210.94 262.85 210.94 262.85C210.94 262.85 214.06 258.39 214.06 257.94C214.06 257.49 211.38 259.28 211.38 259.28C211.38 259.28 210.93 249.02 210.26 247.45C209.87 246.53 209.59 253.03 209.59 253.03C209.59 253.03 208.25 251.24 207.8 250.8C207.35 250.35 209.14 256.16 209.14 256.16C209.14 256.16 207.35 254.82 206.91 254.82C206.46 254.82 208.25 258.39 208.25 258.39V264.19C208.25 264.19 207.36 261.96 206.46 261.51C205.57 261.06 208.25 271.77 208.25 271.77C208.25 271.77 205.57 264.63 205.13 265.08C204.68 265.53 205.13 269.54 205.13 269.54C205.13 269.54 200.67 266.86 200.22 267.31C199.77 267.76 204.68 271.33 207.81 276.24C207.81 276.24 201.56 271.33 200.67 270.88C199.78 270.43 203.35 274.9 203.35 274.9C203.35 274.9 199.78 273.56 199.33 274.01C198.88 274.46 206.92 279.81 206.92 279.81C206.92 279.81 201.12 278.92 200.67 279.36C200.22 279.81 206.92 281.59 206.92 281.59V285.61C206.92 285.61 202.46 283.82 201.56 283.38C200.67 282.93 203.79 285.61 203.79 285.61C203.79 285.61 201.11 286.5 196.65 285.61C195.27 285.33 196.2 287.4 205.13 287.84C205.13 287.84 204.24 289.18 200.67 290.07C197.1 290.96 197.99 291.86 197.99 291.86C197.99 291.86 193.97 293.2 192.19 293.2C190.4 293.2 190.85 294.54 202.45 293.2C202.45 293.2 199.33 294.54 195.76 294.99C192.19 295.44 196.21 296.33 202.01 295.44C202.01 295.44 201.12 297.23 198.44 297.67C195.79 298.11 196.21 298.99 201.86 298.57C198.49 300.19 194.58 300.18 190.55 299.84C189.27 298.7 187.7 297 186.59 294.5C186.59 294.5 190.69 296.55 191.27 296.55C191.86 296.55 188.05 293.92 187.46 293.33C187.46 293.33 193.32 295.67 193.9 295.38C194.49 295.09 186.58 291.57 185.7 289.23C185.7 289.23 189.8 290.4 190.38 290.4C190.97 290.4 188.92 288.94 188.92 288.94C188.92 288.94 191.26 288.94 191.85 288.65C192.44 288.36 185.7 287.19 184.53 284.26C184.53 284.26 188.63 286.6 189.51 286.31C190.39 286.02 186.29 284.55 184.24 280.45C184.24 280.45 186 281.62 186.29 281.62C186.58 281.62 183.95 277.81 183.95 277.81C183.95 277.81 184.54 278.1 184.54 277.22C184.54 276.34 182.78 274 182.78 274C182.78 274 185.71 277.22 186.29 276.93C186.88 276.64 183.36 273.71 182.48 271.07C182.48 271.07 184.53 274 185.11 273.7C185.7 273.41 184.23 272.82 182.77 269.31C182.77 269.31 183.65 269.31 183.36 268.72C183.07 268.13 182.19 266.67 181.46 264.77C181.22 264.16 179.7 268.87 178.83 270.33C177.95 271.79 177.66 272.09 179.12 271.21C179.12 271.21 178.83 273.84 176.19 277.36C174.38 279.77 173.56 279.99 176.19 279.41C176.19 279.41 175.31 280.87 175.6 281.17C175.89 281.46 177.94 280 177.94 280C177.94 280 177.06 283.22 174.43 285.27C171.8 287.32 173.84 286.73 173.84 286.73L172.44 288.41C172.42 288.44 172.44 288.47 172.47 288.46C172.98 288.32 175.41 287.57 178.52 284.97C178.52 284.97 175.74 288.63 171.35 290.09C166.96 291.55 173.11 290.68 173.11 290.68C173.11 290.68 172.52 291.56 173.11 291.56C173.7 291.56 176.04 291.56 179.26 289.51C179.26 289.51 174.87 293.9 170.77 293.9C166.67 293.9 168.14 294.78 170.48 294.78C170.48 294.78 168.72 296.54 174.87 295.37C174.87 295.37 171.36 297.42 169.89 298C168.43 298.59 171.35 298.59 171.35 298.59C171.35 298.59 167.84 299.47 167.54 299.76C167.25 300.05 171.05 300.05 174.57 298.88C174.57 298.88 172.81 301.22 169.01 301.81C168.45 301.9 167.96 301.97 167.52 302.03C167.1 301.69 166.66 301.38 166.66 301.38C166.66 301.38 169.09 301.38 169.7 301.08C170.25 300.8 164.55 299.78 162.58 297.32C162.57 297.2 162.57 297.13 162.57 297.13C162.56 297.18 162.55 297.22 162.54 297.27C162.36 297.03 162.21 296.78 162.1 296.52C162.1 296.52 166.35 298.95 167.26 298.65C168.17 298.35 163.92 296.83 161.79 292.57C161.79 292.57 163.61 293.79 163.92 293.79C164.22 293.79 161.49 289.84 161.49 289.84C161.49 289.84 162.1 290.14 162.1 289.23C162.1 288.32 160.28 285.89 160.28 285.89C160.28 285.89 163.32 289.23 163.93 288.93C164.54 288.63 160.89 285.59 159.98 282.85C159.98 282.85 162.11 285.89 162.71 285.58C163.32 285.28 161.8 284.67 160.28 281.02C160.28 281.02 161.19 281.02 160.89 280.41C160.59 279.8 159.67 278.28 158.92 276.31C158.68 275.68 157.1 280.56 156.19 282.08C155.28 283.6 154.97 283.9 156.49 282.99C156.49 282.99 156.19 285.72 153.45 289.37C151.57 291.87 150.72 292.1 153.45 291.5C153.45 291.5 152.54 293.02 152.84 293.32C153.14 293.62 155.27 292.1 155.27 292.1C155.27 292.1 154.36 295.44 151.62 297.57C148.89 299.7 151.01 299.09 151.01 299.09L149.56 300.83C149.54 300.86 149.56 300.9 149.59 300.89C150.12 300.75 152.64 299.96 155.87 297.27C155.87 297.27 152.98 301.07 148.43 302.59C147.85 302.78 147.45 302.94 147.19 303.06C146.28 301.6 145.3 300.07 145.18 299.83C145.18 299.83 147.87 300.56 148.11 300.32C148.35 300.08 144.45 296.17 144.45 296.17C144.45 296.17 145.92 296.9 146.65 296.9C147.38 296.9 142.99 291.28 142.99 291.28C142.99 291.28 143.97 291.28 142.26 289.08C141.59 288.22 139.33 283.95 139.33 283.95C139.33 283.95 141.04 285.66 141.28 285.42C141.52 285.18 139.08 280.05 139.08 280.05C139.08 280.05 139.57 281.03 140.06 281.27C140.55 281.51 138.59 275.65 138.11 272.72C138.11 272.72 139.09 274.43 139.33 274.43C139.57 274.43 138.35 269.3 138.35 269.3C138.35 269.3 139.08 270.77 139.33 270.77C139.57 270.77 137.62 265.89 137.13 264.91C137.13 264.91 138.11 265.64 138.6 265.64C139.03 265.64 136.99 262.6 136.25 258.96C136.21 258.76 135.92 258.77 135.9 258.97C135.73 260.56 135.4 263.04 134.81 264.54C133.71 267.35 135.66 265.15 135.66 265.15C135.66 265.15 133.1 270.89 132.85 271.38C132.61 271.87 133.83 271.38 133.83 271.38L132.98 273.73C132.95 273.82 133.06 273.9 133.13 273.84L134.32 272.85C134.32 272.85 132.12 278.47 131.39 279.93C130.66 281.4 130.66 282.13 131.88 280.66C131.88 280.66 130.17 285.54 129.68 286.77C129.19 287.99 131.15 286.28 131.15 286.28C131.15 286.28 129.93 288.23 130.17 288.48C130.41 288.72 130.9 288.48 130.9 288.48C130.9 288.48 127.72 295.56 126.26 298.01C124.79 300.45 124.55 300.7 126.26 300.21C126.26 300.21 125.16 303.51 124.67 304.24C124.18 304.97 126.01 303.63 126.01 303.63C126.01 303.63 125.64 304.68 125.12 305.96C120.64 303.42 116.23 300.45 112.16 297.45C112.31 297.3 112.18 297.25 111.85 297.22C110.67 296.34 109.51 295.47 108.39 294.6C109.6 294.71 110.67 294.76 111 294.65C111.91 294.35 106.14 293.74 103.4 290.4C103.4 290.4 107.35 292.22 107.96 291.92C108.57 291.62 104.01 289.79 101.58 284.32C101.58 284.32 105.83 286.45 106.44 286.45C107.05 286.45 103.1 283.72 102.49 283.11C102.49 283.11 108.57 285.54 109.17 285.24C109.78 284.94 101.57 281.29 100.66 278.86C100.66 278.86 104.91 280.08 105.52 280.08C106.13 280.08 104 278.56 104 278.56C104 278.56 106.43 278.56 107.04 278.26C107.65 277.96 100.66 276.74 99.44 273.7C99.44 273.7 103.69 276.13 104.6 275.83C105.51 275.53 101.26 274.01 99.13 269.75C99.13 269.75 100.95 270.97 101.26 270.97C101.57 270.97 98.83 267.02 98.83 267.02C98.83 267.02 99.44 267.32 99.44 266.41C99.44 265.5 97.62 263.07 97.62 263.07C97.62 263.07 100.66 266.41 101.27 266.11C101.88 265.81 98.23 262.77 97.32 260.03C97.32 260.03 99.45 263.07 100.05 262.76C100.66 262.46 99.14 261.85 97.62 258.2C97.62 258.2 98.53 258.2 98.23 257.59C97.93 256.98 97.01 255.46 96.26 253.49C96.02 252.86 94.44 257.74 93.53 259.26C92.62 260.78 92.31 261.08 93.83 260.17C93.83 260.17 93.53 262.9 90.79 266.55C88.91 269.05 88.06 269.28 90.79 268.68C90.79 268.68 89.88 270.2 90.18 270.5C90.48 270.8 92.61 269.28 92.61 269.28C92.61 269.28 91.7 272.62 88.96 274.75C86.23 276.88 88.35 276.27 88.35 276.27L86.9 278.01C86.88 278.04 86.9 278.08 86.93 278.07C87.46 277.93 89.98 277.14 93.21 274.45C93.21 274.45 90.32 278.25 85.77 279.77C81.21 281.29 87.59 280.38 87.59 280.38C87.59 280.38 87.47 280.57 87.39 280.78L79.14 280.83C78.36 279.87 77.6 278.71 76.97 277.31C76.97 277.31 81.22 279.44 81.83 279.44C82.44 279.44 78.49 276.71 77.88 276.1C77.88 276.1 83.96 278.53 84.56 278.23C85.17 277.93 76.96 274.28 76.05 271.85C76.05 271.85 80.3 273.07 80.91 273.07C81.52 273.07 79.39 271.55 79.39 271.55C79.39 271.55 81.82 271.55 82.43 271.25C83.04 270.95 76.05 269.73 74.83 266.69C74.83 266.69 79.08 269.12 79.99 268.82C80.9 268.52 76.65 267 74.52 262.74C74.52 262.74 76.34 263.96 76.65 263.96C76.96 263.96 74.22 260.01 74.22 260.01C74.22 260.01 74.83 260.31 74.83 259.4C74.83 258.49 73.01 256.06 73.01 256.06C73.01 256.06 76.05 259.4 76.66 259.1C77.27 258.8 73.62 255.76 72.71 253.02C72.71 253.02 74.84 256.06 75.44 255.75C76.05 255.45 74.53 254.84 73.01 251.19C73.01 251.19 73.92 251.19 73.62 250.58C73.32 249.97 72.4 248.45 71.65 246.48C71.41 245.85 69.83 250.73 68.92 252.25C68.01 253.77 67.7 254.07 69.22 253.16C69.22 253.16 68.92 255.89 66.18 259.54C64.3 262.04 63.45 262.27 66.18 261.67C66.18 261.67 65.27 263.19 65.57 263.49C65.87 263.79 68 262.27 68 262.27C68 262.27 67.09 265.61 64.35 267.74C61.62 269.87 63.74 269.26 63.74 269.26L62.29 271C62.27 271.03 62.29 271.07 62.32 271.06C62.85 270.92 65.37 270.13 68.6 267.44C68.6 267.44 65.71 271.24 61.16 272.76C56.6 274.28 62.98 273.37 62.98 273.37C62.98 273.37 62.37 274.28 62.98 274.28C63.59 274.28 66.02 274.28 69.36 272.15C69.36 272.15 64.8 276.71 60.55 276.71C56.3 276.71 57.82 277.62 60.25 277.62C60.25 277.62 58.43 279.44 64.81 278.23C64.81 278.23 61.16 280.36 59.65 280.96C58.13 281.57 61.17 281.57 61.17 281.57C61.17 281.57 57.52 282.48 57.22 282.79C56.92 283.09 60.87 283.09 64.51 281.88C64.51 281.88 62.69 284.31 58.74 284.92C54.79 285.53 53.88 285.53 54.18 285.83C54.48 286.13 59.65 285.83 59.65 285.83C59.65 285.83 57.22 286.44 57.22 286.74C57.22 287.04 61.78 286.74 63.9 285.83C63.9 285.83 60.56 289.48 57.52 290.39C54.48 291.3 56 291.6 58.43 291.3C58.43 291.3 57.52 292.21 62.99 291.3C62.99 291.3 59.04 292.82 58.13 293.12C57.22 293.42 59.35 294.03 62.08 293.12C62.08 293.12 57.22 296.16 55.4 296.46C53.58 296.76 54.18 297.68 56.92 297.07C56.92 297.07 55.28 298.29 55.7 298.29C57.83 298.29 59.65 297.99 62.08 296.47C62.08 296.47 59.65 298.9 57.52 299.81C55.39 300.72 59.65 300.42 59.65 300.42C59.65 300.42 58.66 301.08 57.28 301.67C55.92 301.31 53.14 300.69 50.67 299.45C50.67 299.45 54.01 300.36 55.23 300.06C56.45 299.76 49.46 299.15 44.6 291.86C44.6 291.86 46.42 292.77 47.33 292.47C48.24 292.17 44.6 290.95 43.08 287.91C43.08 287.91 46.12 290.34 49.46 291.25C52.8 292.16 54.62 291.55 54.62 291.25C54.62 290.95 52.49 291.25 47.94 288.52C47.94 288.52 50.37 289.13 51.89 289.13C53.41 289.13 53.41 288.22 53.41 288.22C53.41 288.22 55.54 287.92 56.14 287.61C56.75 287.31 50.67 287.91 43.08 283.96C43.08 283.96 46.12 285.18 49.46 285.18C52.8 285.18 51.59 285.18 47.33 281.84C47.33 281.84 49.46 282.75 50.06 282.14C50.06 282.14 51.58 282.14 52.19 281.53C52.8 280.92 47.94 282.14 43.08 278.19C43.08 278.19 46.73 278.8 47.94 278.49C49.16 278.19 43.69 277.58 42.17 275.45C42.17 275.45 47.87 278.09 50.98 276.36C53.71 274.84 49.76 276.36 46.42 274.54C46.42 274.54 47.03 273.63 43.38 272.41C43.38 272.41 49.76 273.32 50.67 273.02C51.58 272.72 45.81 272.11 43.07 268.77C43.07 268.77 47.02 270.59 47.63 270.29C48.24 269.99 43.68 268.16 41.25 262.69C41.25 262.69 45.5 264.82 46.11 264.82C46.72 264.82 42.77 262.09 42.16 261.48C42.16 261.48 48.24 263.91 48.84 263.61C49.45 263.31 41.24 259.66 40.33 257.23C40.33 257.23 44.58 258.45 45.19 258.45C45.8 258.45 43.67 256.93 43.67 256.93C43.67 256.93 46.1 256.93 46.71 256.63C47.32 256.33 40.33 255.11 39.11 252.07C39.11 252.07 43.36 254.5 44.27 254.2C45.18 253.9 40.93 252.38 38.8 248.12C38.8 248.12 40.62 249.34 40.93 249.34C41.23 249.34 38.5 245.39 38.5 245.39C38.5 245.39 39.11 245.69 39.11 244.78C39.11 243.87 37.29 241.44 37.29 241.44C37.29 241.44 40.33 244.78 40.94 244.48C41.55 244.18 37.9 241.14 36.99 238.4C36.99 238.4 39.12 241.44 39.72 241.13C40.33 240.83 38.81 240.22 37.29 236.57C37.29 236.57 38.2 236.57 37.9 235.96C37.6 235.35 36.68 233.83 35.93 231.86C35.69 231.23 34.11 236.11 33.2 237.63C32.29 239.15 31.98 239.45 33.5 238.54C33.5 238.54 33.2 241.27 30.46 244.92C28.58 247.42 27.73 247.65 30.46 247.05C30.46 247.05 29.55 248.57 29.85 248.87C30.15 249.17 32.28 247.65 32.28 247.65C32.28 247.65 31.37 250.99 28.63 253.12C25.9 255.25 28.02 254.64 28.02 254.64L26.57 256.38C26.55 256.41 26.57 256.45 26.6 256.44C27.13 256.3 29.65 255.51 32.88 252.82C32.88 252.82 29.99 256.62 25.44 258.14C20.88 259.66 27.26 258.75 27.26 258.75C27.26 258.75 26.65 259.66 27.26 259.66C27.87 259.66 30.3 259.66 33.64 257.53C33.64 257.53 29.08 262.09 24.83 262.09C20.58 262.09 22.1 263 24.53 263C24.53 263 22.71 264.82 29.09 263.61C29.09 263.61 25.44 265.74 23.93 266.34C22.41 266.95 25.45 266.95 25.45 266.95C25.45 266.95 21.8 267.86 21.5 268.17C21.2 268.47 25.15 268.47 28.79 267.26C28.79 267.26 26.97 269.69 23.02 270.3C19.07 270.91 18.16 270.91 18.46 271.21C18.76 271.51 23.93 271.21 23.93 271.21C23.93 271.21 21.5 271.82 21.5 272.12C21.5 272.42 26.06 272.12 28.18 271.21C28.18 271.21 24.84 274.86 21.8 275.77C18.76 276.68 20.28 276.99 22.71 276.68C22.71 276.68 21.8 277.59 27.27 276.68C27.27 276.68 23.32 278.2 22.41 278.5C21.5 278.8 23.63 279.41 26.36 278.5C26.36 278.5 21.5 281.54 19.68 281.84C17.86 282.14 18.46 283.06 21.2 282.45C21.2 282.45 19.56 283.67 19.98 283.67C22.11 283.67 23.93 283.37 26.36 281.85C26.36 281.85 23.93 284.28 21.8 285.19C19.67 286.1 23.93 285.8 23.93 285.8C23.93 285.8 22.11 287.02 19.98 287.62C17.85 288.23 19.68 288.53 19.68 288.53C19.68 288.53 18.16 289.14 16.95 289.44C15.73 289.74 21.81 290.05 26.37 288.53C26.37 288.53 22.1 291.06 20.9 291.26C19.08 291.56 21.51 292.48 26.37 290.65C26.37 290.65 24.55 292.17 26.37 292.17C26.37 292.17 23.64 294.6 20.6 295.21C17.56 295.82 16.95 296.12 18.47 296.43C18.47 296.43 17.25 297.04 15.13 297.34C13 297.64 14.22 298.86 21.21 297.64C21.21 297.64 19.39 298.55 18.48 299.16C17.57 299.77 26.08 298.25 26.08 298.25C26.08 298.25 20.92 303.11 17.57 304.93C13.51 307.14 12.02 307.4 17.57 306.45C17.57 306.45 16.24 306.98 15.02 307.52C9.02001 307.22 4.48001 307.13 4.48001 307.13V464.63L754 462.93V311.28C754 311.28 649.19 312.45 645.09 311.28ZM22.58 308.03C22.01 307.99 21.44 307.95 20.87 307.91C21.76 307.76 22.63 307.59 23.4 307.41C23.4 307.42 23.08 307.66 22.58 308.03ZM53.21 319.7C52.18 318.85 51.19 317.98 50.22 317.14H56.96C55.72 318.11 54.44 319.03 53.34 319.63C53.3 319.65 53.26 319.67 53.21 319.7ZM52.26 310.45C52.26 310.45 52.97 310.8 53.92 311.26C53.75 311.33 53.51 311.41 53.22 311.51C52.89 311.17 52.57 310.82 52.26 310.45ZM54.41 312.7C55.02 312.63 55.7 312.54 56.45 312.42C56.52 312.45 56.58 312.48 56.65 312.5C56.28 312.69 55.67 313.01 55.1 313.33C54.87 313.13 54.64 312.92 54.41 312.7ZM57.73 323.1C57.44 322.91 57.15 322.71 56.86 322.51C57.66 322.37 58.43 322.22 59.12 322.06C59.12 322.05 58.53 322.49 57.73 323.1ZM58.41 315.97C57.66 315.44 56.73 314.73 55.74 313.9C57.98 313.64 61.85 312.95 61.85 312.95C61.85 312.95 60.33 314.37 58.41 315.97ZM62.16 305.34C62.16 305.34 60.34 306.86 62.16 306.86C62.16 306.86 59.43 309.29 56.39 309.9C55.96 309.99 55.59 310.06 55.26 310.14C53.36 308.64 51.13 306.88 49.84 305.59C49.84 305.59 55.31 309.24 56.52 309.24C57.74 309.24 50.75 304.08 49.23 301.64C49.23 301.64 52.94 302.26 55.77 302.31C53.66 302.92 55.47 303.22 55.47 303.22C55.47 303.22 53.95 303.83 52.74 304.13C51.52 304.43 57.6 304.74 62.16 303.22C62.16 303.22 57.89 305.75 56.69 305.95C54.86 306.26 57.3 307.17 62.16 305.34ZM584.54 287.7C584.54 287.7 584.22 288.12 583.64 288.7C583.56 288.66 583.49 288.61 583.41 288.57C583.78 288.31 584.15 288.03 584.54 287.7ZM566.22 288.44C566.18 288.44 566.15 288.43 566.11 288.43C566.11 288.42 566.1 288.41 566.1 288.4C566.1 288.4 566.15 288.41 566.22 288.44ZM393.34 314.92C393.03 314.97 392.66 315.04 392.24 315.15C392.07 314.93 391.93 314.72 391.86 314.51C391.86 314.5 392.52 314.69 393.34 314.92ZM273.35 301.63C273.24 301.66 273.13 301.69 273.02 301.72C272.98 301.65 272.95 301.58 272.92 301.51C272.92 301.51 273.08 301.56 273.35 301.63ZM222.21 291.02C222.73 290.66 223.28 290.24 223.85 289.77C223.85 289.77 223.17 290.66 221.97 291.74C221.78 291.68 221.59 291.63 221.4 291.58C221.5 291.56 221.61 291.53 221.7 291.5C222.6 291.25 222.68 291.14 222.21 291.02ZM212.61 291.19C212.47 291.25 212.33 291.32 212.19 291.39C212.08 291.28 211.98 291.18 211.88 291.06C211.88 291.06 212.15 291.12 212.61 291.19ZM167.59 302.9C167.89 302.96 168.12 303.01 168.23 303.01C168.34 303.01 168.36 302.96 168.32 302.88C168.51 302.87 168.68 302.86 168.85 302.86C167.45 303.3 166.36 303.26 165.52 302.92C166.09 302.93 166.85 302.92 167.59 302.9ZM165.65 302.41C165.27 302.47 165.02 302.51 164.86 302.56C164.63 302.4 164.43 302.23 164.24 302.03C164.64 302.14 165.14 302.28 165.65 302.41ZM150.76 312.74C150.68 312.57 150.6 312.4 150.5 312.2C150.94 312.09 151.39 311.96 151.83 311.81C151.83 311.81 151.54 312.19 150.95 312.69C150.88 312.71 150.82 312.73 150.76 312.74ZM149.27 309.77C149.07 309.38 148.87 308.98 148.67 308.59C149.4 308.6 150.49 308.48 152.13 308.17C152.13 308.17 150.71 309 149.27 309.77ZM149.05 312.52C149.12 312.51 149.18 312.49 149.25 312.48C149.4 312.62 149.58 312.79 149.77 312.96C149.61 312.99 149.44 313.02 149.27 313.04C149.2 312.87 149.12 312.7 149.05 312.52ZM148.9 306.04C149.01 306.04 148.32 304.88 147.5 303.57C148.5 303.56 150.31 303.3 150.31 303.3C150.31 303.3 149.7 304.21 150.31 304.21C150.92 304.21 153.35 304.21 156.69 302.08C156.69 302.08 152.13 306.64 147.88 306.64C147.83 306.64 147.79 306.64 147.75 306.64C147.53 306.15 147.33 305.69 147.19 305.3C147.19 305.31 148.65 306.04 148.9 306.04ZM94.04 279.26C94.04 279.26 93.32 279.98 92.19 280.84L90.76 280.85C91.7 280.53 92.81 280.04 94.04 279.26Z" fill="url(#paint7_linear_1_2)"/>
<path d="M650.5 369.13C637.76 369.59 639.82 360.47 629.28 360.47C621.12 360.47 612.96 366.08 604.26 369.44C602.88 369.09 600.65 368.35 597.5 366.46C597.5 366.46 600.58 367.23 602.5 367.23C604.42 367.23 604.42 366.08 604.42 366.08C604.42 366.08 607.11 365.7 607.88 365.31C608.65 364.93 600.95 365.69 591.33 360.69C591.33 360.69 595.18 362.23 599.41 362.23C603.64 362.23 602.1 362.23 596.72 358C596.72 358 599.41 359.15 600.18 358.38C600.18 358.38 602.1 358.38 602.87 357.61C603.64 356.84 597.48 358.38 591.33 353.38C591.33 353.38 595.95 354.15 597.49 353.76C599.03 353.38 592.1 352.61 590.18 349.91C590.18 349.91 597.4 353.25 601.34 351.06C604.8 349.14 599.8 351.06 595.57 348.75C595.57 348.75 596.34 347.6 591.72 346.06C591.72 346.06 599.8 347.21 600.96 346.83C602.11 346.45 594.8 345.68 591.34 341.44C591.34 341.44 596.34 343.75 597.11 343.36C597.88 342.98 592.11 340.67 589.03 333.74C589.03 333.74 594.42 336.43 595.19 336.43C595.96 336.43 590.96 332.97 590.19 332.2C590.19 332.2 597.89 335.28 598.66 334.89C599.43 334.51 589.04 329.89 587.88 326.81C587.88 326.81 593.27 328.35 594.04 328.35C594.81 328.35 592.12 326.43 592.12 326.43C592.12 326.43 595.2 326.43 595.97 326.04C596.74 325.66 587.89 324.12 586.35 320.27C586.35 320.27 591.74 323.35 592.89 322.96C594.04 322.58 588.66 320.65 585.96 315.26C585.96 315.26 588.27 316.8 588.65 316.8C589.03 316.8 585.57 311.8 585.57 311.8C585.57 311.8 586.34 312.18 586.34 311.03C586.34 309.88 584.03 306.8 584.03 306.8C584.03 306.8 587.88 311.03 588.65 310.65C589.42 310.27 584.8 306.42 583.65 302.95C583.65 302.95 586.34 306.8 587.11 306.41C587.88 306.03 585.96 305.26 584.03 300.64C584.03 300.64 585.18 300.64 584.8 299.87C584.42 299.1 583.26 297.18 582.3 294.67C581.99 293.87 579.99 300.06 578.84 301.98C577.69 303.9 577.3 304.29 579.22 303.13C579.22 303.13 578.84 306.59 575.37 311.21C572.99 314.38 571.91 314.67 575.37 313.9C575.37 313.9 574.22 315.82 574.6 316.21C574.98 316.59 577.68 314.67 577.68 314.67C577.68 314.67 576.53 318.9 573.06 321.6C569.6 324.29 572.29 323.52 572.29 323.52L570.45 325.72C570.42 325.75 570.45 325.8 570.49 325.79C571.16 325.61 574.35 324.62 578.44 321.21C578.44 321.21 574.78 326.02 569.01 327.94C563.24 329.86 571.32 328.71 571.32 328.71C571.32 328.71 570.58 329.83 571.29 329.86C569.92 329.81 567.58 329.71 565.43 328.54C565.43 328.54 566.21 327.37 561.52 325.8C561.52 325.8 569.73 326.97 570.9 326.58C572.07 326.19 564.64 325.41 561.13 321.11C561.13 321.11 566.21 323.46 566.99 323.06C567.77 322.67 561.91 320.32 558.78 313.29C558.78 313.29 564.25 316.03 565.04 316.03C565.83 316.03 560.74 312.51 559.96 311.73C559.96 311.73 567.78 314.86 568.56 314.47C569.34 314.08 558.79 309.39 557.61 306.26C557.61 306.26 563.08 307.82 563.87 307.82C564.65 307.82 561.92 305.87 561.92 305.87C561.92 305.87 565.05 305.87 565.83 305.48C566.61 305.09 557.62 303.53 556.06 299.62C556.06 299.62 561.53 302.75 562.71 302.36C563.88 301.97 558.41 300.01 555.67 294.54C555.67 294.54 558.02 296.1 558.41 296.1C558.8 296.1 555.28 291.02 555.28 291.02C555.28 291.02 556.06 291.41 556.06 290.24C556.06 289.07 553.71 285.94 553.71 285.94C553.71 285.94 557.62 290.24 558.4 289.85C559.18 289.46 554.49 285.55 553.32 282.03C553.32 282.03 556.06 285.94 556.84 285.55C557.62 285.16 555.67 284.38 553.71 279.69C553.71 279.69 554.88 279.69 554.49 278.91C554.1 278.13 552.93 276.17 551.95 273.63C551.64 272.81 549.6 279.1 548.43 281.06C547.26 283.01 546.87 283.41 548.82 282.23C548.82 282.23 548.43 285.75 544.91 290.44C542.5 293.66 541.39 293.96 544.91 293.18C544.91 293.18 543.74 295.13 544.13 295.53C544.52 295.92 547.26 293.97 547.26 293.97C547.26 293.97 546.09 298.27 542.57 301.01C539.05 303.75 541.79 302.96 541.79 302.96L539.92 305.2C539.89 305.23 539.92 305.28 539.96 305.27C540.64 305.09 543.88 304.08 548.04 300.61C548.04 300.61 544.33 305.5 538.46 307.45C532.6 309.4 540.81 308.23 540.81 308.23C540.81 308.23 540.03 309.4 540.81 309.4C541.59 309.4 544.72 309.4 549.02 306.66C549.02 306.66 543.16 312.52 537.68 312.52C532.21 312.52 534.16 313.69 537.29 313.69C537.29 313.69 534.94 316.04 543.15 314.47C543.15 314.47 538.46 317.21 536.5 317.99C534.55 318.77 538.45 318.77 538.45 318.77C538.45 318.77 533.76 319.94 533.37 320.33C532.98 320.72 538.06 320.72 542.75 319.16C542.75 319.16 540.4 322.29 535.32 323.07C530.24 323.85 529.06 323.85 529.46 324.24C529.85 324.63 536.5 324.24 536.5 324.24C536.5 324.24 533.37 325.02 533.37 325.41C533.37 325.8 539.23 325.41 541.97 324.24C541.97 324.24 537.67 328.93 533.76 330.1C529.85 331.27 531.81 331.66 534.93 331.27C534.93 331.27 533.76 332.44 540.79 331.27C540.79 331.27 535.71 333.22 534.53 333.62C533.36 334.01 536.09 334.79 539.61 333.62C539.61 333.62 533.35 337.53 531.01 337.92C528.66 338.31 529.45 339.48 532.96 338.7C532.96 338.7 530.84 340.26 531.4 340.26C534.14 340.26 536.48 339.87 539.61 337.91C539.61 337.91 536.48 341.04 533.75 342.21C531.01 343.38 536.49 342.99 536.49 342.99C536.49 342.99 534.14 344.55 531.41 345.34C528.67 346.12 531.02 346.51 531.02 346.51C531.02 346.51 529.07 347.29 527.5 347.68C525.94 348.07 533.76 348.46 539.62 346.51C539.62 346.51 534.13 349.77 532.58 350.03C530.23 350.42 533.36 351.59 539.62 349.25C539.62 349.25 537.27 351.2 539.62 351.2C539.62 351.2 536.1 354.33 532.19 355.11C528.28 355.89 527.5 356.28 529.45 356.67C529.45 356.67 527.89 357.45 525.15 357.84C522.41 358.23 523.98 359.79 532.97 358.23C532.97 358.23 530.62 359.4 529.45 360.18C528.28 360.96 539.22 359.01 539.22 359.01C539.22 359.01 532.57 365.27 528.27 367.61C523.05 370.46 521.13 370.79 528.27 369.56C528.27 369.56 522.41 371.91 522.41 372.3C522.41 372.69 530.62 371.91 535.7 370.74C535.7 370.74 529.44 375.43 527.88 376.6C526.32 377.77 527.88 378.55 527.88 378.55C527.88 378.55 526.16 380.1 524.09 381.48C512.84 380.57 496.92 371.97 493.42 371.53C491.94 371.34 488.8 371.92 485.03 372.84C482.38 371.33 479.18 368.89 476.48 364.85C476.48 364.85 478.83 366.02 480 365.63C481.17 365.24 476.48 363.68 474.53 359.77C474.53 359.77 478.44 362.9 482.74 364.07C487.04 365.24 489.39 364.46 489.39 364.07C489.39 363.68 486.65 364.07 480.79 360.55C480.79 360.55 483.92 361.33 485.87 361.33C487.82 361.33 487.82 360.16 487.82 360.16C487.82 360.16 490.56 359.77 491.34 359.38C492.12 358.99 484.3 359.77 474.53 354.69C474.53 354.69 478.44 356.25 482.74 356.25C487.04 356.25 485.48 356.25 480 351.95C480 351.95 482.74 353.12 483.52 352.34C483.52 352.34 485.47 352.34 486.26 351.56C487.04 350.78 480.79 352.34 474.53 347.26C474.53 347.26 479.22 348.04 480.79 347.65C482.35 347.26 475.32 346.48 473.36 343.74C473.36 343.74 480.7 347.13 484.7 344.91C488.22 342.96 483.14 344.91 478.84 342.56C478.84 342.56 479.62 341.39 474.93 339.82C474.93 339.82 483.14 340.99 484.31 340.6C485.48 340.21 478.05 339.43 474.54 335.13C474.54 335.13 479.62 337.48 480.4 337.08C481.18 336.69 475.32 334.34 472.19 327.31C472.19 327.31 477.66 330.05 478.45 330.05C479.23 330.05 474.15 326.53 473.37 325.75C473.37 325.75 481.19 328.88 481.97 328.49C482.75 328.1 472.2 323.41 471.02 320.28C471.02 320.28 476.49 321.84 477.28 321.84C478.06 321.84 475.33 319.89 475.33 319.89C475.33 319.89 478.46 319.89 479.24 319.5C480.02 319.11 471.03 317.55 469.47 313.64C469.47 313.64 474.94 316.77 476.12 316.38C477.29 315.99 471.82 314.03 469.08 308.56C469.08 308.56 471.43 310.12 471.82 310.12C472.21 310.12 468.69 305.04 468.69 305.04C468.69 305.04 469.47 305.43 469.47 304.26C469.47 303.09 467.12 299.96 467.12 299.96C467.12 299.96 471.03 304.26 471.81 303.87C472.59 303.48 467.9 299.57 466.73 296.05C466.73 296.05 469.47 299.96 470.25 299.57C471.03 299.18 469.08 298.4 467.12 293.71C467.12 293.71 468.29 293.71 467.9 292.93C467.51 292.15 466.34 290.19 465.36 287.65C465.05 286.83 463.01 293.12 461.84 295.08C460.67 297.03 460.28 297.43 462.23 296.25C462.23 296.25 461.84 299.77 458.32 304.46C455.91 307.68 454.8 307.98 458.32 307.2C458.32 307.2 457.15 309.15 457.54 309.55C457.93 309.94 460.67 307.99 460.67 307.99C460.67 307.99 459.5 312.29 455.98 315.03C452.46 317.77 455.2 316.98 455.2 316.98L453.33 319.22C453.3 319.25 453.33 319.3 453.37 319.29C454.05 319.11 457.29 318.1 461.45 314.63C461.45 314.63 457.74 319.52 451.87 321.47C446.01 323.42 454.22 322.25 454.22 322.25C454.22 322.25 453.44 323.42 454.22 323.42C455 323.42 458.13 323.42 462.43 320.68C462.43 320.68 456.57 326.54 451.09 326.54C445.62 326.54 447.57 327.71 450.7 327.71C450.7 327.71 448.35 330.06 456.56 328.49C456.56 328.49 451.87 331.23 449.91 332.01C447.96 332.79 451.86 332.79 451.86 332.79C451.86 332.79 447.17 333.96 446.78 334.35C446.39 334.74 451.47 334.74 456.16 333.18C456.16 333.18 453.81 336.31 448.73 337.09C443.65 337.87 442.47 337.87 442.87 338.26C443.26 338.65 449.91 338.26 449.91 338.26C449.91 338.26 446.78 339.04 446.78 339.43C446.78 339.82 452.64 339.43 455.38 338.26C455.38 338.26 451.08 342.95 447.17 344.12C443.26 345.29 445.22 345.68 448.34 345.29C448.34 345.29 447.17 346.46 454.2 345.29C454.2 345.29 449.12 347.24 447.94 347.64C446.77 348.03 449.5 348.81 453.02 347.64C453.02 347.64 446.76 351.55 444.42 351.94C442.07 352.33 442.86 353.5 446.37 352.72C446.37 352.72 444.25 354.28 444.81 354.28C447.55 354.28 449.89 353.89 453.02 351.93C453.02 351.93 449.89 355.06 447.16 356.23C444.42 357.4 449.9 357.01 449.9 357.01C449.9 357.01 447.55 358.57 444.82 359.36C442.08 360.14 444.43 360.53 444.43 360.53C444.43 360.53 443.86 360.76 443.09 361.03C442.46 359.75 441.9 358.54 441.57 357.63C441.57 357.63 443.39 358.54 443.69 358.54C443.99 358.54 439.44 351.56 439.14 350.95C439.14 350.95 442.48 351.86 442.78 351.56C443.08 351.26 438.23 346.4 438.23 346.4C438.23 346.4 440.05 347.31 440.96 347.31C441.87 347.31 436.41 340.33 436.41 340.33C436.41 340.33 437.62 340.33 435.5 337.6C434.67 336.53 431.86 331.23 431.86 331.23C431.86 331.23 433.98 333.35 434.29 333.05C434.59 332.75 431.56 326.37 431.56 326.37C431.56 326.37 432.17 327.58 432.77 327.89C433.38 328.19 430.95 320.91 430.34 317.27C430.34 317.27 431.55 319.39 431.86 319.39C432.16 319.39 430.65 313.02 430.65 313.02C430.65 313.02 431.56 314.84 431.86 314.84C432.16 314.84 429.74 308.77 429.13 307.56C429.13 307.56 430.34 308.47 430.95 308.47C431.49 308.47 428.96 304.7 428.04 300.17C427.99 299.92 427.63 299.93 427.6 300.19C427.39 302.17 426.98 305.25 426.25 307.11C424.88 310.6 427.31 307.87 427.31 307.87C427.31 307.87 424.12 315 423.82 315.61C423.52 316.22 425.03 315.61 425.03 315.61L423.97 318.52C423.93 318.64 424.07 318.73 424.16 318.65L425.63 317.42C425.63 317.42 422.9 324.4 421.99 326.22C421.08 328.04 421.08 328.95 422.6 327.13C422.6 327.13 420.48 333.2 419.87 334.72C419.26 336.24 421.69 334.11 421.69 334.11C421.69 334.11 420.17 336.54 420.48 336.84C420.78 337.14 421.39 336.84 421.39 336.84C421.39 336.84 417.45 345.64 415.63 348.67C413.81 351.7 413.51 352.01 415.63 351.4C415.63 351.4 414.26 355.5 413.66 356.41C413.05 357.32 415.33 355.65 415.33 355.65C415.33 355.65 413.51 360.81 411.99 363.24C410.47 365.67 407.89 367.34 411.53 366.12C411.53 366.12 410.77 369.61 408.95 371.43C407.9 372.48 407.76 372.82 408.12 372.87C403.98 375.07 398.57 379.13 398.57 379.13C398.57 379.13 388.03 377.96 384.52 379.13C381.01 380.3 375.15 377.96 371.64 379.13C369.24 379.93 364.12 376.37 358.88 373.84C358.23 373.29 357.64 372.77 357.18 372.31C357.18 372.31 362.35 375.76 363.5 375.76C364.65 375.76 358.04 370.87 356.6 368.58C356.6 368.58 361.77 369.44 364.36 369.15C366.95 368.86 362.06 368.58 358.04 366.56C358.04 366.56 361.2 367.42 362.35 367.13C363.5 366.84 356.89 366.27 352.29 359.37C352.29 359.37 354.01 360.23 354.88 359.94C355.74 359.65 352.29 358.5 350.86 355.63C350.86 355.63 353.73 357.93 356.9 358.79C360.06 359.65 361.79 359.08 361.79 358.79C361.79 358.5 359.78 358.79 355.47 356.2C355.47 356.2 357.77 356.77 359.21 356.77C360.65 356.77 360.65 355.91 360.65 355.91C360.65 355.91 362.66 355.62 363.24 355.34C363.81 355.05 358.07 355.63 350.88 351.89C350.88 351.89 353.75 353.04 356.92 353.04C360.08 353.04 358.93 353.04 354.91 349.88C354.91 349.88 356.92 350.74 357.5 350.17C357.5 350.17 358.94 350.17 359.51 349.6C360.08 349.03 355.49 350.17 350.89 346.44C350.89 346.44 354.34 347.01 355.49 346.73C356.64 346.44 351.47 345.87 350.03 343.86C350.03 343.86 355.42 346.36 358.36 344.72C360.95 343.28 357.21 344.72 354.05 343C354.05 343 354.62 342.14 351.18 340.99C351.18 340.99 357.22 341.85 358.08 341.56C358.94 341.27 353.48 340.7 350.9 337.54C350.9 337.54 354.64 339.26 355.21 338.98C355.78 338.69 351.47 336.97 349.17 331.8C349.17 331.8 353.19 333.81 353.77 333.81C354.34 333.81 350.61 331.22 350.03 330.65C350.03 330.65 355.78 332.95 356.35 332.66C356.92 332.37 349.17 328.92 348.3 326.62C348.3 326.62 352.32 327.77 352.9 327.77C353.47 327.77 351.46 326.33 351.46 326.33C351.46 326.33 353.76 326.33 354.33 326.04C354.9 325.75 348.29 324.6 347.15 321.73C347.15 321.73 351.17 324.03 352.04 323.74C352.9 323.45 348.88 322.02 346.87 317.99C346.87 317.99 348.59 319.14 348.88 319.14C349.17 319.14 346.58 315.4 346.58 315.4C346.58 315.4 347.15 315.69 347.15 314.83C347.15 313.97 345.43 311.67 345.43 311.67C345.43 311.67 348.3 314.83 348.88 314.54C349.45 314.25 346.01 311.38 345.14 308.79C345.14 308.79 347.15 311.66 347.73 311.38C348.3 311.09 346.87 310.52 345.43 307.07C345.43 307.07 346.29 307.07 346 306.5C345.71 305.93 344.85 304.49 344.13 302.62C343.9 302.02 342.41 306.64 341.54 308.08C340.68 309.52 340.39 309.8 341.83 308.94C341.83 308.94 341.54 311.53 338.96 314.98C337.18 317.35 336.37 317.57 338.96 316.99C338.96 316.99 338.1 318.43 338.39 318.71C338.68 319 340.69 317.56 340.69 317.56C340.69 317.56 339.83 320.72 337.24 322.73C334.65 324.74 336.67 324.17 336.67 324.17L335.3 325.82C335.28 325.84 335.3 325.88 335.33 325.87C335.83 325.73 338.21 324.99 341.27 322.45C341.27 322.45 338.54 326.04 334.23 327.48C329.92 328.92 335.95 328.05 335.95 328.05C335.95 328.05 335.38 328.91 335.95 328.91C336.52 328.91 338.82 328.91 341.99 326.9C341.99 326.9 337.68 331.21 333.66 331.21C329.64 331.21 331.07 332.07 333.37 332.07C333.37 332.07 331.65 333.79 337.68 332.64C337.68 332.64 334.23 334.65 332.79 335.23C331.35 335.8 334.23 335.8 334.23 335.8C334.23 335.8 330.78 336.66 330.49 336.95C330.2 337.24 333.94 337.24 337.39 336.09C337.39 336.09 335.67 338.39 331.93 338.96C331.58 339.01 331.26 339.06 330.96 339.11C330.66 338.87 330.4 338.69 330.4 338.69C330.4 338.69 332.72 338.69 333.3 338.4C333.88 338.11 327.21 336.95 326.05 334.05C326.05 334.05 330.11 336.37 330.98 336.08C331.85 335.79 327.79 334.34 325.76 330.28C325.76 330.28 327.5 331.44 327.79 331.44C328.08 331.44 325.47 327.67 325.47 327.67C325.47 327.67 326.05 327.96 326.05 327.09C326.05 326.22 324.31 323.9 324.31 323.9C324.31 323.9 327.21 327.09 327.79 326.8C328.37 326.51 324.89 323.61 324.02 321C324.02 321 326.05 323.9 326.63 323.61C327.21 323.32 325.76 322.74 324.31 319.26C324.31 319.26 325.18 319.26 324.89 318.68C324.6 318.1 323.73 316.65 323.01 314.77C322.78 314.16 321.27 318.83 320.4 320.28C319.53 321.73 319.24 322.02 320.69 321.15C320.69 321.15 320.4 323.76 317.79 327.24C316 329.63 315.18 329.85 317.79 329.27C317.79 329.27 316.92 330.72 317.21 331.01C317.5 331.3 319.53 329.85 319.53 329.85C319.53 329.85 318.66 333.04 316.05 335.07C313.44 337.1 315.47 336.52 315.47 336.52L314.09 338.18C314.07 338.21 314.09 338.24 314.12 338.23C314.63 338.09 317.03 337.34 320.11 334.78C320.11 334.78 317.36 338.4 313.01 339.85C308.66 341.3 314.75 340.43 314.75 340.43C314.75 340.43 314.17 341.3 314.75 341.3C315.33 341.3 317.65 341.3 320.84 339.27C320.84 339.27 316.49 343.62 312.43 343.62C308.37 343.62 309.82 344.49 312.14 344.49C312.14 344.49 310.4 346.23 316.49 345.07C316.49 345.07 313.01 347.1 311.56 347.68C310.11 348.26 313.01 348.26 313.01 348.26C313.01 348.26 309.53 349.13 309.24 349.42C308.95 349.71 312.72 349.71 316.2 348.55C316.2 348.55 314.46 350.87 310.69 351.45C306.92 352.03 306.05 352.03 306.34 352.32C306.63 352.61 311.56 352.32 311.56 352.32C311.56 352.32 309.24 352.9 309.24 353.19C309.24 353.48 313.59 353.19 315.62 352.32C315.62 352.32 312.43 355.8 309.53 356.67C306.63 357.54 308.08 357.83 310.4 357.54C310.4 357.54 309.53 358.41 314.75 357.54C314.75 357.54 310.98 358.99 310.11 359.28C309.24 359.57 311.27 360.15 313.88 359.28C313.88 359.28 309.24 362.18 307.5 362.47C305.76 362.76 306.34 363.63 308.95 363.05C308.95 363.05 307.38 364.21 307.79 364.21C309.82 364.21 311.56 363.92 313.88 362.47C313.88 362.47 311.56 364.79 309.53 365.66C307.5 366.53 311.56 366.24 311.56 366.24C311.56 366.24 309.82 367.4 307.79 367.98C305.76 368.56 307.5 368.85 307.5 368.85C307.5 368.85 306.05 369.43 304.89 369.72C303.73 370.01 309.53 370.3 313.88 368.85C313.88 368.85 309.8 371.27 308.66 371.46C306.92 371.75 309.24 372.62 313.88 370.88C313.88 370.88 312.14 372.33 313.88 372.33C313.88 372.33 311.27 374.65 308.37 375.23C305.47 375.81 304.89 376.1 306.34 376.39C306.34 376.39 305.18 376.97 303.15 377.26C301.12 377.55 302.28 378.71 308.95 377.55C308.95 377.55 307.21 378.42 306.34 379C305.47 379.58 313.59 378.13 313.59 378.13C313.59 378.13 308.66 382.77 305.47 384.51C301.6 386.62 300.18 386.87 305.47 385.96C305.47 385.96 304.57 386.32 303.59 386.74C300.14 386.21 296.68 385.66 293.23 386.15C285.03 387.32 265.13 376.78 258.1 377.37C251.81 377.89 244.58 371.38 238.09 371.27C237.48 370.65 236.97 370.07 236.68 369.6C236.68 369.6 241.9 370.47 244.51 370.18C247.12 369.89 242.19 369.6 238.13 367.57C238.13 367.57 241.32 368.44 242.48 368.15C243.64 367.86 236.97 367.28 232.33 360.32C232.33 360.32 234.07 361.19 234.94 360.9C235.81 360.61 232.33 359.45 230.88 356.55C230.88 356.55 233.78 358.87 236.97 359.74C240.16 360.61 241.9 360.03 241.9 359.74C241.9 359.45 239.87 359.74 235.52 357.13C235.52 357.13 237.84 357.71 239.29 357.71C240.74 357.71 240.74 356.84 240.74 356.84C240.74 356.84 242.77 356.55 243.35 356.26C243.93 355.97 238.13 356.55 230.88 352.78C230.88 352.78 233.78 353.94 236.97 353.94C240.16 353.94 239 353.94 234.94 350.75C234.94 350.75 236.97 351.62 237.55 351.04C237.55 351.04 239 351.04 239.58 350.46C240.16 349.88 235.52 351.04 230.88 347.27C230.88 347.27 234.36 347.85 235.52 347.56C236.68 347.27 231.46 346.69 230.01 344.66C230.01 344.66 235.45 347.18 238.42 345.53C241.03 344.08 237.26 345.53 234.07 343.79C234.07 343.79 234.65 342.92 231.17 341.76C231.17 341.76 237.26 342.63 238.13 342.34C239 342.05 233.49 341.47 230.88 338.28C230.88 338.28 234.65 340.02 235.23 339.73C235.81 339.44 231.46 337.7 229.14 332.48C229.14 332.48 233.2 334.51 233.78 334.51C234.36 334.51 230.59 331.9 230.01 331.32C230.01 331.32 235.81 333.64 236.39 333.35C236.97 333.06 229.14 329.58 228.27 327.26C228.27 327.26 232.33 328.42 232.91 328.42C233.49 328.42 231.46 326.97 231.46 326.97C231.46 326.97 233.78 326.97 234.36 326.68C234.94 326.39 228.27 325.23 227.11 322.33C227.11 322.33 231.17 324.65 232.04 324.36C232.91 324.07 228.85 322.62 226.82 318.56C226.82 318.56 228.56 319.72 228.85 319.72C229.14 319.72 226.53 315.95 226.53 315.95C226.53 315.95 227.11 316.24 227.11 315.37C227.11 314.5 225.37 312.18 225.37 312.18C225.37 312.18 228.27 315.37 228.85 315.08C229.43 314.79 225.95 311.89 225.08 309.28C225.08 309.28 227.11 312.18 227.69 311.89C228.27 311.6 226.82 311.02 225.37 307.54C225.37 307.54 226.24 307.54 225.95 306.96C225.66 306.38 224.79 304.93 224.07 303.05C223.84 302.44 222.33 307.11 221.46 308.56C220.59 310.01 220.3 310.3 221.75 309.43C221.75 309.43 221.46 312.04 218.85 315.52C217.06 317.91 216.24 318.13 218.85 317.55C218.85 317.55 217.98 319 218.27 319.29C218.56 319.58 220.59 318.13 220.59 318.13C220.59 318.13 219.72 321.32 217.11 323.35C214.5 325.38 216.53 324.8 216.53 324.8L215.15 326.46C215.13 326.49 215.15 326.52 215.18 326.51C215.69 326.37 218.09 325.62 221.17 323.06C221.17 323.06 218.42 326.68 214.07 328.13C209.72 329.58 215.81 328.71 215.81 328.71C215.81 328.71 215.23 329.58 215.81 329.58C216.39 329.58 218.71 329.58 221.9 327.55C221.9 327.55 217.55 331.9 213.49 331.9C209.43 331.9 210.88 332.77 213.2 332.77C213.2 332.77 211.46 334.51 217.55 333.35C217.55 333.35 214.07 335.38 212.62 335.96C211.17 336.54 214.07 336.54 214.07 336.54C214.07 336.54 210.59 337.41 210.3 337.7C210.01 337.99 213.78 337.99 217.26 336.83C217.26 336.83 215.52 339.15 211.75 339.73C207.98 340.31 207.11 340.31 207.4 340.6C207.69 340.89 212.62 340.6 212.62 340.6C212.62 340.6 210.3 341.18 210.3 341.47C210.3 341.76 214.65 341.47 216.68 340.6C216.68 340.6 213.49 344.08 210.59 344.95C207.69 345.82 209.14 346.11 211.46 345.82C211.46 345.82 210.59 346.69 215.81 345.82C215.81 345.82 212.04 347.27 211.17 347.56C210.3 347.85 212.33 348.43 214.94 347.56C214.94 347.56 210.3 350.46 208.56 350.75C206.82 351.04 207.4 351.91 210.01 351.33C210.01 351.33 208.44 352.49 208.85 352.49C210.88 352.49 212.62 352.2 214.94 350.75C214.94 350.75 212.62 353.07 210.59 353.94C208.56 354.81 212.62 354.52 212.62 354.52C212.62 354.52 210.88 355.68 208.85 356.26C206.82 356.84 208.56 357.13 208.56 357.13C208.56 357.13 207.11 357.71 205.95 358C204.79 358.29 210.59 358.58 214.94 357.13C214.94 357.13 210.86 359.55 209.72 359.74C207.98 360.03 210.3 360.9 214.94 359.16C214.94 359.16 213.2 360.61 214.94 360.61C214.94 360.61 212.33 362.93 209.43 363.51C208.57 363.68 207.92 363.83 207.46 363.96C205.2 363.57 202.11 362.76 198.69 360.98C198.69 360.98 201.59 362.14 204.78 362.14C207.97 362.14 206.81 362.14 202.75 358.95C202.75 358.95 204.78 359.82 205.36 359.24C205.36 359.24 206.81 359.24 207.39 358.66C207.97 358.08 203.33 359.24 198.69 355.47C198.69 355.47 202.17 356.05 203.33 355.76C204.49 355.47 199.27 354.89 197.82 352.86C197.82 352.86 203.26 355.38 206.23 353.73C208.84 352.28 205.07 353.73 201.88 351.99C201.88 351.99 202.46 351.12 198.98 349.96C198.98 349.96 205.07 350.83 205.94 350.54C206.81 350.25 201.3 349.67 198.69 346.48C198.69 346.48 202.46 348.22 203.04 347.93C203.62 347.64 199.27 345.9 196.95 340.68C196.95 340.68 201.01 342.71 201.59 342.71C202.17 342.71 198.4 340.1 197.82 339.52C197.82 339.52 203.62 341.84 204.2 341.55C204.78 341.26 196.95 337.78 196.08 335.46C196.08 335.46 200.14 336.62 200.72 336.62C201.3 336.62 199.27 335.17 199.27 335.17C199.27 335.17 201.59 335.17 202.17 334.88C202.75 334.59 196.08 333.43 194.92 330.53C194.92 330.53 198.98 332.85 199.85 332.56C200.72 332.27 196.66 330.82 194.63 326.76C194.63 326.76 196.37 327.92 196.66 327.92C196.95 327.92 194.34 324.15 194.34 324.15C194.34 324.15 194.92 324.44 194.92 323.57C194.92 322.7 193.18 320.38 193.18 320.38C193.18 320.38 196.08 323.57 196.66 323.28C197.24 322.99 193.76 320.09 192.89 317.48C192.89 317.48 194.92 320.38 195.5 320.09C196.08 319.8 194.63 319.22 193.18 315.74C193.18 315.74 194.05 315.74 193.76 315.16C193.47 314.58 192.6 313.13 191.88 311.25C191.65 310.64 190.14 315.31 189.27 316.76C188.4 318.21 188.11 318.5 189.56 317.63C189.56 317.63 189.27 320.24 186.66 323.72C184.87 326.11 184.05 326.33 186.66 325.75C186.66 325.75 185.79 327.2 186.08 327.49C186.37 327.78 188.4 326.33 188.4 326.33C188.4 326.33 187.53 329.52 184.92 331.55C182.31 333.58 184.34 333 184.34 333L182.96 334.66C182.94 334.69 182.96 334.72 182.99 334.71C183.5 334.57 185.9 333.82 188.98 331.26C188.98 331.26 186.23 334.88 181.88 336.33C177.53 337.78 183.62 336.91 183.62 336.91C183.62 336.91 183.04 337.78 183.62 337.78C184.2 337.78 186.52 337.78 189.71 335.75C189.71 335.75 185.36 340.1 181.3 340.1C180.24 340.1 179.56 340.16 179.17 340.25C177.44 338.98 169.69 335.22 168.7 332.58C168.7 332.58 174.09 334.12 174.86 334.12C175.63 334.12 172.94 332.2 172.94 332.2C172.94 332.2 176.02 332.2 176.79 331.82C177.56 331.44 168.71 329.9 167.17 326.05C167.17 326.05 172.56 329.13 173.71 328.74C174.86 328.36 169.48 326.43 166.78 321.04C166.78 321.04 169.09 322.58 169.47 322.58C169.85 322.58 166.39 317.58 166.39 317.58C166.39 317.58 167.16 317.96 167.16 316.81C167.16 315.66 164.85 312.58 164.85 312.58C164.85 312.58 168.7 316.81 169.47 316.43C170.24 316.05 165.62 312.2 164.47 308.73C164.47 308.73 167.16 312.58 167.93 312.19C168.7 311.81 166.78 311.04 164.85 306.42C164.85 306.42 166 306.42 165.62 305.65C165.24 304.88 164.08 302.96 163.12 300.45C162.81 299.65 160.81 305.84 159.66 307.76C158.51 309.68 158.12 310.07 160.04 308.91C160.04 308.91 159.66 312.37 156.19 316.99C153.81 320.16 152.73 320.45 156.19 319.68C156.19 319.68 155.04 321.6 155.42 321.99C155.8 322.37 158.5 320.45 158.5 320.45C158.5 320.45 157.35 324.68 153.88 327.38C150.42 330.07 153.11 329.3 153.11 329.3L151.27 331.5C151.24 331.53 151.27 331.58 151.31 331.57C151.98 331.39 155.17 330.4 159.26 326.99C159.26 326.99 155.6 331.8 149.83 333.72C144.06 335.64 152.14 334.49 152.14 334.49C152.14 334.49 151.37 335.64 152.14 335.64C152.91 335.64 155.99 335.64 160.22 332.95C160.22 332.95 154.45 338.72 149.06 338.72C143.67 338.72 145.6 339.87 148.68 339.87C148.68 339.87 146.37 342.18 154.45 340.64C154.45 340.64 149.83 343.33 147.91 344.1C145.99 344.87 149.83 344.87 149.83 344.87C149.83 344.87 145.21 346.02 144.83 346.41C144.45 346.79 149.45 346.79 154.07 345.26C154.07 345.26 151.76 348.34 146.76 349.11C141.76 349.88 140.6 349.88 140.99 350.26C141.37 350.64 147.92 350.26 147.92 350.26C147.92 350.26 144.84 351.03 144.84 351.41C144.84 351.79 150.61 351.41 153.31 350.26C153.31 350.26 149.08 354.88 145.23 356.03C141.38 357.18 143.31 357.57 146.38 357.18C146.38 357.18 145.23 358.33 152.15 357.18C152.15 357.18 147.15 359.1 145.99 359.49C144.84 359.87 147.53 360.64 150.99 359.49C150.99 359.49 144.83 363.34 142.52 363.72C140.21 364.1 140.98 365.26 144.44 364.49C144.44 364.49 142.36 366.03 142.9 366.03C145.59 366.03 147.9 365.65 150.98 363.72C150.98 363.72 147.9 366.8 145.21 367.95C142.52 369.1 147.9 368.72 147.9 368.72C147.9 368.72 145.59 370.26 142.9 371.03C140.21 371.8 142.52 372.18 142.52 372.18C142.52 372.18 140.6 372.95 139.06 373.33C137.52 373.71 145.22 374.1 150.99 372.18C150.99 372.18 150.17 372.67 149.08 373.28C146.12 373.24 142.98 373.54 139.84 374.4C139.69 374.44 139.52 374.48 139.36 374.52C137.49 373.07 135.27 371.12 133.35 368.86C133.35 368.86 140.28 372.32 141.43 372.32C142.58 372.32 133.73 366.16 130.27 362.7C130.27 362.7 137.2 367.32 138.74 367.32C140.28 367.32 131.43 360.78 129.5 357.7C129.5 357.7 136.43 358.85 139.89 358.47C143.35 358.09 136.81 357.7 131.42 355.01C131.42 355.01 135.65 356.16 137.19 355.78C138.73 355.4 129.88 354.63 123.72 345.39C123.72 345.39 126.03 346.54 127.18 346.16C128.33 345.78 123.72 344.24 121.79 340.39C121.79 340.39 125.64 343.47 129.87 344.62C134.1 345.77 136.41 345 136.41 344.62C136.41 344.24 133.72 344.62 127.94 341.16C127.94 341.16 131.02 341.93 132.94 341.93C134.86 341.93 134.86 340.78 134.86 340.78C134.86 340.78 137.55 340.4 138.32 340.01C139.09 339.63 131.39 340.39 121.77 335.39C121.77 335.39 125.62 336.93 129.85 336.93C134.08 336.93 132.54 336.93 127.16 332.7C127.16 332.7 129.85 333.85 130.62 333.08C130.62 333.08 132.54 333.08 133.31 332.31C134.08 331.54 127.92 333.08 121.77 328.08C121.77 328.08 126.39 328.85 127.93 328.46C129.47 328.08 122.54 327.31 120.62 324.61C120.62 324.61 127.84 327.95 131.78 325.76C135.24 323.84 130.24 325.76 126.01 323.45C126.01 323.45 126.78 322.3 122.16 320.76C122.16 320.76 130.24 321.91 131.4 321.53C132.55 321.15 125.24 320.38 121.78 316.14C121.78 316.14 126.78 318.45 127.55 318.06C128.32 317.68 122.55 315.37 119.47 308.44C119.47 308.44 124.86 311.13 125.63 311.13C126.4 311.13 121.4 307.67 120.63 306.9C120.63 306.9 128.33 309.98 129.1 309.59C129.87 309.21 119.48 304.59 118.33 301.51C118.33 301.51 123.72 303.05 124.49 303.05C125.26 303.05 122.57 301.13 122.57 301.13C122.57 301.13 125.65 301.13 126.42 300.75C127.19 300.37 118.34 298.83 116.8 294.98C116.8 294.98 122.19 298.06 123.34 297.67C124.49 297.28 119.11 295.36 116.41 289.97C116.41 289.97 118.72 291.51 119.1 291.51C119.48 291.51 116.02 286.51 116.02 286.51C116.02 286.51 116.79 286.89 116.79 285.74C116.79 284.59 114.48 281.51 114.48 281.51C114.48 281.51 118.33 285.74 119.1 285.36C119.87 284.98 115.25 281.13 114.1 277.66C114.1 277.66 116.79 281.51 117.56 281.12C118.33 280.74 116.41 279.97 114.48 275.35C114.48 275.35 115.63 275.35 115.25 274.58C114.87 273.81 113.71 271.89 112.75 269.38C112.44 268.58 110.44 274.77 109.29 276.69C108.14 278.61 107.75 279 109.68 277.84C109.68 277.84 109.29 281.3 105.83 285.92C103.45 289.09 102.37 289.38 105.83 288.61C105.83 288.61 104.68 290.53 105.06 290.92C105.44 291.3 108.14 289.38 108.14 289.38C108.14 289.38 106.99 293.61 103.52 296.31C100.06 299 102.75 298.23 102.75 298.23L100.91 300.43C100.88 300.46 100.91 300.51 100.95 300.5C101.62 300.32 104.81 299.33 108.9 295.92C108.9 295.92 105.24 300.73 99.47 302.65C93.7 304.57 101.78 303.42 101.78 303.42C101.78 303.42 101.01 304.57 101.78 304.57C102.55 304.57 105.63 304.57 109.86 301.88C109.86 301.88 104.09 307.65 98.7 307.65C93.31 307.65 95.24 308.8 98.32 308.8C98.32 308.8 96.01 311.11 104.09 309.57C104.09 309.57 99.47 312.26 97.55 313.03C95.63 313.8 99.47 313.8 99.47 313.8C99.47 313.8 94.85 314.95 94.47 315.34C94.09 315.72 99.09 315.72 103.71 314.19C103.71 314.19 101.4 317.27 96.4 318.04C91.4 318.81 90.24 318.81 90.63 319.19C91.01 319.57 97.56 319.19 97.56 319.19C97.56 319.19 94.48 319.96 94.48 320.34C94.48 320.72 100.25 320.34 102.95 319.19C102.95 319.19 98.72 323.81 94.87 324.96C91.02 326.11 92.95 326.5 96.02 326.11C96.02 326.11 94.87 327.26 101.79 326.11C101.79 326.11 96.79 328.03 95.63 328.42C94.48 328.8 97.17 329.57 100.63 328.42C100.63 328.42 94.47 332.27 92.16 332.65C89.85 333.03 90.62 334.19 94.08 333.42C94.08 333.42 92 334.96 92.54 334.96C95.23 334.96 97.54 334.58 100.62 332.65C100.62 332.65 97.54 335.73 94.85 336.88C92.16 338.03 97.54 337.65 97.54 337.65C97.54 337.65 95.23 339.19 92.54 339.96C89.85 340.73 92.16 341.11 92.16 341.11C92.16 341.11 90.24 341.88 88.7 342.26C87.16 342.64 94.86 343.03 100.63 341.11C100.63 341.11 95.22 344.32 93.7 344.57C91.39 344.95 94.47 346.11 100.63 343.8C100.63 343.8 98.32 345.72 100.63 345.72C100.63 345.72 97.17 348.8 93.32 349.57C89.47 350.34 88.7 350.72 90.63 351.11C90.63 351.11 89.09 351.88 86.4 352.26C83.71 352.64 85.25 354.18 94.1 352.64C94.1 352.64 91.79 353.79 90.64 354.56C89.49 355.33 100.26 353.41 100.26 353.41C100.26 353.41 93.72 359.57 89.48 361.88C87.91 362.74 86.64 363.36 85.84 363.79C83.35 363.15 80.43 362.13 77.31 360.51C77.31 360.51 81.16 362.05 85.39 362.05C89.62 362.05 88.08 362.05 82.7 357.82C82.7 357.82 85.39 358.97 86.16 358.2C86.16 358.2 88.08 358.2 88.85 357.43C89.62 356.66 83.46 358.2 77.31 353.2C77.31 353.2 81.93 353.97 83.47 353.58C85.01 353.2 78.08 352.43 76.16 349.73C76.16 349.73 83.38 353.07 87.32 350.88C90.78 348.96 85.78 350.88 81.55 348.57C81.55 348.57 82.32 347.42 77.7 345.88C77.7 345.88 85.78 347.03 86.94 346.65C88.09 346.27 80.78 345.5 77.32 341.26C77.32 341.26 82.32 343.57 83.09 343.18C83.86 342.8 78.09 340.49 75.01 333.56C75.01 333.56 80.4 336.25 81.17 336.25C81.94 336.25 76.94 332.79 76.17 332.02C76.17 332.02 83.87 335.1 84.64 334.71C85.41 334.33 75.02 329.71 73.86 326.63C73.86 326.63 79.25 328.17 80.02 328.17C80.79 328.17 78.1 326.25 78.1 326.25C78.1 326.25 81.18 326.25 81.95 325.86C82.72 325.48 73.87 323.94 72.33 320.09C72.33 320.09 77.72 323.17 78.87 322.78C80.02 322.4 74.64 320.47 71.94 315.08C71.94 315.08 74.25 316.62 74.63 316.62C75.01 316.62 71.55 311.62 71.55 311.62C71.55 311.62 72.32 312 72.32 310.85C72.32 309.7 70.01 306.62 70.01 306.62C70.01 306.62 73.86 310.85 74.63 310.47C75.4 310.09 70.78 306.24 69.63 302.77C69.63 302.77 72.32 306.62 73.09 306.23C73.86 305.85 71.94 305.08 70.01 300.46C70.01 300.46 71.16 300.46 70.78 299.69C70.4 298.92 69.24 297 68.28 294.49C67.97 293.69 65.97 299.88 64.82 301.8C63.67 303.72 63.28 304.11 65.2 302.95C65.2 302.95 64.82 306.41 61.35 311.03C58.97 314.2 57.89 314.49 61.35 313.72C61.35 313.72 60.2 315.64 60.58 316.03C60.96 316.42 63.66 314.49 63.66 314.49C63.66 314.49 62.51 318.72 59.04 321.42C55.58 324.11 58.27 323.34 58.27 323.34L56.43 325.54C56.4 325.57 56.43 325.62 56.47 325.61C57.14 325.43 60.33 324.44 64.42 321.03C64.42 321.03 60.76 325.84 54.99 327.76C49.22 329.68 57.3 328.53 57.3 328.53C57.3 328.53 56.53 329.68 57.3 329.68C58.07 329.68 61.15 329.68 65.38 326.99C65.38 326.99 59.61 332.76 54.22 332.76C48.83 332.76 50.76 333.91 53.84 333.91C53.84 333.91 51.53 336.22 59.61 334.68C59.61 334.68 54.99 337.37 53.07 338.14C51.15 338.91 54.99 338.91 54.99 338.91C54.99 338.91 50.37 340.06 49.99 340.45C49.61 340.83 54.61 340.83 59.23 339.3C59.23 339.3 56.92 342.38 51.92 343.15C46.92 343.92 45.76 343.92 46.15 344.3C46.53 344.68 53.08 344.3 53.08 344.3C53.08 344.3 50 345.07 50 345.45C50 345.83 55.77 345.45 58.47 344.3C58.47 344.3 54.24 348.92 50.39 350.07C46.54 351.22 48.47 351.61 51.54 351.22C51.54 351.22 50.39 352.37 57.31 351.22C57.31 351.22 52.31 353.14 51.15 353.53C50 353.91 52.69 354.68 56.15 353.53C56.15 353.53 49.99 357.38 47.68 357.76C45.37 358.14 46.14 359.3 49.6 358.53C49.6 358.53 47.52 360.07 48.06 360.07C50.75 360.07 53.06 359.69 56.14 357.76C56.14 357.76 53.06 360.84 50.37 361.99C47.68 363.14 53.06 362.76 53.06 362.76C53.06 362.76 50.75 364.3 48.06 365.07C45.37 365.84 47.68 366.22 47.68 366.22C47.68 366.22 45.76 366.99 44.22 367.37C42.68 367.75 50.38 368.14 56.15 366.22C56.15 366.22 50.74 369.43 49.22 369.68C46.91 370.06 49.99 371.22 56.15 368.91C56.15 368.91 53.84 370.83 56.15 370.83C56.15 370.83 55.42 371.47 54.27 372.24C43.36 369.12 26.09 373.39 26.09 373.39L26.26 499.58H703.12V373.93C703.06 373.93 663.24 368.66 650.5 369.13ZM89.43 363.98C89.43 363.98 88.9 364.19 88.16 364.5C87.9 364.45 87.63 364.39 87.35 364.33C87.94 364.23 88.62 364.12 89.43 363.98ZM83.78 366.54C83.74 366.57 83.72 366.59 83.7 366.62C83.61 366.56 83.52 366.52 83.42 366.46C83.41 366.45 83.55 366.48 83.78 366.54ZM89.05 370.9C87.51 372.05 89.05 372.82 89.05 372.82C89.05 372.82 88.14 373.64 86.85 374.61C85.21 374.23 83.71 373.81 82.41 373.34C81.84 373.13 81.3 372.96 80.77 372.81C80.23 372.15 79.69 371.45 79.18 370.68C79.18 370.68 81.49 371.83 82.64 371.45C83.79 371.07 79.18 369.53 77.25 365.68C77.25 365.68 81.1 368.76 85.33 369.91C87.08 370.39 88.49 370.53 89.55 370.52C89.36 370.67 89.18 370.8 89.05 370.9ZM90.81 369.58C89.6 369.32 87.34 368.72 83.94 366.76C84.14 366.78 84.44 366.78 84.82 366.77C85.88 366.98 87.33 367.23 88.42 367.23C89.87 367.23 90.23 366.57 90.32 366.25C92.5 365.96 94.85 365.58 96.75 365.14C96.74 365.13 93.19 367.79 90.81 369.58ZM175.15 348.89C175.24 348.98 175.76 349.01 176.44 349.02C177.11 349.22 177.66 349.33 177.88 349.22C177.97 349.17 177.97 349.1 177.89 349C179.15 348.96 180.37 348.89 180.37 348.89C180.37 348.89 178.05 349.47 178.05 349.76C178.05 350.05 182.4 349.76 184.43 348.89C184.43 348.89 182.71 350.76 180.65 352.1C178.61 351.46 174.46 350.18 172.1 347.3C172.1 347.3 173.79 348.08 175.36 348.66C175.1 348.72 175.05 348.78 175.15 348.89ZM172.11 371.54C172.11 371.54 173.06 372.3 174.54 373.21C174.27 373.31 173.91 373.42 173.47 373.53C172.96 372.94 172.48 372.28 172.11 371.54ZM178.86 375.34C177.93 375.54 177.02 375.71 176.14 375.85C176.06 375.79 175.98 375.73 175.9 375.67C176.61 375.61 177.68 375.46 178.76 375.3C178.79 375.31 178.82 375.32 178.86 375.34ZM176.52 374.31C176.66 374.38 176.81 374.46 176.96 374.53C176.5 374.77 175.93 375.08 175.48 375.36C175.16 375.12 174.83 374.85 174.5 374.55C175.09 374.5 175.76 374.42 176.52 374.31ZM172.11 366.53C172.11 366.53 174.63 367.54 177.83 367.92C177.69 367.97 177.57 368 177.47 368.02C176 368.26 177.43 368.92 180.71 368.07C181.35 368.07 181.82 368.06 182.13 368.03C181.83 368.43 181.71 368.89 182.69 368.89C182.69 368.89 182.13 369.38 181.26 369.97C178.64 369.34 175.49 368.29 172.11 366.53ZM175.39 359.63C175.59 359.8 176.23 359.89 177.28 359.71C177.41 359.71 177.54 359.7 177.66 359.69C177.32 359.95 176.26 360.77 176.6 360.77C178.63 360.77 180.37 360.48 182.69 359.03C182.69 359.03 180.37 361.35 178.34 362.22C178.21 362.27 178.11 362.33 178.03 362.37C176.23 361.83 174.17 360.89 172.11 359.22C172.11 359.22 173.74 359.49 175.39 359.63ZM172.49 351.91C172.49 351.91 176.83 352.53 179.6 352.71C179.18 352.93 178.76 353.11 178.34 353.24C175.44 354.11 176.89 354.4 179.21 354.11C179.21 354.11 178.34 354.98 183.56 354.11C183.56 354.11 180.79 355.17 179.45 355.66C178.46 355.48 177.37 355.17 176.34 354.61C176.34 354.6 177.11 353.45 172.49 351.91ZM182.51 367.61C182.49 367.59 182.47 367.56 182.44 367.53C182.53 367.5 182.61 367.47 182.69 367.44C182.69 367.44 182.62 367.51 182.51 367.61ZM180.95 366.41C180.78 366.29 180.59 366.15 180.39 366.01C181.17 365.86 181.95 365.66 182.69 365.42C182.69 365.41 181.92 365.87 180.95 366.41ZM177.5 363.84C177.5 363.84 177.71 363.93 178.02 364.04C177.96 364.06 177.9 364.09 177.85 364.11C177.73 364.02 177.62 363.93 177.5 363.84ZM179.92 362.83C180.19 362.82 180.38 362.8 180.38 362.8C180.38 362.8 180.33 362.83 180.25 362.88C180.14 362.87 180.03 362.85 179.92 362.83ZM182.46 355.91C182.54 355.89 182.61 355.87 182.69 355.84C182.69 355.84 182.64 355.87 182.57 355.91C182.54 355.92 182.5 355.92 182.46 355.91ZM179.63 357.62C178.68 358.13 177.69 358.61 176.93 358.87C175.08 358.31 172.11 357.38 170.96 355.76C170.96 355.76 175.73 357.97 179.63 357.62ZM209.85 376.8C209.38 376.67 208.91 376.53 208.45 376.39C209.15 376.49 209.82 376.54 210.24 376.43C210.65 376.33 210.09 376.19 209.01 375.76C210.06 375.59 211.1 375.4 212 375.19C212 375.19 211.02 375.93 209.85 376.8ZM206.24 374.42C206.21 374.41 206.19 374.39 206.16 374.38C206.27 374.36 206.37 374.34 206.48 374.32C206.49 374.32 206.39 374.36 206.24 374.42ZM205.12 366.42C206.2 366.43 207.79 366.3 209.97 365.92C209.97 365.92 208.24 366.79 207.37 367.37C206.75 367.15 206 366.85 205.12 366.42ZM204.2 365.62C204.19 365.62 204.18 365.62 204.17 365.63C204.02 365.65 203.9 365.68 203.78 365.71C203.62 365.62 203.45 365.52 203.28 365.42C203.28 365.41 203.66 365.51 204.2 365.62ZM204.73 368.02C207.92 368.89 209.66 368.31 209.66 368.02C209.66 367.86 209.05 367.87 207.79 367.49C209.43 367.41 214.61 366.49 214.61 366.49C214.61 366.49 209.68 371.13 206.49 372.87C205.95 373.16 205.46 373.42 205.03 373.64C203.4 372.51 201.64 370.91 200.09 368.59C200.09 368.59 201.83 369.46 202.7 369.17C203.57 368.88 200.09 367.72 198.64 364.82C198.64 364.83 201.54 367.15 204.73 368.02ZM170.96 338.06C170.96 338.06 176.98 340.47 178.9 340.76C179.26 340.93 180.03 341.06 180.96 341.06C180.96 341.06 179.22 342.8 185.31 341.64C185.31 341.64 181.83 343.67 180.38 344.25C178.93 344.83 181.83 344.83 181.83 344.83C181.83 344.83 178.35 345.7 178.06 345.99C177.77 346.28 181.54 346.28 185.02 345.12C185.02 345.12 183.28 347.44 179.51 348.02C178.55 348.17 177.78 348.28 177.17 348.36C175.59 347.15 172.01 344.55 169.81 339.6C169.81 339.6 175.2 342.29 175.97 342.29C176.73 342.29 171.73 338.83 170.96 338.06ZM331.49 353.75C331.8 353.79 332.14 353.83 332.51 353.88C332.35 353.98 332.11 354.12 331.82 354.27C331.4 354.05 330.85 353.82 330.09 353.56C330.09 353.56 330.14 353.57 330.23 353.58C330.36 353.71 330.92 353.75 331.49 353.75ZM330.85 357.18C331.39 357.35 332 357.52 332.64 357.65C332.29 357.84 331.94 358.02 331.6 358.19C330.97 357.94 330.33 357.65 329.81 357.29C330.15 357.26 330.5 357.23 330.85 357.18ZM334.38 359.11C334.18 359.03 333.87 358.94 333.49 358.82C333.98 358.68 334.51 358.51 335.07 358.3C335.07 358.3 334.57 358.72 334.38 359.11ZM329.8 368.35C329.8 368.35 330.15 368.62 330.72 369.02C330.61 369.11 330.49 369.2 330.38 369.29C330.16 368.99 329.97 368.68 329.8 368.35ZM332.59 365.86C333.14 365.77 333.65 365.68 334.03 365.62C334.21 365.64 334.39 365.66 334.58 365.68C334.42 365.83 334.17 366.06 333.86 366.34C333.45 366.19 333.02 366.03 332.59 365.86ZM330.16 359.34C330.46 359.35 330.84 359.33 331.29 359.28C332.32 359.4 333.62 359.51 334.31 359.38C334.32 359.58 334.51 359.73 335.07 359.73C335.07 359.73 334.33 360.38 333.21 361.08C332.25 360.7 331.21 360.13 330.16 359.34ZM334.99 356.31C335.02 356.3 335.05 356.29 335.07 356.28C335.07 356.28 335.05 356.29 335.01 356.31C335.01 356.32 335 356.32 334.99 356.31ZM331.34 351.5C331.72 351.43 332.11 351.33 332.5 351.2C332.81 351.31 333.11 351.4 333.37 351.47C333.07 351.71 332.75 351.95 332.42 352.18C332.06 351.97 331.69 351.74 331.34 351.5ZM333.85 351.07C333.75 350.99 333.64 350.9 333.51 350.8C334.01 350.58 334.52 350.3 335.08 349.96C335.07 349.96 334.58 350.46 333.85 351.07ZM331.57 345.18C331.53 345.15 331.49 345.12 331.46 345.09C331.52 345.08 331.57 345.08 331.63 345.07C331.63 345.08 331.58 345.13 331.57 345.18ZM335.94 345.08C335.94 345.08 334.1 345.79 332.7 346.31C332.92 346.31 332.49 345.92 331.85 345.41C332.29 345.51 333.37 345.51 335.94 345.08ZM330.76 344.22C330.64 344.26 330.54 344.29 330.44 344.32C329.76 343.8 329.13 343.33 328.93 343.12C328.93 343.12 330.02 343.56 331.3 344.03C331.12 344.1 330.94 344.16 330.76 344.22ZM329.23 344.85C329.02 345.05 329.32 345.16 329.92 345.18C331.07 345.72 332.38 346.31 332.7 346.31C332.11 346.53 331.6 346.72 331.34 346.8C330.48 347.09 332.49 347.66 335.08 346.8C335.08 346.8 333.15 348.01 331.32 348.94C330.2 347.84 328.98 346.33 328.07 344.28C328.06 344.28 328.56 344.53 329.23 344.85ZM332.62 343.36C330.92 342.37 328.86 341.11 327.8 339.97C328.29 340.06 329.55 340.04 330.69 340C331.12 340.1 331.47 340.18 331.68 340.21C331.08 340.39 330.46 340.62 330.46 340.77C330.46 341.06 334.77 340.77 336.78 339.91C336.8 339.91 334.85 342.03 332.62 343.36ZM332.77 339.91C332.77 339.91 332.38 340.01 331.92 340.14C331.91 340.09 331.87 340.03 331.81 339.96C332.38 339.93 332.77 339.91 332.77 339.91ZM328.77 339.5C328.08 339.6 327.73 339.67 327.6 339.74C327.41 339.5 327.26 339.27 327.18 339.06C327.19 339.06 327.9 339.26 328.77 339.5ZM310.95 386.9C310.95 386.9 310.61 387.16 310.09 387.55C309.46 387.53 308.83 387.49 308.21 387.43C309.17 387.27 310.12 387.1 310.95 386.9ZM448.27 376.98C448.03 376.32 447.82 375.66 447.65 375C447.65 375 448.56 375.61 449.17 375.61C449.42 375.61 448.9 375 448.07 373.89C450.41 373.52 452.65 373.12 452.65 373.12C452.65 373.12 450.73 374.93 448.27 376.98ZM453.05 363.34C453.05 363.34 450.7 365.29 453.05 365.29C453.05 365.29 449.53 368.42 445.62 369.2C445.44 369.24 445.28 369.27 445.11 369.3C444.6 368.35 444.12 367.31 443.71 366.19C443.71 366.19 445.83 368.31 446.44 368.31C446.84 368.31 445.15 365.18 443.59 362.08C446.11 362.03 449.86 361.66 453.04 360.6C453.04 360.6 447.55 363.86 446 364.12C443.67 364.51 446.79 365.69 453.05 363.34ZM561.14 345.77C561.14 345.77 563.64 347.77 566.84 349.17C566.26 349.51 565.67 349.82 565.08 350.05C563.81 349.12 562.12 347.74 561.14 345.77ZM569.35 342.25C569.43 342.25 569.51 342.25 569.59 342.25C568.83 342.61 567.95 342.93 566.95 343.16C565.14 342.55 563.19 341.74 561.14 340.68C561.14 340.69 565.05 342.25 569.35 342.25ZM566.61 337.95C566.61 337.95 566.93 338.09 567.38 338.24C567.29 338.28 567.2 338.32 567.12 338.35C566.95 338.22 566.78 338.09 566.61 337.95ZM568.11 339.1C568.6 339.13 569.02 339.13 569.02 339.13C569.02 339.13 568.76 339.19 568.37 339.3C568.28 339.23 568.2 339.17 568.11 339.1ZM569.79 347.05C569.59 347.22 569.39 347.38 569.17 347.55C568.61 347.26 568.02 346.93 567.39 346.55C567.39 346.55 568.49 346.83 569.79 347.05ZM567.11 355.55C566.69 355.16 566.27 354.75 565.85 354.31C566.8 354.42 568.38 354.34 570.17 353.74C570.18 353.75 568.8 354.61 567.11 355.55ZM565.3 353.71C564.72 353.06 564.15 352.36 563.6 351.59C563.96 351.59 564.38 351.57 564.84 351.52C565.06 351.58 565.28 351.63 565.5 351.67C565.61 351.94 566.52 352.25 571.33 351.45C571.33 351.44 566.63 353.25 565.3 353.71ZM572.4 344.6C572.37 344.59 572.34 344.59 572.31 344.58C572.37 344.56 572.43 344.53 572.48 344.51C572.48 344.51 572.45 344.55 572.4 344.6ZM571.19 341.34C570.87 341.09 570.42 340.78 569.87 340.38C570.96 340.17 572.12 339.89 573.25 339.51C573.25 339.51 572.58 340.4 571.19 341.34ZM569.79 337.04C567.53 336.71 564.34 335.85 561.14 333.26C561.14 333.26 563.28 333.62 565.15 333.73C565.63 333.95 566.66 334.13 567.87 334.13C567.87 334.13 565.56 336.44 573.64 334.9C573.64 334.89 571.68 336.03 569.79 337.04ZM568.25 332.97C567.52 332.97 566.93 332.99 566.45 333.03C564.64 332.47 561.23 331.52 559.96 329.74C559.96 329.74 567.3 333.14 571.3 330.91C573.02 329.95 572.68 329.93 571.38 329.89C572.22 329.89 575.26 329.84 579.41 327.2C579.41 327.2 573.64 332.97 568.25 332.97ZM596.5 371.59C595.7 371.71 594.93 371.83 594.18 371.96C593.87 371.55 593.57 371.13 593.27 370.69C593.27 370.69 595.58 371.84 596.73 371.46C597.88 371.08 593.27 369.54 591.34 365.69C591.34 365.69 595.19 368.77 599.42 369.92C600.21 370.14 600.93 370.28 601.59 370.38C599.91 370.91 598.22 371.33 596.5 371.59Z" fill="url(#paint8_linear_1_2)"/>
<path d="M754 195.4C754 195.4 718.6 194.61 706.02 195.4C693.43 196.19 695.4 200.12 695.4 200.12C695.4 200.12 648.99 200.12 627.36 200.12C605.73 200.12 595.9 206.02 595.9 206.02C595.9 206.02 548.7 207.99 540.45 210.35C532.19 212.71 538.09 214.68 540.45 219.79C542.81 224.9 542.42 231.59 553.04 233.95C563.66 236.31 575.46 239.85 583.72 247.72C591.98 255.59 597.49 257.95 609.28 260.31C621.08 262.67 621.08 273.68 624.62 274.86C628.16 276.04 634.06 277.22 635.24 296.1C636.42 314.98 637.99 323.63 645.07 326.38C652.15 329.13 663.95 337.79 665.13 348.01C666.31 358.24 675.75 396.78 675.75 396.78H754V195.4Z" fill="url(#paint9_linear_1_2)"/>
<path d="M568.39 398.65C559.02 402.74 532.09 424.2 525.06 424.2C518.03 424.2 505.15 426.24 492.27 431.35C479.39 436.46 430.21 446.68 399.76 445.66C369.31 444.64 299.05 445.66 225.28 445.66C151.5 445.66 135.11 433.4 119.89 433.4C106.63 433.4 95.15 425.65 83.9 423.65C82.79 420.52 80.97 421.75 69.98 411.83C89.75 416.45 87.01 414.24 81.5 409.16C98.13 416.7 97.45 414.21 85.01 407.05C80.77 404.61 77.4 402.13 74.71 399.76C85.72 396.63 83.08 394.76 79.77 395.84C78.25 396.33 75.32 396.8 72.02 397.21C70.99 396.15 70.09 395.13 69.31 394.16C73.04 392.67 72.25 392.31 68.1 392.56C66.43 390.22 66.84 391.74 66.2 380.64C79.53 391.33 75.16 382.05 75.16 382.05C120.86 392.55 126.42 385.76 117.77 385.76C109.12 385.76 102.33 382.67 102.33 382.67C104.15 379.04 87.9 378.27 74.54 368.47C111.59 379.59 122.12 370.94 115.3 370.94C101.1 370.94 88.13 366 88.13 366C112.83 370.32 115.3 364.76 107.89 364.76C100.48 364.76 94.3 362.91 94.3 362.91C94.3 362.91 94.3 360.44 82.57 357.97C74.36 356.24 67.67 351.8 64.38 349.28C64.3 347.96 64.23 346.64 64.15 345.31C64.33 345.67 69.81 347.81 69.6 343.15C97.33 350.08 94.53 348.29 82.57 341.91C101.71 346.23 110.98 342.53 103.57 341.91C96.16 341.29 78.87 335.12 78.87 335.12C92.46 336.36 101.1 332.65 87.52 333.27C77.18 333.74 67.21 328.49 63.03 325.95C62.67 319.91 61.91 322.48 67.35 321.36C75.04 325.38 87.84 327.23 73.94 320.91C77.65 321.53 76.41 317.82 76.41 317.82C93.7 322.76 104.2 322.14 105.44 320.91C107.87 318.48 94.96 321.63 74.56 310.41C90.62 316.59 98.03 314.12 98.65 313.5C99.27 312.88 88.77 311.03 88.77 311.03C91.13 308.33 76.94 309.94 60.91 290.28C60.79 288.33 60.67 286.38 60.56 284.45C81.89 290.62 80.43 287.89 76.1 286.45C65.32 282.88 63.17 278.7 63.17 278.7C82.48 287.95 93.57 287.91 97.22 287.44C105.99 286.3 80.43 285.87 75.4 276.6C92.42 280.97 91.58 278.71 86.58 277.05C75.8 273.48 73.65 269.3 73.65 269.3C74.24 265.93 70.53 265.43 61.56 255.92C78.36 260.72 76 258.49 71.29 253.38C85.45 261.05 84.85 258.56 74.24 251.31C66.88 246.29 57.62 237.47 57.02 228.57C59 230.09 69.03 237.56 74.58 237.56C80.76 237.56 72.11 236.32 65.32 228.3C68.88 230.67 78.6 237.56 80.14 234.48C80.14 234.48 85.7 234.48 86.32 233.86C86.94 233.24 77.67 233.24 61 219.04C61 219.04 66.56 221.51 67.79 220.89C68.82 220.37 56.1 214.71 55.27 203.43C61.07 205.83 62.14 205.8 57.91 199.89C69.03 208.54 73.97 206.68 70.26 204.83C66.55 202.98 60.38 197.42 60.38 197.42C66.56 201.74 70.88 200.51 67.79 198.66C64.7 196.81 59.14 192.48 59.14 192.48C59.14 192.48 62.23 191.86 59.76 190.01C57.29 188.16 53.44 182.08 53.44 182.08C53.39 182.14 52.98 177.4 52.66 177.97C52.12 178.92 52.3 192.09 52.24 191.56C52.24 191.56 46.17 199.28 41.85 201.75C37.53 204.22 40.61 204.84 48.64 201.75C48.64 201.75 39.49 208.75 35.26 211.19C13.8 203.07 25.97 203.4 18.73 198.4C15.48 196.15 9.45 189.77 9.45 189.77C26.25 194.57 23.89 192.34 19.18 187.23C33.34 194.9 32.74 192.41 22.13 185.16C14.77 180.14 5.51 171.32 4.91 162.42C6.89 163.94 16.92 171.41 22.47 171.41C28.65 171.41 20 170.17 13.21 162.15C16.77 164.52 26.49 171.41 28.03 168.33C28.03 168.33 33.59 168.33 34.21 167.71C34.83 167.09 25.56 167.09 8.89 152.89C8.89 152.89 14.45 155.36 15.68 154.74C16.74 154.21 9.1 151.83 4.59 142.49C4.59 157.66 4.59 483.23 4.59 499.87H754V387.41C754 387.41 577.76 394.56 568.39 398.65ZM21.8 254.73C25.51 255.35 24.27 251.64 24.27 251.64C29.51 253.14 34.12 254.12 38.05 254.74C38.03 255.17 38.1 255.43 38.1 255.43C38.1 255.43 36.25 259.75 25.75 264.08C24.67 264.52 23.8 264.98 23.27 265.37C17.87 263.72 13.37 261.27 10.9 259.77C10.75 257.29 10.61 254.81 10.46 252.34C20.42 259.06 27.38 259.04 27.98 258.44C28.6 257.82 21.8 254.73 21.8 254.73ZM25.7 266.04C27.91 265.61 31.48 264.64 36.86 262.85C36.86 262.85 35.99 264.75 32.89 267.09C30.42 266.99 28 266.6 25.7 266.04ZM29.71 269.13C29.4 269.3 29.09 269.47 28.76 269.64C27.5 269.21 26.74 268.94 26.74 268.94C27.76 269.03 28.75 269.09 29.71 269.13ZM41.33 268.22C41.71 268.09 41.98 267.96 42.12 267.84C44.35 266.75 46.71 265.51 49.22 264.08C49.22 264.08 47.44 268.23 37.5 272.46C36.29 272.09 35.12 271.73 34.02 271.38C36.26 270.52 38.69 269.48 41.33 268.22ZM44.63 246.51C41.75 245.75 36.63 244.85 36.63 244.85C36.63 244.85 36.67 244.81 36.68 244.72C38.96 244.96 49.22 241.23 49.22 241.23C49.22 241.23 47.02 243.91 44.63 246.51ZM36.34 244.05C36 243.69 35.33 243.2 34.04 242.59C35.48 241.77 37.24 240.71 39.32 239.38C39.33 239.38 37.09 242.18 36.34 244.05ZM43 248.23C42.12 249.12 41.28 249.92 40.57 250.49C40.18 250.81 39.84 251.12 39.56 251.43C31.52 249.23 22.42 244.23 22.42 244.23C32.6 248.15 39.3 248.59 43 248.23ZM64.18 319.55C63.65 319.53 63.13 319.5 62.62 319.46C62.6 319.14 62.58 318.82 62.56 318.51C63.12 318.87 63.65 319.22 64.18 319.55ZM53.78 283.68C51.24 286.17 45.91 290.73 39.33 292.49C38.13 292.81 37.21 293.1 36.5 293.36C34.95 292.85 32.97 292.32 30.45 291.79C22.24 290.06 15.55 285.62 12.26 283.1C12.18 281.78 12.11 280.46 12.03 279.13C17.7 281.91 17.48 276.97 17.48 276.97C27.36 279.44 38.48 281.91 39.1 281.29C39.72 280.67 30.45 275.73 30.45 275.73C43.41 278.66 51.83 277.9 53.63 276.92C53.68 279.16 53.73 281.41 53.78 283.68ZM53.45 269.18C53.5 271.48 53.55 273.81 53.61 276.15C53.21 275.97 52.51 275.82 51.45 275.73C48.79 275.51 44.85 274.57 40.9 273.46C43.83 272.6 47.91 271.24 53.45 269.18ZM8.41 218.27C29.74 224.44 28.28 221.71 23.95 220.27C13.17 216.7 11.02 212.52 11.02 212.52C30.33 221.77 41.42 221.73 45.07 221.26C48.45 220.82 46.18 220.2 42.48 219.59C26.82 216.98 23.26 210.42 23.26 210.42C27.56 211.52 30.72 212.2 32.96 212.58C32.54 213.13 33.28 213.38 35.53 212.92C37.26 213.06 37.79 212.82 37.52 212.43C39.72 211.81 42.75 210.77 46.75 209.13C46.75 209.13 39.34 214.69 40.57 215.31C41.51 215.78 48.9 213.03 52.36 211.69C52.37 212.58 52.38 213.48 52.4 214.4V214.39C52.4 214.39 51.07 225.81 36.25 237.54C34.29 239.1 32.69 240.44 31.49 241.54C31.16 241.42 30.82 241.29 30.45 241.16C20.53 237.69 11.82 227.86 8.76 224.11C8.64 222.14 8.53 220.2 8.41 218.27Z" fill="url(#paint10_linear_1_2)"/>
<path d="M8.22001 138.63C8.84001 138.01 5.75001 133.69 5.75001 133.69C16.87 142.34 21.81 140.48 18.1 138.63C14.39 136.78 8.22001 131.22 8.22001 131.22C14.4 135.54 18.72 134.31 15.63 132.46C12.54 130.61 6.98001 126.28 6.98001 126.28C6.98001 126.28 10.07 125.66 7.60001 123.81C6.68001 123.12 5.57001 121.85 4.54001 120.52V137.81C6.10001 138.39 7.88001 138.96 8.22001 138.63Z" fill="url(#paint11_linear_1_2)"/>
<path opacity="0.25" d="M209.244 87.0598C216.196 70.0747 208.062 50.6698 191.077 43.718C174.092 36.7661 154.687 44.8996 147.735 61.8848C140.783 78.87 148.917 98.2748 165.902 105.227C182.887 112.179 202.292 104.045 209.244 87.0598Z" fill="#FF7BFF"/>
<path opacity="0.45" d="M189.137 99.6953C203.057 93.8158 209.575 77.7653 203.696 63.8455C197.816 49.9257 181.766 43.4078 167.846 49.2873C153.926 55.1668 147.408 71.2173 153.288 85.1371C159.167 99.0569 175.218 105.575 189.137 99.6953Z" fill="#FF7BFF"/>
<path opacity="0.5" d="M186.616 96.4856C198.767 92.0019 204.982 78.5171 200.498 66.3664C196.015 54.2157 182.53 48.0003 170.379 52.484C158.228 56.9677 152.013 70.4525 156.497 82.6032C160.98 94.7539 174.465 100.969 186.616 96.4856Z" fill="#FF7BFF"/>
<path d="M178.49 94.03C189.287 94.03 198.04 85.2772 198.04 74.48C198.04 63.6828 189.287 54.93 178.49 54.93C167.693 54.93 158.94 63.6828 158.94 74.48C158.94 85.2772 167.693 94.03 178.49 94.03Z" fill="url(#paint12_linear_1_2)"/>
</g>
<defs>
<filter id="filter0_d_1_2" x="0" y="0" width="758" height="508" filterUnits="userSpaceOnUse" color-interpolation-filters="sRGB">
<feFlood flood-opacity="0" result="BackgroundImageFix"/>
<feColorMatrix in="SourceAlpha" type="matrix" values="0 0 0 0 0 0 0 0 0 0 0 0 0 0 0 0 0 0 127 0" result="hardAlpha"/>
<feOffset dy="4"/>
<feGaussianBlur stdDeviation="2"/>
<feComposite in2="hardAlpha" operator="out"/>
<feColorMatrix type="matrix" values="0 0 0 0 0 0 0 0 0 0 0 0 0 0 0 0 0 0 0.25 0"/>
<feBlend mode="normal" in2="BackgroundImageFix" result="effect1_dropShadow_1_2"/>
<feBlend mode="normal" in="SourceGraphic" in2="effect1_dropShadow_1_2" result="shape"/>
</filter>
<linearGradient id="paint0_linear_1_2" x1="377.568" y1="-75.887" x2="380.631" y2="356.113" gradientUnits="userSpaceOnUse">
<stop stop-color="#3F0777"/>
<stop offset="1" stop-color="#D129DF"/>
</linearGradient>
<linearGradient id="paint1_linear_1_2" x1="316.113" y1="446.102" x2="317.174" y2="294.335" gradientUnits="userSpaceOnUse">
<stop stop-color="#FF7F5B"/>
<stop offset="0.4882" stop-color="#FFD981"/>
<stop offset="0.6092" stop-color="#FFDA85"/>
<stop offset="0.7193" stop-color="#FFDE90"/>
<stop offset="0.8252" stop-color="#FFE4A2"/>
<stop offset="0.9278" stop-color="#FFECBC"/>
<stop offset="1" stop-color="#FFF4D3"/>
</linearGradient>
<linearGradient id="paint2_linear_1_2" x1="341.069" y1="165.598" x2="346.198" y2="406.658" gradientUnits="userSpaceOnUse">
<stop stop-color="#FF77FF"/>
<stop offset="1" stop-color="#FFA9FF" stop-opacity="0"/>
</linearGradient>
<linearGradient id="paint3_linear_1_2" x1="401.88" y1="107.618" x2="460.125" y2="293.216" gradientUnits="userSpaceOnUse">
<stop stop-color="#FF77FF"/>
<stop offset="1" stop-color="#FFA9FF" stop-opacity="0"/>
</linearGradient>
<linearGradient id="paint4_linear_1_2" x1="380.147" y1="183.639" x2="380.147" y2="245.71" gradientUnits="userSpaceOnUse">
<stop stop-color="#9600CE"/>
<stop offset="1" stop-color="#B41AFC" stop-opacity="0.5"/>
</linearGradient>
<linearGradient id="paint5_linear_1_2" x1="551.02" y1="179.877" x2="549.368" y2="316.044" gradientUnits="userSpaceOnUse">
<stop stop-color="#7400B1"/>
<stop offset="1" stop-color="#971CF7"/>
</linearGradient>
<linearGradient id="paint6_linear_1_2" x1="276.471" y1="237.465" x2="264.236" y2="338.744" gradientUnits="userSpaceOnUse">
<stop stop-color="#6000A5"/>
<stop offset="1" stop-color="#800AE8"/>
</linearGradient>
<linearGradient id="paint7_linear_1_2" x1="379.269" y1="340.558" x2="379.269" y2="442.44" gradientUnits="userSpaceOnUse">
<stop stop-color="#3F0777"/>
<stop offset="1" stop-color="#6009AD"/>
</linearGradient>
<linearGradient id="paint8_linear_1_2" x1="364.547" y1="387.399" x2="364.547" y2="477.65" gradientUnits="userSpaceOnUse">
<stop stop-color="#290B51"/>
<stop offset="1" stop-color="#340B75"/>
</linearGradient>
<linearGradient id="paint9_linear_1_2" x1="668.804" y1="305.099" x2="633.67" y2="155.777" gradientUnits="userSpaceOnUse">
<stop stop-color="#290B51"/>
<stop offset="1" stop-color="#340B75"/>
</linearGradient>
<linearGradient id="paint10_linear_1_2" x1="367.029" y1="472.329" x2="396.893" y2="103.418" gradientUnits="userSpaceOnUse">
<stop stop-color="#150D23"/>
<stop offset="1" stop-color="#380D5E"/>
</linearGradient>
<linearGradient id="paint11_linear_1_2" x1="-13.2828" y1="441.544" x2="16.5814" y2="72.6305" gradientUnits="userSpaceOnUse">
<stop stop-color="#150D23"/>
<stop offset="1" stop-color="#380D5E"/>
</linearGradient>
<linearGradient id="paint12_linear_1_2" x1="176.358" y1="69.1426" x2="190.692" y2="104.976" gradientUnits="userSpaceOnUse">
<stop stop-color="#FCD2FF"/>
<stop offset="1" stop-color="#FCD2FF" stop-opacity="0.5"/>
</linearGradient>
<clipPath id="clip0_1_2">
<rect width="750" height="500" fill="white" transform="translate(4)"/>
</clipPath>
</defs>
</svg>
