<svg width="410" height="351" viewBox="0 0 410 351" fill="none" xmlns="http://www.w3.org/2000/svg">
<path d="M410 3.72C410 3.72 390.68 -3.31001 385.99 3.72C381.31 10.75 360.23 30.65 359.06 27.14C357.89 23.63 348.52 20.11 342.67 27.73C336.81 35.34 312.22 95.06 306.37 97.41C300.51 99.75 286.46 98.58 282.95 97.41C279.44 96.24 210.35 172.36 197.46 171.77C184.58 171.18 185.75 167.67 175.21 171.77C164.67 175.87 114.32 206.32 97.92 208.66C81.53 211 82.7 212.17 75.67 208.66C68.64 205.15 35.85 229.74 0.720001 236.76V350.35H410V3.72Z" fill="url(#paint0_linear_1_12)"/>
<defs>
<linearGradient id="paint0_linear_1_12" x1="207.02" y1="156.877" x2="205.368" y2="293.044" gradientUnits="userSpaceOnUse">
<stop stop-color="#7400B1"/>
<stop offset="1" stop-color="#971CF7"/>
</linearGradient>
</defs>
</svg>
