<svg width="746" height="224" viewBox="0 0 746 224" fill="none" xmlns="http://www.w3.org/2000/svg">
<path opacity="0.68" d="M0.470001 14.92C0.470001 14.92 31.5 2.62 39.7 0.279999C47.9 -2.06 105.28 31.31 111.13 28.97C116.99 26.63 143.33 24.29 150.36 21.36C157.39 18.43 172.33 37.11 178.46 31.31C189 21.36 206.56 37.75 213.59 40.09C220.62 42.43 238.18 40.68 245.21 55.9C252.24 71.12 273.62 44.98 284.44 49.46C301.42 56.49 314.89 85.18 326.01 77.56C333.56 72.4 348.26 55.9 357.63 55.9C367 55.9 378.71 37.16 388.08 39.51C397.45 41.85 416.18 68.79 431.41 68.2C438.55 67.93 452.49 51.22 465.37 51.22C478.25 51.22 502.07 66.76 507.53 61.76C521.58 48.88 518.65 41.85 534.46 48.88C546.81 54.37 555.54 34.83 567.25 31.31C578.96 27.8 621.7 58.83 632.24 39.51C642.78 20.19 614.09 -1.48 659.76 21.36L745.83 21.35V223.36H12.18L0.470001 14.92Z" fill="url(#paint0_linear_1_11)"/>
<defs>
<linearGradient id="paint0_linear_1_11" x1="373.147" y1="74.6394" x2="373.147" y2="136.71" gradientUnits="userSpaceOnUse">
<stop stop-color="#9600CE"/>
<stop offset="1" stop-color="#B41AFC" stop-opacity="0.5"/>
</linearGradient>
</defs>
</svg>
