<svg width="544" height="277" viewBox="0 0 544 277" fill="none" xmlns="http://www.w3.org/2000/svg">
<path d="M0.540009 0.669998C0.540009 0.669998 12.84 12.38 22.2 19.41C31.57 26.44 47.96 21.75 51.48 29.36C54.99 36.97 58.51 41.66 74.32 41.66C90.13 41.66 95.98 52.2 113.55 59.23C131.12 66.26 156.88 67.43 165.66 74.45C174.44 81.48 211.92 109 222.46 110.17C233 111.34 242.37 106.07 246.47 106.07C250.57 106.07 282.77 128.32 287.46 130.66C292.14 133 296.24 128.32 301.51 130.66C306.78 133 363.57 165.79 375.29 162.28C387 158.77 387.74 154.55 397.54 154.08C409.84 153.49 413.93 160.52 420.96 162.28C427.99 164.04 432.67 157.01 437.94 157.01C443.21 157.01 463.12 171.65 475.41 168.72C487.71 165.79 495.9 162.86 502.93 169.31C509.96 175.75 543.92 199.76 543.92 199.76V276.46H1.20001L0.540009 0.669998Z" fill="url(#paint0_linear_1_13)"/>
<defs>
<linearGradient id="paint0_linear_1_13" x1="272.471" y1="136.465" x2="260.236" y2="237.744" gradientUnits="userSpaceOnUse">
<stop stop-color="#6000A5"/>
<stop offset="1" stop-color="#800AE8"/>
</linearGradient>
</defs>
</svg>
