<svg width="218" height="202" viewBox="0 0 218 202" fill="none" xmlns="http://www.w3.org/2000/svg">
<path id="Vector" d="M218 0.4C218 0.4 182.6 -0.39 170.02 0.4C157.43 1.19 159.4 5.12 159.4 5.12C159.4 5.12 112.99 5.12 91.36 5.12C69.73 5.12 59.9 11.02 59.9 11.02C59.9 11.02 12.7 12.99 4.44999 15.35C-3.81001 17.71 2.08999 19.68 4.44999 24.79C6.80999 29.9 6.41995 36.59 17.04 38.95C27.66 41.31 39.4599 44.85 47.7199 52.72C55.9799 60.59 61.49 62.95 73.28 65.31C85.08 67.67 85.08 78.68 88.62 79.86C92.16 81.04 98.06 82.22 99.24 101.1C100.42 119.98 101.99 128.63 109.07 131.38C116.15 134.13 127.95 142.79 129.13 153.01C130.31 163.24 139.75 201.78 139.75 201.78H218V0.4Z" fill="url(#paint0_linear_1_16)"/>
<defs>
<linearGradient id="paint0_linear_1_16" x1="132.804" y1="110.099" x2="97.6696" y2="-39.2228" gradientUnits="userSpaceOnUse">
<stop stop-color="#290B51"/>
<stop offset="1" stop-color="#340B75"/>
</linearGradient>
</defs>
</svg>
