<svg width="87" height="87" viewBox="0 0 87 87" fill="none" xmlns="http://www.w3.org/2000/svg">
<path opacity="0.25" d="M74.2438 56.0598C81.1957 39.0747 73.0622 19.6698 56.077 12.718C39.0918 5.76605 19.687 13.8996 12.7351 30.8848C5.7832 47.87 13.9168 67.2748 30.9019 74.2267C47.8871 81.1786 67.2919 73.045 74.2438 56.0598Z" fill="#FF7BFF"/>
<path opacity="0.45" d="M54.1373 68.6953C68.0571 62.8158 74.5751 46.7653 68.6956 32.8455C62.8161 18.9257 46.7656 12.4078 32.8458 18.2873C18.926 24.1668 12.408 40.2173 18.2875 54.1371C24.167 68.0569 40.2175 74.5748 54.1373 68.6953Z" fill="#FF7BFF"/>
<path opacity="0.5" d="M51.6159 65.4856C63.7666 61.0019 69.982 47.5171 65.4983 35.3664C61.0146 23.2157 47.5298 17.0003 35.3791 21.484C23.2284 25.9677 17.013 39.4525 21.4967 51.6032C25.9804 63.7539 39.4652 69.9692 51.6159 65.4856Z" fill="#FF7BFF"/>
<path d="M43.49 63.03C54.2872 63.03 63.04 54.2772 63.04 43.48C63.04 32.6828 54.2872 23.93 43.49 23.93C32.6928 23.93 23.94 32.6828 23.94 43.48C23.94 54.2772 32.6928 63.03 43.49 63.03Z" fill="url(#paint0_linear_1_20)"/>
<defs>
<linearGradient id="paint0_linear_1_20" x1="41.3581" y1="38.1426" x2="55.6916" y2="73.9764" gradientUnits="userSpaceOnUse">
<stop stop-color="#FCD2FF"/>
<stop offset="1" stop-color="#FCD2FF" stop-opacity="0.5"/>
</linearGradient>
</defs>
</svg>
